<?xml version="1.0" encoding="utf-8"?>
<!-- Generator: Adobe Illustrator 22.0.1, SVG Export Plug-In . SVG Version: 6.00 Build 0)  -->
<svg version="1.1" id="Layer_1" xmlns="http://www.w3.org/2000/svg" xmlns:xlink="http://www.w3.org/1999/xlink" x="0px" y="0px"
	 viewBox="0 0 52.6 48.5" style="enable-background:new 0 0 52.6 48.5;" xml:space="preserve">
<g>
	<path d="M37.2,20.7c-3.4,0-6.2,2.8-6.2,6.2s2.8,6.2,6.2,6.2s6.2-2.8,6.2-6.2S40.8,20.7,37.2,20.7z M37.2,32.2
		c-2.9,0-5.2-2.4-5.2-5.2s2.3-5.3,5.2-5.3s5.2,2.4,5.2,5.2S40.1,32.2,37.2,32.2z"/>
	<path d="M15.2,20.7c-3.4,0-6.2,2.8-6.2,6.2s2.8,6.2,6.2,6.2s6.2-2.8,6.2-6.2S18.7,20.7,15.2,20.7z M15.2,32.2
		c-2.9,0-5.2-2.4-5.2-5.2s2.3-5.3,5.2-5.3s5.2,2.4,5.2,5.2S18.1,32.2,15.2,32.2z"/>
	<path d="M48.8,10.8V8.6c0-1-0.8-1.7-1.7-1.7H5.6c-1,0-1.7,0.8-1.7,1.7v2.1c-2.2,0.2-3.9,2-3.9,4.2v22.6c0,2.3,1.9,4.2,4.2,4.2h13.4
		c1.3,0,2.4-0.7,3-1.9l0.6-1.4h9.7l0.5,1.3c0.5,1.2,1.7,2,3,2h13.9c2.3,0,4.2-1.9,4.2-4.2V15C52.5,12.8,50.9,11,48.8,10.8z M5,8.6
		C5,8.3,5.3,8,5.6,8H47c0.3,0,0.6,0.3,0.6,0.6v2H5V8.6z M21.6,37.4l2-5c0.5-1,1.4-1.6,2.5-1.6c0.9,0,2.1,0.5,2.6,1.7l1.7,4.9H21.6z
		 M51.5,37.6c0,1.8-1.5,3.2-3.2,3.2h-14c-0.9,0-1.7-0.5-2.1-1.4l-2.6-7.3c-0.6-1.4-1.9-2.3-3.5-2.3c-1.5,0-2.8,0.8-3.4,2.2l-3,7.5
		c-0.4,0.8-1.2,1.3-2.1,1.3H4.2c-1.8,0-3.2-1.5-3.2-3.2V15c0-1.8,1.5-3.2,3.2-3.2h44c1.8,0,3.2,1.5,3.2,3.2L51.5,37.6L51.5,37.6z"/>
</g>
</svg>
