<?xml version="1.0" encoding="utf-8"?>
<!-- Generator: Adobe Illustrator 22.0.1, SVG Export Plug-In . SVG Version: 6.00 Build 0)  -->
<svg version="1.1" id="Capa_1" xmlns="http://www.w3.org/2000/svg" xmlns:xlink="http://www.w3.org/1999/xlink" x="0px" y="0px"
	 viewBox="0 0 55.9 53.2" style="enable-background:new 0 0 55.9 53.2;" xml:space="preserve">
<style type="text/css">
	.st0{fill:#95B4C6;}
	.st1{fill:#FFFFFF;}
</style>
<path d="M11.3,53.2c-0.2,0-0.4-0.1-0.6-0.2c-0.3-0.2-0.5-0.6-0.4-1l3.1-18L0.3,21.3C0,21-0.1,20.6,0,20.2s0.4-0.6,0.8-0.7l18.1-2.6
	L27,0.5C27.2,0.2,27.6,0,27.9,0l0,0c0.4,0,0.7,0.2,0.9,0.6L36.9,17L55,19.5c0.4,0.1,0.7,0.3,0.8,0.7c0.1,0.4,0,0.8-0.3,1L42.5,34
	l3.1,18c0.1,0.4-0.1,0.8-0.4,1c-0.3,0.2-0.7,0.3-1.1,0.1l-16.2-8.5l-16.2,8.5C11.6,53.2,11.4,53.2,11.3,53.2z"/>
<path class="st0" d="M27.8,3.7l-7.2,14.6c-0.1,0.3-0.4,0.5-0.8,0.5L3.1,21.2l12,11.7c0.2,0.2,0.3,0.6,0.3,0.9l-2.8,16.5l14.9-7.8
	c0.1-0.1,0.2-0.1,0.3-0.1V3.7z"/>
<path class="st1" d="M27.8,3.7L35,18.3c0.1,0.3,0.4,0.5,0.8,0.5l16.7,2.4l-12,11.7c-0.2,0.2-0.3,0.6-0.3,0.9L43,50.3l-14.9-7.8
	c-0.1-0.1-0.2-0.1-0.3-0.1V3.7z"/>
</svg>
