<?xml version="1.0" encoding="utf-8"?>
<!-- Generator: Adobe Illustrator 22.0.1, SVG Export Plug-In . SVG Version: 6.00 Build 0)  -->
<svg version="1.1" id="Capa_1" xmlns="http://www.w3.org/2000/svg" xmlns:xlink="http://www.w3.org/1999/xlink" x="0px" y="0px"
	 viewBox="0 0 512 512" style="enable-background:new 0 0 512 512;" xml:space="preserve">
<style type="text/css">
	.st0{fill:url(#SVGID_1_);}
	.st1{fill:url(#SVGID_2_);}
	.st2{fill:url(#SVGID_3_);}
	.st3{fill:none;stroke:#2F5463;stroke-width:6;stroke-miterlimit:10;}
	.st4{fill:none;stroke:#000000;stroke-width:7;stroke-miterlimit:10;}
	.st5{fill:none;stroke:#000000;stroke-width:6;stroke-miterlimit:10;}
	.st6{fill:none;stroke:#000000;stroke-width:3;stroke-miterlimit:10;}
	.st7{fill:none;stroke:#000000;stroke-width:0.5;stroke-miterlimit:10;}
	.st8{fill:none;stroke:#000000;stroke-width:4;stroke-miterlimit:10;}
	.st9{fill:none;stroke:#000000;stroke-width:2;stroke-miterlimit:10;}
	.st10{fill:#F9FBE7;}
	.st11{fill:none;stroke:#000000;stroke-width:0.25;stroke-miterlimit:10;}
	.st12{fill:none;stroke:#000000;stroke-width:0.75;stroke-miterlimit:10;}
	.st13{fill:none;}
</style>
<linearGradient id="SVGID_1_" gradientUnits="userSpaceOnUse" x1="256" y1="548.8528" x2="256" y2="37.6916">
	<stop  offset="0" style="stop-color:#2D15FF"/>
	<stop  offset="3.435497e-02" style="stop-color:#1557F9"/>
	<stop  offset="0.1618" style="stop-color:#1A4FD8"/>
	<stop  offset="0.3496" style="stop-color:#1F45AD"/>
	<stop  offset="0.5321" style="stop-color:#243D8B"/>
	<stop  offset="0.7053" style="stop-color:#273773"/>
	<stop  offset="0.8655" style="stop-color:#293365"/>
	<stop  offset="1" style="stop-color:#2A3260"/>
</linearGradient>
<rect x="-1.4" y="0.4" class="st0" width="514.8" height="511.2"/>
<linearGradient id="SVGID_2_" gradientUnits="userSpaceOnUse" x1="366.83" y1="129.9532" x2="366.83" y2="57.5859">
	<stop  offset="8.904424e-04" style="stop-color:#FCFCFC"/>
	<stop  offset="1" style="stop-color:#4A4A4A"/>
</linearGradient>
<ellipse class="st1" cx="366.8" cy="93.4" rx="136.5" ry="36.5"/>
<linearGradient id="SVGID_3_" gradientUnits="userSpaceOnUse" x1="191.0713" y1="110.7112" x2="191.0713" y2="10.9995">
	<stop  offset="8.904424e-04" style="stop-color:#DCDCDC"/>
	<stop  offset="1" style="stop-color:#2A2A2A"/>
</linearGradient>
<ellipse class="st2" cx="191.1" cy="60.4" rx="188.1" ry="50.3"/>
<image style="overflow:visible;" width="2400" height="2400" xlink:href="../Downloads/ios-7-icon-template_287666.png"  transform="matrix(0.2133 0 0 0.2133 686.1476 22.3475)">
</image>
<path class="st3" d="M440.7,206v-18.1c0-20-16.6-36.2-36.9-36.2H108.2c-20.4,0-36.9,16.2-36.9,36.2V206c-20.4,0-36.9,16.2-36.9,36.2
	v199c0,20,16.6,36.2,36.9,36.2h95.4c18.7,0,35.4-10.9,42.6-27.8l3.6-8.3h86.2l3.6,8.3c7.2,16.9,23.9,27.8,42.6,27.8h95.4
	c20.4,0,36.9-16.2,36.9-36.2v-199C477.7,222.2,461.1,206,440.7,206z"/>
<g>
	<path class="st4" d="M89.7,187.9c0-10,8.3-18.1,18.5-18.1h295.6c10.2,0,18.5,8.1,18.5,18.1V206H89.7V187.9z"/>
	<path class="st5" d="M220.6,423.1l18.4-43.2c2.9-6.8,9.6-11.1,17.1-11.1s14.2,4.4,17.1,11.1l18.4,43.2H220.6z"/>
</g>
<path class="st5" d="M459.2,441.2c0,10-8.3,18.1-18.5,18.1h-95.4c-11.2,0-21.3-6.6-25.6-16.7L290.1,373
	c-5.8-13.5-19.1-22.3-34.1-22.3c-15,0-28.4,8.7-34.1,22.3l-29.6,69.6c-4.3,10.2-14.4,16.7-25.6,16.7H71.3
	c-10.2,0-18.5-8.1-18.5-18.1v-199c0-10,8.3-18.1,18.5-18.1h369.5c10.2,0,18.5,8.1,18.5,18.1V441.2z"/>
<ellipse class="st6" cx="145.2" cy="332.6" rx="55.4" ry="54.3"/>
<ellipse class="st7" cx="145.2" cy="332.6" rx="45.9" ry="45"/>
<ellipse class="st8" cx="366.8" cy="332.6" rx="55.4" ry="54.3"/>
<path id="SVGCleanerId_0" class="st9" d="M459.2,51.8c-1.8-0.3-3.6-0.8-5.3-1.4c-12.3-4.1-19.3-14.2-21.6-27.2c-0.2-1.2-2-1.2-2.2,0
	c-2.7,15.1-11.5,25.7-26.8,28.5c-1.2,0.2-1.2,2,0,2.2c15.1,2.8,24.2,13.4,26.8,28.4c0.2,0.9,1.2,0.9,1.1,0.9c0.5,0,1-0.4,1.1-0.9
	c1.4-7.7,5.1-18.2,15.5-24.3c3.3-2,7.1-3.3,11.3-4.1c0.5-0.1,0.9-0.6,0.9-1.1C460.1,52.4,459.7,51.9,459.2,51.8z"/>
<g>
	<path id="SVGCleanerId_0_1_" class="st10" d="M459.2,51.8c-1.8-0.3-3.6-0.8-5.3-1.4c-12.3-4.1-19.3-14.2-21.6-27.2
		c-0.2-1.2-2-1.2-2.2,0c-2.7,15.1-11.5,25.7-26.8,28.5c-1.2,0.2-1.2,2,0,2.2c15.1,2.8,24.2,13.4,26.8,28.4c0.2,0.9,1.2,0.9,1.1,0.9
		c0.5,0,1-0.4,1.1-0.9c1.4-7.7,5.1-18.2,15.5-24.3c3.3-2,7.1-3.3,11.3-4.1c0.5-0.1,0.9-0.6,0.9-1.1
		C460.1,52.4,459.7,51.9,459.2,51.8z"/>
</g>
<path class="st10" d="M258.7,46.4c-4.4-1.4-7.2-4.7-8.6-9.2c-0.3-0.8-1.1-0.8-1.1-0.8c-0.5,0-0.9,0.3-1.1,0.8
	c-1.4,4.3-4.2,7.7-8.6,9.2c-1,0.3-1,1.8,0,2.1c4.4,1.5,7.3,4.8,8.6,9.2c0.3,0.8,1.1,0.8,1.1,0.8c0.5,0,0.9-0.3,1.1-0.8
	c1-3.3,2.8-5.8,5.3-7.5c0,0,0,0,0,0c2.7-1.9,4.1-1.3,4.1-2.7C259.5,47,259.2,46.6,258.7,46.4z"/>
<path class="st10" d="M208,51.8c-4.4-1.5-7.2-4.7-8.6-9.2c-0.3-0.8-1.1-0.8-1.1-0.8c-0.5,0-0.9,0.3-1.1,0.8
	c-1.4,4.3-4.2,7.7-8.6,9.2c-1,0.3-1,1.8,0,2.1c4.4,1.5,7.3,4.8,8.6,9.2c0.3,0.8,1.1,0.8,1.1,0.8c0.5,0,0.9-0.3,1.1-0.8
	c1.7-5.4,5.1-7.3,5.3-7.5c2.7-1.9,4.1-1.3,4.1-2.7C208.8,52.4,208.5,51.9,208,51.8z"/>
<g>
	<g>
		<path class="st11" d="M177.8,363.6l-14.4-24.9v0l-0.9-1.5l-11.7-20.3c-0.2-0.4-0.7-0.6-1.1-0.6c-0.5,0-0.9,0.2-1.1,0.6l-7.8,13.6
			c0,0,0,0,0,0l-1.9,3.3l-3.2-5.4c-0.2-0.4-0.7-0.6-1.1-0.6s-0.9,0.2-1.1,0.6l-21,35.2c-0.2,0.4-0.2,0.9,0,1.3
			c0.2,0.4,0.7,0.6,1.1,0.6h63.1c0.5,0,0.9-0.2,1.1-0.6C178.1,364.5,178.1,364,177.8,363.6z M149.8,320.1l10.9,18.8l-2.4,1.4
			c-0.5,0.3-1.1,0.1-1.4-0.3l-3.8-6.1c-0.6-0.9-1.6-1.6-2.7-1.7c-0.1,0-0.3,0-0.4,0c-1,0-1.9,0.4-2.5,1.1c-0.4,0.4-1.1,0.4-1.5,0
			l-2.3-2.3L149.8,320.1z M134.6,331.5l10.6,17.8l-2.5,3c-0.2,0.3-0.6,0.5-1,0.5c-0.4,0-0.8-0.1-1.1-0.3l-5.1-4.5
			c-0.7-0.7-1.7-1-2.6-1c-0.8,0-1.7,0.3-2.4,0.8l-5.6,4.1c-0.6,0.4-1.2,0.3-1.4,0.2c-0.2-0.1-0.6-0.3-0.8-0.8L134.6,331.5z
			 M122.8,362.9L122.8,362.9l-7,0l5.6-9.3c0.3,0.3,0.7,0.6,1.2,0.8c1.3,0.6,2.8,0.4,4-0.4l5.6-4.1c0.5-0.4,1.3-0.4,1.8,0.1l5.1,4.5
			c0.7,0.6,1.7,1,2.6,1c0.1,0,0.2,0,0.3,0c1.1-0.1,2.1-0.6,2.8-1.4l1.9-2.3l6.7,11.3H122.8L122.8,362.9z M156.4,362.9L156.4,362.9
			l-8.5-14.2c0,0,0,0,0,0l-7.5-12.5l1.8-3.1l1.8,1.8c1.4,1.4,3.7,1.4,5.1,0c0.3-0.3,0.7-0.3,0.9-0.3c0.3,0,0.6,0.2,0.8,0.5l3.8,6.1
			c0.7,1.1,1.9,1.7,3.1,1.7c0.6,0,1.3-0.2,1.9-0.5l2.3-1.4l12.6,21.8L156.4,362.9L156.4,362.9z"/>
	</g>
</g>
<g>
	<g>
		<path class="st11" d="M129.9,311.1c-0.3-0.4-0.8-0.5-1.2-0.4c-1.8,0.4-3.6-0.2-4.9-1.5c-2-2-2-5.2-0.2-7.2
			c0.3-0.4,0.4-0.8,0.2-1.3c-0.2-0.4-0.6-0.8-1-0.8c-0.4-0.1-0.9-0.1-1.3-0.1c-5.1,0-9.2,4.1-9.2,9.2s4.1,9.2,9.2,9.2
			c3.8,0,7.2-2.3,8.6-5.8C130.3,312,130.2,311.5,129.9,311.1z M121.5,315.7c-3.7,0-6.7-3-6.7-6.7c0-3.3,2.4-6,5.5-6.6
			c-1.2,2.9-0.6,6.3,1.6,8.6c0,0,0,0,0,0c1.3,1.3,2.9,2.1,4.6,2.3C125.4,314.8,123.5,315.7,121.5,315.7z"/>
	</g>
</g>
<g>
	<g>
		<path class="st11" d="M176.7,319h-13.6c-0.1-0.3-0.1-0.6-0.1-0.8c0-1.7,1.4-3,3-3c0.3,0,0.7,0.1,1,0.2c0.3,0.1,0.7,0.1,1-0.1
			c0.3-0.2,0.5-0.4,0.7-0.7c0,0,0,0,0-0.1c0.8-3,3.7-5.2,6.8-5.2c0.3,0,0.6,0,1,0.1c0.7,0.1,1.4-0.4,1.4-1.1
			c0.1-0.7-0.4-1.4-1.1-1.4c-0.4-0.1-0.9-0.1-1.3-0.1c-3.9,0-7.4,2.4-8.9,5.9c-0.2,0-0.4,0-0.6,0c-3.1,0-5.6,2.5-5.6,5.6
			c0,1,0.3,1.9,0.7,2.8c0.2,0.4,0.7,0.6,1.1,0.6h14.4c0.7,0,1.3-0.6,1.3-1.3S177.4,319,176.7,319z"/>
	</g>
</g>
<g>
	<g>
		<path class="st11" d="M124,323.1h-6.3c-0.7,0-1.3,0.6-1.3,1.3s0.6,1.3,1.3,1.3h6.3c0.7,0,1.3-0.6,1.3-1.3
			C125.3,323.7,124.7,323.1,124,323.1z"/>
	</g>
</g>
<g>
	<g>
		<path class="st11" d="M121.8,331.3h-8.2c-0.7,0-1.3,0.6-1.3,1.3s0.6,1.3,1.3,1.3h8.2c0.7,0,1.3-0.6,1.3-1.3
			S122.5,331.3,121.8,331.3z"/>
	</g>
</g>
<g>
	<g>
		<path class="st11" d="M130.8,323.5c-0.2-0.2-0.6-0.4-0.9-0.4s-0.7,0.1-0.9,0.4c-0.2,0.2-0.4,0.6-0.4,0.9c0,0.3,0.1,0.7,0.4,0.9
			c0.2,0.2,0.6,0.4,0.9,0.4s0.7-0.1,0.9-0.4s0.4-0.6,0.4-0.9C131.1,324.1,131,323.7,130.8,323.5z"/>
	</g>
</g>
<g>
	<g>
		<path class="st11" d="M163.4,306.7h-14.5c-0.7,0-1.3,0.6-1.3,1.3s0.6,1.3,1.3,1.3h14.5c0.7,0,1.3-0.6,1.3-1.3
			S164.1,306.7,163.4,306.7z"/>
	</g>
</g>
<g>
	<g>
		<path class="st11" d="M144.8,307.1c-0.2-0.2-0.6-0.4-0.9-0.4c-0.3,0-0.7,0.1-0.9,0.4c-0.2,0.2-0.4,0.6-0.4,0.9
			c0,0.3,0.1,0.7,0.4,0.9s0.6,0.4,0.9,0.4c0.3,0,0.7-0.1,0.9-0.4c0.2-0.2,0.4-0.6,0.4-0.9C145.2,307.7,145,307.3,144.8,307.1z"/>
	</g>
</g>
<ellipse class="st7" cx="366.8" cy="332.6" rx="45.9" ry="45"/>
<g>
	<g>
		<path class="st12" d="M339.4,334.4v5.3h-3.2v12.6h-1.1v10.3h1.6v-8.7h1.6v8.7h1.6v-8.7h2.6v8.7h1.6v-8.7v-1.6v-11v-1.6v-5.3
			L339.4,334.4L339.4,334.4z M342.6,352.3h-4.7v-11h1.6h3.2V352.3z M342.6,339.7H341V336h1.6V339.7z"/>
	</g>
</g>
<g>
	<g>
		<path class="st12" d="M361,352.3v-12.6h-3.2v-5.3h-4.7v5.3v1.6v11v1.6v8.7h1.6v-8.7h2.6v8.7h1.6v-8.7h1.6v8.7h1.6v-10.3H361z
			 M354.7,336h1.6v3.7h-1.6V336z M359.4,352.3h-4.7v-11h3.2h1.6V352.3L359.4,352.3z"/>
	</g>
</g>
<g>
	<g>
		<path class="st12" d="M352.6,329.1V326H351v-6.3h-1.6v-5.5h-1.6v5.5h-1.6v6.3h-1.6v3.2h-2.1v5h1.6v-3.4h0.5h7.9h0.5v3.4h1.6v-5
			H352.6L352.6,329.1z M347.9,321.3h1.6v4.7h-1.6V321.3z M351,329.1h-4.7v-1.6h4.7V329.1z"/>
	</g>
</g>
<g>
	<g>
		<rect x="339.4" y="342.6" class="st12" width="1.6" height="1.6"/>
	</g>
</g>
<g>
	<g>
		<rect x="339.4" y="348.9" class="st12" width="1.6" height="1.6"/>
	</g>
</g>
<g>
	<g>
		<rect x="339.4" y="345.7" class="st12" width="1.6" height="1.6"/>
	</g>
</g>
<g>
	<g>
		<rect x="356.3" y="345.7" class="st12" width="1.6" height="1.6"/>
	</g>
</g>
<g>
	<g>
		<rect x="356.3" y="342.6" class="st12" width="1.6" height="1.6"/>
	</g>
</g>
<g>
	<g>
		<rect x="356.3" y="348.9" class="st12" width="1.6" height="1.6"/>
	</g>
</g>
<g>
	<g>
		<rect x="345.7" y="333.1" class="st12" width="1.6" height="29.5"/>
	</g>
</g>
<g>
	<g>
		<rect x="350" y="333.1" class="st12" width="1.6" height="29.5"/>
	</g>
</g>
<rect x="0" class="st13" width="512" height="512"/>
<path class="st10" d="M392.5,22c-4.4-1.5-7.2-4.7-8.6-9.2c-0.3-0.8-1.1-0.8-1.1-0.8c-0.5,0-0.9,0.3-1.1,0.8
	c-1.4,4.3-4.2,7.7-8.6,9.2c-1,0.3-1,1.8,0,2.1c4.4,1.5,7.3,4.8,8.6,9.2c0.3,0.8,1.1,0.8,1.1,0.8c0.5,0,0.9-0.3,1.1-0.8
	c1.7-5.4,5.1-7.3,5.3-7.5c2.7-1.9,4.1-1.3,4.1-2.7C393.2,22.6,392.9,22.2,392.5,22z"/>
<path class="st10" d="M437.2,107.5c-4.4-1.5-7.2-4.7-8.6-9.2c-0.3-0.8-1.1-0.8-1.1-0.8c-0.5,0-0.9,0.3-1.1,0.8
	c-1.4,4.3-4.2,7.7-8.6,9.2c-1,0.3-1,1.8,0,2.1c4.4,1.5,7.3,4.8,8.6,9.2c0.3,0.8,1.1,0.8,1.1,0.8c0.5,0,0.9-0.3,1.1-0.8
	c1.7-5.4,5.1-7.3,5.3-7.5c2.7-1.9,4.1-1.3,4.1-2.7C438,108.1,437.7,107.7,437.2,107.5z"/>
<path class="st10" d="M500.8,23.8c-4.4-1.5-7.2-4.7-8.6-9.2c-0.3-0.8-1.1-0.8-1.1-0.8c-0.5,0-0.9,0.3-1.1,0.8
	c-1.4,4.3-4.2,7.7-8.6,9.2c-1,0.3-1,1.8,0,2.1c4.4,1.5,7.3,4.8,8.6,9.2c0.3,0.8,1.1,0.8,1.1,0.8c0.5,0,0.9-0.3,1.1-0.8
	c1.7-5.4,5.1-7.3,5.3-7.5c2.7-1.9,4.1-1.3,4.1-2.7C501.5,24.4,501.2,23.9,500.8,23.8z"/>
<path class="st10" d="M369.1,78.5c-4.4-1.5-7.2-4.7-8.6-9.2c-0.3-0.8-1.1-0.8-1.1-0.8c-0.5,0-0.9,0.3-1.1,0.8
	c-1.4,4.3-4.2,7.7-8.6,9.2c-1,0.3-1,1.8,0,2.1c4.4,1.5,7.3,4.8,8.6,9.2c0.3,0.8,1.1,0.8,1.1,0.8c0.5,0,0.9-0.3,1.1-0.8
	c1.7-5.4,5.1-7.3,5.3-7.5c2.7-1.9,4.1-1.3,4.1-2.7C369.9,79.1,369.6,78.7,369.1,78.5z"/>
<path class="st10" d="M268.6,60.1c-1.4-0.5-2.3-1.5-2.7-2.9c-0.1-0.3-0.3-0.2-0.3-0.2c-0.2,0-0.3,0.1-0.3,0.2
	c-0.4,1.4-1.3,2.4-2.7,2.9c-0.3,0.1-0.3,0.6,0,0.7c1.4,0.5,2.3,1.5,2.7,2.9c0.1,0.3,0.3,0.2,0.3,0.2c0.2,0,0.3-0.1,0.3-0.2
	c0.5-1.7,1.6-2.3,1.7-2.4c0.9-0.6,1.3-0.4,1.3-0.8C268.8,60.3,268.7,60.1,268.6,60.1z"/>
<path class="st10" d="M178.6,52.5c-1.4-0.5-2.3-1.5-2.7-2.9c-0.1-0.3-0.3-0.2-0.3-0.2c-0.2,0-0.3,0.1-0.3,0.2
	c-0.4,1.4-1.3,2.4-2.7,2.9c-0.3,0.1-0.3,0.6,0,0.7c1.4,0.5,2.3,1.5,2.7,2.9c0.1,0.3,0.3,0.2,0.3,0.2c0.2,0,0.3-0.1,0.3-0.2
	c0.5-1.7,1.6-2.3,1.7-2.4c0.9-0.6,1.3-0.4,1.3-0.8C178.8,52.7,178.7,52.5,178.6,52.5z"/>
<path class="st10" d="M259,83c-1.4-0.5-2.3-1.5-2.7-2.9c-0.1-0.3-0.3-0.2-0.3-0.2c-0.2,0-0.3,0.1-0.3,0.2c-0.4,1.4-1.3,2.4-2.7,2.9
	c-0.3,0.1-0.3,0.6,0,0.7c1.4,0.5,2.3,1.5,2.7,2.9c0.1,0.3,0.3,0.2,0.3,0.2c0.2,0,0.3-0.1,0.3-0.2c0.5-1.7,1.6-2.3,1.7-2.4
	c0.9-0.6,1.3-0.4,1.3-0.8C259.3,83.2,259.2,83,259,83z"/>
<path class="st10" d="M304.6,67c-1.4-0.5-2.3-1.5-2.7-2.9c-0.1-0.3-0.3-0.2-0.3-0.2c-0.2,0-0.3,0.1-0.3,0.2
	c-0.4,1.4-1.3,2.4-2.7,2.9c-0.3,0.1-0.3,0.6,0,0.7c1.4,0.5,2.3,1.5,2.7,2.9c0.1,0.3,0.3,0.2,0.3,0.2c0.2,0,0.3-0.1,0.3-0.2
	c0.5-1.7,1.6-2.3,1.7-2.4c0.9-0.6,1.3-0.4,1.3-0.8C304.8,67.2,304.7,67,304.6,67z"/>
<path class="st10" d="M283.5,77c-1.4-0.5-2.3-1.5-2.7-2.9c-0.1-0.3-0.3-0.2-0.3-0.2c-0.2,0-0.3,0.1-0.3,0.2
	c-0.4,1.4-1.3,2.4-2.7,2.9c-0.3,0.1-0.3,0.6,0,0.7c1.4,0.5,2.3,1.5,2.7,2.9c0.1,0.3,0.3,0.2,0.3,0.2c0.2,0,0.3-0.1,0.3-0.2
	c0.5-1.7,1.6-2.3,1.7-2.4c0.9-0.6,1.3-0.4,1.3-0.8C283.7,77.2,283.6,77.1,283.5,77z"/>
<path class="st10" d="M224.2,53.2c-1.4-0.5-2.3-1.5-2.7-2.9c-0.1-0.3-0.3-0.2-0.3-0.2c-0.2,0-0.3,0.1-0.3,0.2
	c-0.4,1.4-1.3,2.4-2.7,2.9c-0.3,0.1-0.3,0.6,0,0.7c1.4,0.5,2.3,1.5,2.7,2.9c0.1,0.3,0.3,0.2,0.3,0.2c0.2,0,0.3-0.1,0.3-0.2
	c0.5-1.7,1.6-2.3,1.7-2.4c0.9-0.6,1.3-0.4,1.3-0.8C224.4,53.3,224.3,53.2,224.2,53.2z"/>
<path class="st10" d="M211.9,91.5c-1.4-0.5-2.3-1.5-2.7-2.9c-0.1-0.3-0.3-0.2-0.3-0.2c-0.2,0-0.3,0.1-0.3,0.2
	c-0.4,1.4-1.3,2.4-2.7,2.9c-0.3,0.1-0.3,0.6,0,0.7c1.4,0.5,2.3,1.5,2.7,2.9c0.1,0.3,0.3,0.2,0.3,0.2c0.2,0,0.3-0.1,0.3-0.2
	c0.5-1.7,1.6-2.3,1.7-2.4c0.9-0.6,1.3-0.4,1.3-0.8C212.2,91.7,212.1,91.6,211.9,91.5z"/>
<path class="st10" d="M230.7,72c-1.4-0.5-2.3-1.5-2.7-2.9c-0.1-0.3-0.3-0.2-0.3-0.2c-0.2,0-0.3,0.1-0.3,0.2
	c-0.4,1.4-1.3,2.4-2.7,2.9c-0.3,0.1-0.3,0.6,0,0.7c1.4,0.5,2.3,1.5,2.7,2.9c0.1,0.3,0.3,0.2,0.3,0.2c0.2,0,0.3-0.1,0.3-0.2
	c0.5-1.7,1.6-2.3,1.7-2.4c0.9-0.6,1.3-0.4,1.3-0.8C231,72.1,230.9,72,230.7,72z"/>
<path class="st10" d="M163.7,89.7c-1.4-0.5-2.3-1.5-2.7-2.9c-0.1-0.3-0.3-0.2-0.3-0.2c-0.2,0-0.3,0.1-0.3,0.2
	c-0.4,1.4-1.3,2.4-2.7,2.9c-0.3,0.1-0.3,0.6,0,0.7c1.4,0.5,2.3,1.5,2.7,2.9c0.1,0.3,0.3,0.2,0.3,0.2c0.2,0,0.3-0.1,0.3-0.2
	c0.5-1.7,1.6-2.3,1.7-2.4c0.9-0.6,1.3-0.4,1.3-0.8C164,89.8,163.9,89.7,163.7,89.7z"/>
<path class="st10" d="M463.2,72c-1.4-0.5-2.3-1.5-2.7-2.9c-0.1-0.3-0.3-0.2-0.3-0.2c-0.2,0-0.3,0.1-0.3,0.2
	c-0.4,1.4-1.3,2.4-2.7,2.9c-0.3,0.1-0.3,0.6,0,0.7c1.4,0.5,2.3,1.5,2.7,2.9c0.1,0.3,0.3,0.2,0.3,0.2c0.2,0,0.3-0.1,0.3-0.2
	c0.5-1.7,1.6-2.3,1.7-2.4c0.9-0.6,1.3-0.4,1.3-0.8C463.4,72.1,463.3,72,463.2,72z"/>
<path class="st10" d="M470.9,40.5c-1.4-0.5-2.3-1.5-2.7-2.9c-0.1-0.3-0.3-0.2-0.3-0.2c-0.2,0-0.3,0.1-0.3,0.2
	c-0.4,1.4-1.3,2.4-2.7,2.9c-0.3,0.1-0.3,0.6,0,0.7c1.4,0.5,2.3,1.5,2.7,2.9c0.1,0.3,0.3,0.2,0.3,0.2c0.2,0,0.3-0.1,0.3-0.2
	c0.5-1.7,1.6-2.3,1.7-2.4c0.9-0.6,1.3-0.4,1.3-0.8C471.2,40.7,471.1,40.5,470.9,40.5z"/>
<path class="st10" d="M304.6,91.5c-1.4-0.5-2.3-1.5-2.7-2.9c-0.1-0.3-0.3-0.2-0.3-0.2c-0.2,0-0.3,0.1-0.3,0.2
	c-0.4,1.4-1.3,2.4-2.7,2.9c-0.3,0.1-0.3,0.6,0,0.7c1.4,0.5,2.3,1.5,2.7,2.9c0.1,0.3,0.3,0.2,0.3,0.2c0.2,0,0.3-0.1,0.3-0.2
	c0.5-1.7,1.6-2.3,1.7-2.4c0.9-0.6,1.3-0.4,1.3-0.8C304.8,91.7,304.7,91.6,304.6,91.5z"/>
<path class="st10" d="M320.9,47.2c-1.4-0.5-2.3-1.5-2.7-2.9c-0.1-0.3-0.3-0.2-0.3-0.2c-0.2,0-0.3,0.1-0.3,0.2
	c-0.4,1.4-1.3,2.4-2.7,2.9c-0.3,0.1-0.3,0.6,0,0.7c1.4,0.5,2.3,1.5,2.7,2.9c0.1,0.3,0.3,0.2,0.3,0.2c0.2,0,0.3-0.1,0.3-0.2
	c0.5-1.7,1.6-2.3,1.7-2.4c0.9-0.6,1.3-0.4,1.3-0.8C321.2,47.4,321.1,47.2,320.9,47.2z"/>
<path class="st10" d="M293.3,40.5c-1.4-0.5-2.3-1.5-2.7-2.9c-0.1-0.3-0.3-0.2-0.3-0.2c-0.2,0-0.3,0.1-0.3,0.2
	c-0.4,1.4-1.3,2.4-2.7,2.9c-0.3,0.1-0.3,0.6,0,0.7c1.4,0.5,2.3,1.5,2.7,2.9c0.1,0.3,0.3,0.2,0.3,0.2c0.2,0,0.3-0.1,0.3-0.2
	c0.5-1.7,1.6-2.3,1.7-2.4c0.9-0.6,1.3-0.4,1.3-0.8C293.6,40.7,293.5,40.5,293.3,40.5z"/>
<path class="st10" d="M346.4,63.5c-1.4-0.5-2.3-1.5-2.7-2.9c-0.1-0.3-0.3-0.2-0.3-0.2c-0.2,0-0.3,0.1-0.3,0.2
	c-0.4,1.4-1.3,2.4-2.7,2.9c-0.3,0.1-0.3,0.6,0,0.7c1.4,0.5,2.3,1.5,2.7,2.9c0.1,0.3,0.3,0.2,0.3,0.2c0.2,0,0.3-0.1,0.3-0.2
	c0.5-1.7,1.6-2.3,1.7-2.4c0.9-0.6,1.3-0.4,1.3-0.8C346.7,63.7,346.6,63.6,346.4,63.5z"/>
<path class="st10" d="M238.3,104c-1.4-0.5-2.3-1.5-2.7-2.9c-0.1-0.3-0.3-0.2-0.3-0.2c-0.2,0-0.3,0.1-0.3,0.2
	c-0.4,1.4-1.3,2.4-2.7,2.9c-0.3,0.1-0.3,0.6,0,0.7c1.4,0.5,2.3,1.5,2.7,2.9c0.1,0.3,0.3,0.2,0.3,0.2c0.2,0,0.3-0.1,0.3-0.2
	c0.5-1.7,1.6-2.3,1.7-2.4c0.9-0.6,1.3-0.4,1.3-0.8C238.5,104.2,238.4,104,238.3,104z"/>
<path class="st10" d="M188.8,73.6c-1.4-0.5-2.3-1.5-2.7-2.9c-0.1-0.3-0.3-0.2-0.3-0.2c-0.2,0-0.3,0.1-0.3,0.2
	c-0.4,1.4-1.3,2.4-2.7,2.9c-0.3,0.1-0.3,0.6,0,0.7c1.4,0.5,2.3,1.5,2.7,2.9c0.1,0.3,0.3,0.2,0.3,0.2c0.2,0,0.3-0.1,0.3-0.2
	c0.5-1.7,1.6-2.3,1.7-2.4c0.9-0.6,1.3-0.4,1.3-0.8C189.1,73.8,189,73.6,188.8,73.6z"/>
<path class="st10" d="M321.6,104.1c-1.4-0.5-2.3-1.5-2.7-2.9c-0.1-0.3-0.3-0.2-0.3-0.2c-0.2,0-0.3,0.1-0.3,0.2
	c-0.4,1.4-1.3,2.4-2.7,2.9c-0.3,0.1-0.3,0.6,0,0.7c1.4,0.5,2.3,1.5,2.7,2.9c0.1,0.3,0.3,0.2,0.3,0.2c0.2,0,0.3-0.1,0.3-0.2
	c0.5-1.7,1.6-2.3,1.7-2.4c0.9-0.6,1.3-0.4,1.3-0.8C321.8,104.3,321.7,104.1,321.6,104.1z"/>
<path class="st10" d="M389.1,94.5c-1.4-0.5-2.3-1.5-2.7-2.9c-0.1-0.3-0.3-0.2-0.3-0.2c-0.2,0-0.3,0.1-0.3,0.2
	c-0.4,1.4-1.3,2.4-2.7,2.9c-0.3,0.1-0.3,0.6,0,0.7c1.4,0.5,2.3,1.5,2.7,2.9c0.1,0.3,0.3,0.2,0.3,0.2c0.2,0,0.3-0.1,0.3-0.2
	c0.5-1.7,1.6-2.3,1.7-2.4c0.9-0.6,1.3-0.4,1.3-0.8C389.3,94.7,389.2,94.5,389.1,94.5z"/>
<path class="st10" d="M413.5,88.5c-1.4-0.5-2.3-1.5-2.7-2.9c-0.1-0.3-0.3-0.2-0.3-0.2c-0.2,0-0.3,0.1-0.3,0.2
	c-0.4,1.4-1.3,2.4-2.7,2.9c-0.3,0.1-0.3,0.6,0,0.7c1.4,0.5,2.3,1.5,2.7,2.9c0.1,0.3,0.3,0.2,0.3,0.2c0.2,0,0.3-0.1,0.3-0.2
	c0.5-1.7,1.6-2.3,1.7-2.4c0.9-0.6,1.3-0.4,1.3-0.8C413.8,88.7,413.7,88.6,413.5,88.5z"/>
<path class="st10" d="M277.2,97.2c-1.4-0.5-2.3-1.5-2.7-2.9c-0.1-0.3-0.3-0.2-0.3-0.2c-0.2,0-0.3,0.1-0.3,0.2
	c-0.4,1.4-1.3,2.4-2.7,2.9c-0.3,0.1-0.3,0.6,0,0.7c1.4,0.5,2.3,1.5,2.7,2.9c0.1,0.3,0.3,0.2,0.3,0.2c0.2,0,0.3-0.1,0.3-0.2
	c0.5-1.7,1.6-2.3,1.7-2.4c0.9-0.6,1.3-0.4,1.3-0.8C277.4,97.3,277.3,97.2,277.2,97.2z"/>
<path class="st10" d="M454.1,95c-1.4-0.5-2.3-1.5-2.7-2.9c-0.1-0.3-0.3-0.2-0.3-0.2c-0.2,0-0.3,0.1-0.3,0.2
	c-0.4,1.4-1.3,2.4-2.7,2.9c-0.3,0.1-0.3,0.6,0,0.7c1.4,0.5,2.3,1.5,2.7,2.9c0.1,0.3,0.3,0.2,0.3,0.2c0.2,0,0.3-0.1,0.3-0.2
	c0.5-1.7,1.6-2.3,1.7-2.4c0.9-0.6,1.3-0.4,1.3-0.8C454.4,95.2,454.3,95,454.1,95z"/>
<path class="st10" d="M283.7,116c-1.4-0.5-2.3-1.5-2.7-2.9c-0.1-0.3-0.3-0.2-0.3-0.2c-0.2,0-0.3,0.1-0.3,0.2
	c-0.4,1.4-1.3,2.4-2.7,2.9c-0.3,0.1-0.3,0.6,0,0.7c1.4,0.5,2.3,1.5,2.7,2.9c0.1,0.3,0.3,0.2,0.3,0.2c0.2,0,0.3-0.1,0.3-0.2
	c0.5-1.7,1.6-2.3,1.7-2.4c0.9-0.6,1.3-0.4,1.3-0.8C284,116.1,283.9,116,283.7,116z"/>
<path class="st10" d="M395.3,51.3c-1.4-0.5-2.3-1.5-2.7-2.9c-0.1-0.3-0.3-0.2-0.3-0.2c-0.2,0-0.3,0.1-0.3,0.2
	c-0.4,1.4-1.3,2.4-2.7,2.9c-0.3,0.1-0.3,0.6,0,0.7c1.4,0.5,2.3,1.5,2.7,2.9c0.1,0.3,0.3,0.2,0.3,0.2c0.2,0,0.3-0.1,0.3-0.2
	c0.5-1.7,1.6-2.3,1.7-2.4c0.9-0.6,1.3-0.4,1.3-0.8C395.5,51.4,395.4,51.3,395.3,51.3z"/>
<path class="st10" d="M385.7,74.2c-1.4-0.5-2.3-1.5-2.7-2.9c-0.1-0.3-0.3-0.2-0.3-0.2c-0.2,0-0.3,0.1-0.3,0.2
	c-0.4,1.4-1.3,2.4-2.7,2.9c-0.3,0.1-0.3,0.6,0,0.7c1.4,0.5,2.3,1.5,2.7,2.9c0.1,0.3,0.3,0.2,0.3,0.2c0.2,0,0.3-0.1,0.3-0.2
	c0.5-1.7,1.6-2.3,1.7-2.4c0.9-0.6,1.3-0.4,1.3-0.8C386,74.4,385.9,74.2,385.7,74.2z"/>
<path class="st10" d="M410.2,68.2c-1.4-0.5-2.3-1.5-2.7-2.9c-0.1-0.3-0.3-0.2-0.3-0.2c-0.2,0-0.3,0.1-0.3,0.2
	c-0.4,1.4-1.3,2.4-2.7,2.9c-0.3,0.1-0.3,0.6,0,0.7c1.4,0.5,2.3,1.5,2.7,2.9c0.1,0.3,0.3,0.2,0.3,0.2c0.2,0,0.3-0.1,0.3-0.2
	c0.5-1.7,1.6-2.3,1.7-2.4c0.9-0.6,1.3-0.4,1.3-0.8C410.4,68.4,410.3,68.3,410.2,68.2z"/>
<path class="st10" d="M350.9,44.4c-1.4-0.5-2.3-1.5-2.7-2.9c-0.1-0.3-0.3-0.2-0.3-0.2c-0.2,0-0.3,0.1-0.3,0.2
	c-0.4,1.4-1.3,2.4-2.7,2.9c-0.3,0.1-0.3,0.6,0,0.7c1.4,0.5,2.3,1.5,2.7,2.9c0.1,0.3,0.3,0.2,0.3,0.2c0.2,0,0.3-0.1,0.3-0.2
	c0.5-1.7,1.6-2.3,1.7-2.4c0.9-0.6,1.3-0.4,1.3-0.8C351.1,44.5,351,44.4,350.9,44.4z"/>
<path class="st10" d="M338.7,82.7c-1.4-0.5-2.3-1.5-2.7-2.9c-0.1-0.3-0.3-0.2-0.3-0.2c-0.2,0-0.3,0.1-0.3,0.2
	c-0.4,1.4-1.3,2.4-2.7,2.9c-0.3,0.1-0.3,0.6,0,0.7c1.4,0.5,2.3,1.5,2.7,2.9c0.1,0.3,0.3,0.2,0.3,0.2c0.2,0,0.3-0.1,0.3-0.2
	c0.5-1.7,1.6-2.3,1.7-2.4c0.9-0.6,1.3-0.4,1.3-0.8C338.9,82.9,338.8,82.8,338.7,82.7z"/>
<path class="st10" d="M462.2,19.3c-1.4-0.5-2.3-1.5-2.7-2.9c-0.1-0.3-0.3-0.2-0.3-0.2c-0.2,0-0.3,0.1-0.3,0.2
	c-0.4,1.4-1.3,2.4-2.7,2.9c-0.3,0.1-0.3,0.6,0,0.7c1.4,0.5,2.3,1.5,2.7,2.9c0.1,0.3,0.3,0.2,0.3,0.2c0.2,0,0.3-0.1,0.3-0.2
	c0.5-1.7,1.6-2.3,1.7-2.4c0.9-0.6,1.3-0.4,1.3-0.8C462.5,19.5,462.4,19.3,462.2,19.3z"/>
</svg>
