<?xml version="1.0" encoding="utf-8"?>
<!-- Generator: Adobe Illustrator 22.0.1, SVG Export Plug-In . SVG Version: 6.00 Build 0)  -->
<svg version="1.1" id="Capa_1" xmlns="http://www.w3.org/2000/svg" xmlns:xlink="http://www.w3.org/1999/xlink" x="0px" y="0px"
	 viewBox="0 0 46.6 46.6" style="enable-background:new 0 0 46.6 46.6;" xml:space="preserve">
<g>
	<path d="M25.6,39.7H6.4c-3.6,0-6.4-2.9-6.4-6.4c0-3.5,2.8-6.4,6.3-6.4c1.2-4.3,5.2-7.3,9.7-7.3c3.7,0,7.1,2,8.9,5.3
		c0.3,0,0.5,0,0.8,0c4.1,0,7.4,3.3,7.4,7.4C33.1,36.3,29.7,39.7,25.6,39.7z M6.4,27.8c-3,0-5.4,2.4-5.4,5.4s2.4,5.4,5.4,5.4h19.2
		c3.6,0,6.4-2.9,6.4-6.4c0-3.6-2.9-6.4-6.4-6.4c-0.3,0-0.6,0-1,0.1c-0.2,0-0.4-0.1-0.5-0.3c-1.5-3.1-4.7-5.1-8.1-5.1
		c-4.2,0-7.8,2.8-8.8,6.9c-0.1,0.2-0.3,0.4-0.5,0.4L6.4,27.8z"/>
	<path d="M25.6,39.7c-0.3,0-0.5-0.2-0.5-0.5s0.2-0.5,0.5-0.5c3.6,0,6.4-2.9,6.4-6.4c0-3.6-2.9-6.4-6.4-6.4c-1.9,0-3.6,0.8-4.9,2.2
		c-0.2,0.2-0.5,0.2-0.7,0c-0.2-0.2-0.2-0.5,0-0.7c1.4-1.6,3.5-2.5,5.6-2.5c4.1,0,7.4,3.3,7.4,7.4C33.1,36.3,29.7,39.7,25.6,39.7z"/>
	<g>
		<path d="M36,29.8c-0.1,0-0.3,0-0.4-0.1c-0.2-0.2-0.2-0.5,0-0.7c1.5-1.5,2.3-3.5,2.3-5.6c0-4.3-3.5-7.9-7.9-7.9
			c-2.3,0-4.4,1-5.9,2.7c-0.2,0.2-0.5,0.2-0.7,0c-0.2-0.2-0.2-0.5,0-0.7c1.7-1.9,4.1-3.1,6.7-3.1c4.9,0,8.9,4,8.9,8.9
			c0,2.4-0.9,4.6-2.6,6.3C36.3,29.8,36.2,29.8,36,29.8z"/>
		<g>
			<path d="M30.1,11.7c-0.3,0-0.5-0.2-0.5-0.5V7.4c0-0.3,0.2-0.5,0.5-0.5s0.5,0.2,0.5,0.5v3.8C30.6,11.5,30.4,11.7,30.1,11.7z"/>
		</g>
		<g>
			<path d="M46.1,23.9h-3.8c-0.3,0-0.5-0.2-0.5-0.5s0.2-0.5,0.5-0.5h3.8c0.3,0,0.5,0.2,0.5,0.5S46.4,23.9,46.1,23.9z"/>
		</g>
		<g>
			<path d="M38.8,15.3c-0.1,0-0.3,0-0.4-0.1c-0.2-0.2-0.2-0.5,0-0.7l2.7-2.7c0.2-0.2,0.5-0.2,0.7,0s0.2,0.5,0,0.7l-2.7,2.7
				C39,15.2,38.9,15.3,38.8,15.3z"/>
		</g>
		<g>
			<path d="M41.4,35.2c-0.1,0-0.3,0-0.4-0.1l-2.7-2.7c-0.2-0.2-0.2-0.5,0-0.7s0.5-0.2,0.7,0l2.7,2.7c0.2,0.2,0.2,0.5,0,0.7
				C41.7,35.1,41.6,35.2,41.4,35.2z"/>
			<path d="M21.5,15.3c-0.1,0-0.3,0-0.4-0.1l-2.7-2.7c-0.2-0.2-0.2-0.5,0-0.7s0.5-0.2,0.7,0l2.7,2.7c0.2,0.2,0.2,0.5,0,0.7
				C21.8,15.2,21.7,15.3,21.5,15.3z"/>
		</g>
	</g>
</g>
</svg>
