<?xml version="1.0" encoding="utf-8"?>
<!-- Generator: Adobe Illustrator 22.0.1, SVG Export Plug-In . SVG Version: 6.00 Build 0)  -->
<svg version="1.1" id="Capa_1" xmlns="http://www.w3.org/2000/svg" xmlns:xlink="http://www.w3.org/1999/xlink" x="0px" y="0px"
	 viewBox="0 0 40.1 40.1" style="enable-background:new 0 0 40.1 40.1;" xml:space="preserve">
<g>
	<g>
		<path d="M25.6,33.6H6.4c-3.6,0-6.4-2.9-6.4-6.4c0-3.5,2.8-6.4,6.3-6.4c1.2-4.3,5.2-7.3,9.7-7.3c3.7,0,7.1,2,8.9,5.3
			c0.3,0,0.5,0,0.8,0c4.1,0,7.4,3.3,7.4,7.4C33.1,30.3,29.7,33.6,25.6,33.6z M6.4,21.7c-3,0-5.4,2.4-5.4,5.4s2.4,5.4,5.4,5.4h19.2
			c3.6,0,6.4-2.9,6.4-6.4c0-3.6-2.9-6.4-6.4-6.4c-0.3,0-0.6,0-1,0.1c-0.2,0-0.4-0.1-0.5-0.3c-1.5-3.1-4.7-5.1-8.1-5.1
			c-4.2,0-7.8,2.8-8.8,6.9c-0.1,0.2-0.3,0.4-0.5,0.4L6.4,21.7z"/>
		<path d="M25.6,33.6c-0.3,0-0.5-0.2-0.5-0.5s0.2-0.5,0.5-0.5c3.6,0,6.4-2.9,6.4-6.4c0-3.6-2.9-6.4-6.4-6.4c-1.9,0-3.6,0.8-4.9,2.2
			c-0.2,0.2-0.5,0.2-0.7,0c-0.2-0.2-0.2-0.5,0-0.7c1.4-1.6,3.5-2.5,5.6-2.5c4.1,0,7.4,3.3,7.4,7.4C33.1,30.3,29.7,33.6,25.6,33.6z"
			/>
	</g>
	<g>
		<path d="M32.6,26.6c-0.3,0-0.5-0.2-0.5-0.5s0.2-0.5,0.5-0.5c3.6,0,6.4-2.9,6.4-6.4c0-3.6-2.9-6.4-6.4-6.4c-0.3,0-0.6,0-1,0.1
			c-0.2,0-0.4-0.1-0.5-0.3c-1.5-3.1-4.7-5.1-8.1-5.1c-4.2,0-7.8,2.8-8.8,6.9c-0.1,0.2-0.3,0.4-0.5,0.4l-0.1,0
			c-0.3,0-0.5-0.2-0.5-0.5c0-0.2,0.1-0.4,0.3-0.5c1.2-4.3,5.2-7.3,9.7-7.3c3.7,0,7.1,2,8.9,5.3c0.3,0,0.5,0,0.8,0
			c4.1,0,7.4,3.3,7.4,7.4C40.1,23.3,36.7,26.6,32.6,26.6z"/>
		<path d="M32.6,26.6c-0.3,0-0.5-0.2-0.5-0.5s0.2-0.5,0.5-0.5c3.6,0,6.4-2.9,6.4-6.4c0-3.6-2.9-6.4-6.4-6.4c-1.9,0-3.6,0.8-4.9,2.2
			c-0.2,0.2-0.5,0.2-0.7,0c-0.2-0.2-0.2-0.5,0-0.7c1.4-1.6,3.5-2.6,5.6-2.6c4.1,0,7.4,3.3,7.4,7.4C40.1,23.3,36.7,26.6,32.6,26.6z"
			/>
	</g>
</g>
</svg>
