<?xml version="1.0" encoding="utf-8"?>
<!-- Generator: Adobe Illustrator 22.0.1, SVG Export Plug-In . SVG Version: 6.00 Build 0)  -->
<svg version="1.1" id="Capa_1" xmlns="http://www.w3.org/2000/svg" xmlns:xlink="http://www.w3.org/1999/xlink" x="0px" y="0px"
	 viewBox="0 0 512 512" style="enable-background:new 0 0 512 512;" xml:space="preserve">
<path d="M208,432c-8.8,0-16-7.2-16-16s7.2-16,16-16s16-7.2,16-16s-7.2-16-16-16H16c-8.8,0-16-7.2-16-16s7.2-16,16-16h192
	c26.5,0,48,21.5,48,48S234.5,432,208,432z"/>
<path d="M304,176H16c-8.8,0-16-7.2-16-16s7.2-16,16-16h288c8.8,0,16-7.2,16-16s-7.2-16-16-16s-16-7.2-16-16s7.2-16,16-16
	c26.5,0,48,21.5,48,48S330.5,176,304,176z"/>
<path d="M432,272H16c-8.8,0-16-7.2-16-16c0-8.8,7.2-16,16-16h416c26.5,0,48-21.5,48-48s-21.5-48-48-48c-8.8,0-16-7.2-16-16
	s7.2-16,16-16c44.2,0,80,35.8,80,80S476.2,272,432,272z"/>
</svg>
