<?xml version="1.0" encoding="iso-8859-1"?>
<!-- Generator: Adobe Illustrator 19.0.0, SVG Export Plug-In . SVG Version: 6.00 Build 0)  -->
<svg version="1.1" id="Capa_1" xmlns="http://www.w3.org/2000/svg" xmlns:xlink="http://www.w3.org/1999/xlink" x="0px" y="0px"
	 viewBox="0 0 512 512" style="enable-background:new 0 0 512 512;" xml:space="preserve">
<g>
	<g>
		<path d="M50,221.999c-5.523,0-10,4.477-10,10v220c0,5.523,4.477,10,10,10s10-4.477,10-10v-220
			C60,226.476,55.523,221.999,50,221.999z"/>
	</g>
</g>
<g>
	<g>
		<path d="M491.73,191.827c-0.15-1.321-0.559-2.634-1.265-3.858l-92.34-159.93c-1.32-2.3-3.51-3.97-6.07-4.66s-5.29-0.33-7.59,1
			l-65.42,37.77l-53.37-30.81l-34.64-20c-2.3-1.33-5.03-1.68-7.59-1c-2.56,0.69-4.75,2.36-6.07,4.66l-91.67,158.78l-14.238,8.22H50
			c-27.57,0-50,22.43-50,50v220c0,27.57,22.43,50,50,50h412c27.57,0,50-22.43,50-50v-220
			C512,215.556,504.019,200.945,491.73,191.827z M458.995,173.469l4.956,8.58c-0.648-0.025-1.297-0.05-1.951-0.05h-8.096
			C455.109,178.924,456.815,176.033,458.995,173.469z M385.805,46.699l9.14,15.84c-1.79,0.34-3.61,0.51-5.44,0.51
			c-7.24,0-14.15-2.64-19.52-7.22L385.805,46.699z M229.695,33.659l15.82,9.13c-5.37,4.59-12.28,7.22-19.52,7.22
			c-1.83,0-3.65-0.17-5.44-0.51L229.695,33.659z M210.195,67.429c5.08,1.7,10.42,2.58,15.8,2.58c14.43,0,28.06-6.28,37.46-16.86
			l35.59,20.55l-138.7,80.08L210.195,67.429z M352.045,66.189c9.4,10.58,23.03,16.86,37.46,16.86c5.38,0,10.72-0.88,15.8-2.58
			l43.34,75.06c-8.002,7.082-13.333,16.418-15.592,26.47H318.066c-0.679-1.374-1.392-2.741-2.171-4.09
			c-11.86-20.53-32.45-33.29-53.73-33.29c-8.69,0-17.16,2.24-24.51,6.48c-11.473,6.625-19.576,17.49-23.206,30.9h-62.985
			L352.045,66.189z M294.564,181.999h-58.957c2.631-5.836,6.752-10.521,12.048-13.58c4.38-2.52,9.26-3.8,14.51-3.8
			C274.056,164.619,286.18,171.275,294.564,181.999z M492,391.999h-70c-16.542,0-30-13.458-30-30v-40c0-16.542,13.458-30,30-30h70
			V391.999z M492,271.999h-20v-40c0-5.523-4.477-10-10-10s-10,4.477-10,10v40h-30c-27.57,0-50,22.43-50,50v40
			c0,27.57,22.43,50,50,50h30v40c0,5.523,4.477,10,10,10s10-4.477,10-10v-40h20v40c0,16.542-13.458,30-30,30H50
			c-16.542,0-30-13.458-30-30v-220c0-16.542,13.458-30,30-30h412c16.542,0,30,13.458,30,30V271.999z"/>
	</g>
</g>
<g>
	<g>
		<path d="M442,311.999c-16.542,0-30,13.458-30,30s13.458,30,30,30s30-13.458,30-30S458.542,311.999,442,311.999z M442,351.999
			c-5.514,0-10-4.486-10-10c0-5.514,4.486-10,10-10c5.514,0,10,4.486,10,10C452,347.513,447.514,351.999,442,351.999z"/>
	</g>
</g>
<g>
</g>
<g>
</g>
<g>
</g>
<g>
</g>
<g>
</g>
<g>
</g>
<g>
</g>
<g>
</g>
<g>
</g>
<g>
</g>
<g>
</g>
<g>
</g>
<g>
</g>
<g>
</g>
<g>
</g>
</svg>
