<?xml version="1.0" encoding="iso-8859-1"?>
<!-- Generator: Adobe Illustrator 19.0.0, SVG Export Plug-In . SVG Version: 6.00 Build 0)  -->
<svg version="1.1" id="Layer_1" xmlns="http://www.w3.org/2000/svg" xmlns:xlink="http://www.w3.org/1999/xlink" x="0px" y="0px"
	 viewBox="0 0 511.99 511.99" style="enable-background:new 0 0 511.99 511.99;" xml:space="preserve">
<g>
	<g>
		<path d="M0,95.998v319.994h511.99V95.998H0z M490.647,394.657H21.327V117.334h469.32V394.657z"/>
	</g>
</g>
<g>
	<g>
		<path d="M437.335,138.661H74.639c0,17.671-14.327,32-31.999,32V341.33c17.671,0,31.999,14.328,31.999,31.999h362.696
			c0-17.671,14.328-31.999,32-31.999V170.661C451.663,170.661,437.335,156.333,437.335,138.661z M448.007,324.447
			c-12.297,5.383-22.171,15.258-27.546,27.547H91.514c-5.375-12.289-15.25-22.164-27.547-27.547V187.543
			c12.297-5.383,22.172-15.257,27.547-27.546h328.947c5.375,12.289,15.249,22.164,27.546,27.546V324.447z"/>
	</g>
</g>
<g>
	<g>
		<polygon points="207.308,198.645 175.808,293.283 144.622,198.645 122.794,198.645 164.997,318.681 185.965,318.681 
			228.667,198.645 		"/>
	</g>
</g>
<g>
	<g>
		<rect x="249.115" y="198.644" width="20.359" height="120.04"/>
	</g>
</g>
<g>
	<g>
		<path d="M382.165,208.324c-6.422-6.422-15.875-9.679-28.109-9.679h-52.937v120.037h20.358v-47.023h32.547l0.641,0.008
			c11.938,0,21.188-3.234,27.516-9.609c6.405-6.476,9.655-15.531,9.655-26.906C391.836,223.77,388.586,214.746,382.165,208.324z
			 M366.275,249.057c-3.406,3.094-9,4.664-16.641,4.664c-0.234,0-0.469-0.008-0.734-0.008h-27.422v-37.124h27.421
			c8,0,13.859,1.602,17.391,4.75c3.5,3.125,5.188,7.641,5.188,13.812C371.478,241.331,369.775,245.878,366.275,249.057z"/>
	</g>
</g>
<g>
</g>
<g>
</g>
<g>
</g>
<g>
</g>
<g>
</g>
<g>
</g>
<g>
</g>
<g>
</g>
<g>
</g>
<g>
</g>
<g>
</g>
<g>
</g>
<g>
</g>
<g>
</g>
<g>
</g>
</svg>
