<?xml version="1.0" encoding="iso-8859-1"?>
<!-- Generator: Adobe Illustrator 19.0.0, SVG Export Plug-In . SVG Version: 6.00 Build 0)  -->
<svg version="1.1" id="Capa_1" xmlns="http://www.w3.org/2000/svg" xmlns:xlink="http://www.w3.org/1999/xlink" x="0px" y="0px"
	 viewBox="0 0 512 512" style="enable-background:new 0 0 512 512;" xml:space="preserve">
<g>
	<g>
		<path d="M494.933,443.733c9.421-0.011,17.056-7.645,17.067-17.067V409.6c-0.011-9.421-7.645-17.056-17.067-17.067h-68.267
			c-9.421,0.011-17.056,7.646-17.067,17.067v17.067c0.011,9.421,7.645,17.056,17.067,17.067h8.533v51.2h-37.835l-71.677-119.467
			H435.2c9.421-0.011,17.056-7.645,17.067-17.067v-17.067c-0.011-9.421-7.645-17.056-17.067-17.067H281.6v-85.333h196.267
			c2.263,0.001,4.434-0.898,6.035-2.499c1.6-1.6,2.499-3.771,2.499-6.035C486.4,103.154,383.246,0,256,0S25.6,103.154,25.6,230.4
			c-0.001,2.263,0.898,4.434,2.499,6.035c1.6,1.6,3.771,2.499,6.035,2.499H230.4v85.333H76.8
			c-9.421,0.011-17.056,7.646-17.067,17.067V358.4c0.011,9.421,7.645,17.056,17.067,17.067h109.512l-71.677,119.467H76.8v-51.2
			h8.533c9.421-0.011,17.056-7.645,17.067-17.067V409.6c-0.011-9.421-7.646-17.056-17.067-17.067H17.067
			C7.645,392.544,0.011,400.179,0,409.6v17.067c0.011,9.421,7.645,17.056,17.067,17.067H25.6v51.2H8.533
			c-4.713,0-8.533,3.82-8.533,8.533S3.82,512,8.533,512h494.933c4.713,0,8.533-3.82,8.533-8.533s-3.82-8.533-8.533-8.533H486.4
			v-51.2H494.933z M17.067,426.667V409.6h68.267l0.009,17.067H17.067z M59.733,494.933H42.667v-51.2h17.067V494.933z
			 M469.167,221.867h-93.808C373.774,134.042,347.866,60.211,309.889,24C400.663,47.835,465.271,128.096,469.167,221.867z
			 M264.533,17.894c50.345,9.139,91.66,98.039,93.783,203.972h-93.783V17.894z M264.533,238.933v85.333h-17.067v-85.333H264.533z
			 M42.833,221.867C46.729,128.096,111.337,47.835,202.112,24c-37.977,36.212-63.885,110.043-65.47,197.867H42.833z
			 M153.683,221.867c2.123-105.933,43.439-194.833,93.783-203.972v203.972H153.683z M76.8,358.4v-17.067l358.4,0.025V358.4H76.8z
			 M228.403,409.6l20.479-34.133h14.236l20.479,34.133H228.403z M293.837,426.667l10.24,17.067h-96.154l10.24-17.067H293.837z
			 M134.542,494.933l71.673-119.467h22.764L157.3,494.933H134.542z M177.205,494.933l20.479-34.133h116.632l20.479,34.133H177.205z
			 M354.7,494.933l-71.679-119.467h22.763l71.674,119.467H354.7z M469.333,494.933h-17.067v-51.2h17.067V494.933z M477.867,426.667
			h-51.2V409.6h68.267l0.009,17.067H477.867z"/>
	</g>
</g>
<g>
</g>
<g>
</g>
<g>
</g>
<g>
</g>
<g>
</g>
<g>
</g>
<g>
</g>
<g>
</g>
<g>
</g>
<g>
</g>
<g>
</g>
<g>
</g>
<g>
</g>
<g>
</g>
<g>
</g>
</svg>
