<?xml version="1.0" encoding="utf-8"?>
<!-- Generator: Adobe Illustrator 22.0.0, SVG Export Plug-In . SVG Version: 6.00 Build 0)  -->
<svg version="1.1"
	 id="Layer_1" color-interpolation="auto" color-rendering="auto" text-rendering="auto" image-rendering="auto" shape-rendering="auto"
	 xmlns="http://www.w3.org/2000/svg" xmlns:xlink="http://www.w3.org/1999/xlink" x="0px" y="0px" viewBox="0 0 771.8 357.1"
	 style="enable-background:new 0 0 771.8 357.1;" xml:space="preserve">
<style type="text/css">
	.st0{clip-path:url(#SVGID_2_);fill:#7ACFF5;}
	.st1{clip-path:url(#SVGID_4_);fill:none;stroke:#000000;stroke-linejoin:round;stroke-miterlimit:1;}
	.st2{clip-path:url(#SVGID_6_);fill:none;stroke:#000000;stroke-linejoin:bevel;stroke-miterlimit:1;stroke-dasharray:8,3;}
	.st3{clip-path:url(#SVGID_8_);fill:#7ACFF5;}
	.st4{clip-path:url(#SVGID_10_);fill:#7ACFF5;}
	.st5{clip-path:url(#SVGID_12_);fill:none;stroke:#000000;stroke-linejoin:round;stroke-miterlimit:1;}
	.st6{clip-path:url(#SVGID_14_);fill:none;stroke:#000000;stroke-linejoin:round;stroke-miterlimit:1;}
	.st7{clip-path:url(#SVGID_16_);fill:none;stroke:#000000;stroke-linejoin:round;stroke-miterlimit:1;}
	.st8{clip-path:url(#SVGID_18_);fill:none;stroke:#000000;stroke-linejoin:round;stroke-miterlimit:1;}
	.st9{clip-path:url(#SVGID_20_);fill:none;stroke:#000000;stroke-linejoin:round;stroke-miterlimit:1;}
	.st10{clip-path:url(#SVGID_22_);fill:none;stroke:#000000;stroke-linejoin:round;stroke-miterlimit:1;}
	.st11{clip-path:url(#SVGID_24_);fill:#7ACFF5;}
	.st12{clip-path:url(#SVGID_26_);fill:none;stroke:#000000;stroke-linejoin:round;stroke-miterlimit:1;}
	.st13{clip-path:url(#SVGID_28_);fill:#7ACFF5;}
	.st14{clip-path:url(#SVGID_30_);fill:none;stroke:#000000;stroke-linejoin:round;stroke-miterlimit:1;}
	.st15{clip-path:url(#SVGID_32_);fill:none;stroke:#000000;stroke-linejoin:bevel;stroke-miterlimit:1;stroke-dasharray:8,3;}
	.st16{clip-path:url(#SVGID_34_);fill:#7ACFF5;}
	.st17{clip-path:url(#SVGID_36_);fill:none;stroke:#000000;stroke-linejoin:round;stroke-miterlimit:1;}
	.st18{clip-path:url(#SVGID_38_);fill:none;stroke:#000000;stroke-linejoin:bevel;stroke-miterlimit:1;stroke-dasharray:8,3;}
	.st19{clip-path:url(#SVGID_40_);fill:#7ACFF5;}
	.st20{clip-path:url(#SVGID_42_);fill:none;stroke:#000000;stroke-linejoin:round;stroke-miterlimit:1;}
	.st21{clip-path:url(#SVGID_44_);fill:#7ACFF5;}
	.st22{clip-path:url(#SVGID_46_);fill:none;stroke:#000000;stroke-linejoin:round;stroke-miterlimit:1;}
	.st23{clip-path:url(#SVGID_48_);enable-background:new    ;}
	.st24{font-family:'Helvetica';}
	.st25{font-size:11px;}
	.st26{clip-path:url(#SVGID_50_);enable-background:new    ;}
	.st27{clip-path:url(#SVGID_52_);enable-background:new    ;}
	.st28{clip-path:url(#SVGID_54_);enable-background:new    ;}
	.st29{clip-path:url(#SVGID_56_);fill:none;stroke:#000000;stroke-linejoin:round;stroke-miterlimit:10;}
	.st30{clip-path:url(#SVGID_58_);fill:none;stroke:#000000;stroke-linejoin:round;stroke-miterlimit:10;}
	.st31{clip-path:url(#SVGID_60_);fill:none;stroke:#000000;stroke-linejoin:round;stroke-miterlimit:10;}
	
		.st32{clip-path:url(#SVGID_62_);fill:none;stroke:#000000;stroke-linejoin:round;stroke-miterlimit:10;stroke-dasharray:5;stroke-dashoffset:1;}
	.st33{clip-path:url(#SVGID_64_);fill:none;stroke:#000000;stroke-linejoin:round;stroke-miterlimit:10;}
	.st34{clip-path:url(#SVGID_66_);fill:none;stroke:#000000;stroke-linejoin:round;stroke-miterlimit:10;}
	.st35{clip-path:url(#SVGID_68_);fill:none;stroke:#000000;stroke-linejoin:round;stroke-miterlimit:10;}
	.st36{clip-path:url(#SVGID_70_);fill:none;stroke:#000000;stroke-linejoin:round;stroke-miterlimit:10;}
	.st37{clip-path:url(#SVGID_72_);fill:none;stroke:#000000;stroke-linejoin:round;stroke-miterlimit:10;}
	.st38{clip-path:url(#SVGID_74_);fill:none;stroke:#000000;stroke-linejoin:round;stroke-miterlimit:10;}
	.st39{clip-path:url(#SVGID_76_);fill:none;stroke:#000000;stroke-linejoin:round;stroke-miterlimit:10;}
	.st40{clip-path:url(#SVGID_78_);fill:none;stroke:#000000;stroke-linejoin:round;stroke-miterlimit:10;}
	.st41{clip-path:url(#SVGID_80_);fill:none;stroke:#000000;stroke-linejoin:round;stroke-miterlimit:10;}
	.st42{clip-path:url(#SVGID_82_);fill:none;stroke:#000000;stroke-linejoin:round;stroke-miterlimit:10;}
	.st43{clip-path:url(#SVGID_84_);fill:none;stroke:#000000;stroke-linejoin:round;stroke-miterlimit:10;}
	.st44{clip-path:url(#SVGID_86_);fill:none;stroke:#000000;stroke-linejoin:round;stroke-miterlimit:10;}
	.st45{clip-path:url(#SVGID_88_);fill:none;stroke:#000000;stroke-linejoin:round;stroke-miterlimit:10;}
	.st46{clip-path:url(#SVGID_90_);fill:none;stroke:#000000;stroke-linejoin:round;stroke-miterlimit:10;}
	.st47{clip-path:url(#SVGID_92_);fill:none;stroke:#000000;stroke-linejoin:round;stroke-miterlimit:10;}
	.st48{clip-path:url(#SVGID_94_);fill:none;stroke:#000000;stroke-linejoin:round;stroke-miterlimit:10;}
	.st49{clip-path:url(#SVGID_96_);fill:none;stroke:#000000;stroke-linejoin:round;stroke-miterlimit:10;}
	.st50{clip-path:url(#SVGID_98_);fill:none;stroke:#000000;stroke-linejoin:round;stroke-miterlimit:10;}
	.st51{clip-path:url(#SVGID_100_);fill:none;stroke:#000000;stroke-linejoin:round;stroke-miterlimit:10;}
	.st52{clip-path:url(#SVGID_102_);fill:none;stroke:#000000;stroke-linejoin:round;stroke-miterlimit:10;}
	.st53{clip-path:url(#SVGID_104_);fill:#FFFFFF;}
	.st54{clip-path:url(#SVGID_106_);enable-background:new    ;}
	.st55{clip-path:url(#SVGID_108_);fill:#FFFFFF;}
	.st56{clip-path:url(#SVGID_110_);enable-background:new    ;}
	.st57{clip-path:url(#SVGID_112_);fill:#FFFFFF;}
	.st58{clip-path:url(#SVGID_114_);enable-background:new    ;}
	.st59{clip-path:url(#SVGID_116_);fill:#FFFFFF;}
	.st60{clip-path:url(#SVGID_118_);enable-background:new    ;}
	.st61{clip-path:url(#SVGID_120_);fill:#FFFFFF;}
	.st62{clip-path:url(#SVGID_122_);enable-background:new    ;}
	.st63{clip-path:url(#SVGID_124_);fill:#FFFFFF;}
	.st64{clip-path:url(#SVGID_126_);enable-background:new    ;}
	.st65{fill:#787878;}
	.st66{font-family:'ArialMT';}
	.st67{font-size:10px;}
</style>
<g>
	<g text-rendering="geometricPrecision" transform="translate(274,40)" image-rendering="optimizeQuality">
		<g>
			<defs>
				<rect id="SVGID_1_" x="-158.2" y="-41.9" width="125" height="366"/>
			</defs>
			<clipPath id="SVGID_2_">
				<use xlink:href="#SVGID_1_"  style="overflow:visible;"/>
			</clipPath>
			<rect x="-151.2" y="-34.9" class="st0" width="106" height="35"/>
		</g>
	</g>
	<g text-rendering="geometricPrecision" transform="translate(274,40)" image-rendering="optimizeQuality">
		<g>
			<defs>
				<rect id="SVGID_3_" x="-158.2" y="-41.9" width="125" height="366"/>
			</defs>
			<clipPath id="SVGID_4_">
				<use xlink:href="#SVGID_3_"  style="overflow:visible;"/>
			</clipPath>
			<rect x="-151.2" y="-34.9" class="st1" width="106" height="35"/>
		</g>
		<g>
			<defs>
				<rect id="SVGID_5_" x="-158.2" y="-41.9" width="125" height="366"/>
			</defs>
			<clipPath id="SVGID_6_">
				<use xlink:href="#SVGID_5_"  style="overflow:visible;"/>
			</clipPath>
			<line class="st2" x1="-98.2" y1="0.1" x2="-98.2" y2="313.1"/>
		</g>
	</g>
	<g text-rendering="geometricPrecision" transform="translate(133,40)" image-rendering="optimizeQuality">
		<g>
			<defs>
				<rect id="SVGID_7_" x="-158.2" y="-41.9" width="78" height="366"/>
			</defs>
			<clipPath id="SVGID_8_">
				<use xlink:href="#SVGID_7_"  style="overflow:visible;"/>
			</clipPath>
			<circle class="st3" cx="-121.2" cy="-29.9" r="5"/>
		</g>
		<g>
			<defs>
				<rect id="SVGID_9_" x="-158.2" y="-41.9" width="78" height="366"/>
			</defs>
			<clipPath id="SVGID_10_">
				<use xlink:href="#SVGID_9_"  style="overflow:visible;"/>
			</clipPath>
			<rect x="-125.2" y="14.1" class="st4" width="8" height="298"/>
		</g>
	</g>
	<g text-rendering="geometricPrecision" transform="translate(133,40)" image-rendering="optimizeQuality">
		<g>
			<defs>
				<rect id="SVGID_11_" x="-158.2" y="-41.9" width="78" height="366"/>
			</defs>
			<clipPath id="SVGID_12_">
				<use xlink:href="#SVGID_11_"  style="overflow:visible;"/>
			</clipPath>
			<circle class="st5" cx="-121.2" cy="-29.9" r="5"/>
		</g>
		<g>
			<defs>
				<rect id="SVGID_13_" x="-158.2" y="-41.9" width="78" height="366"/>
			</defs>
			<clipPath id="SVGID_14_">
				<use xlink:href="#SVGID_13_"  style="overflow:visible;"/>
			</clipPath>
			<rect x="-125.2" y="14.1" class="st6" width="8" height="298"/>
		</g>
		<g>
			<defs>
				<rect id="SVGID_15_" x="-158.2" y="-41.9" width="78" height="366"/>
			</defs>
			<clipPath id="SVGID_16_">
				<use xlink:href="#SVGID_15_"  style="overflow:visible;"/>
			</clipPath>
			<line class="st7" x1="-121.2" y1="-24.9" x2="-121.2" y2="-9.9"/>
		</g>
		<g>
			<defs>
				<rect id="SVGID_17_" x="-158.2" y="-41.9" width="78" height="366"/>
			</defs>
			<clipPath id="SVGID_18_">
				<use xlink:href="#SVGID_17_"  style="overflow:visible;"/>
			</clipPath>
			<line class="st8" x1="-121.2" y1="-9.9" x2="-130.2" y2="1.1"/>
		</g>
		<g>
			<defs>
				<rect id="SVGID_19_" x="-158.2" y="-41.9" width="78" height="366"/>
			</defs>
			<clipPath id="SVGID_20_">
				<use xlink:href="#SVGID_19_"  style="overflow:visible;"/>
			</clipPath>
			<line class="st9" x1="-121.2" y1="-9.9" x2="-112.2" y2="1.1"/>
		</g>
		<g>
			<defs>
				<rect id="SVGID_21_" x="-158.2" y="-41.9" width="78" height="366"/>
			</defs>
			<clipPath id="SVGID_22_">
				<use xlink:href="#SVGID_21_"  style="overflow:visible;"/>
			</clipPath>
			<line class="st10" x1="-130.2" y1="-18.9" x2="-112.2" y2="-18.9"/>
		</g>
	</g>
	<g text-rendering="geometricPrecision" transform="translate(324,99)" image-rendering="optimizeQuality">
		<g>
			<defs>
				<rect id="SVGID_23_" x="-158.2" y="-41.9" width="26" height="103"/>
			</defs>
			<clipPath id="SVGID_24_">
				<use xlink:href="#SVGID_23_"  style="overflow:visible;"/>
			</clipPath>
			<rect x="-151.2" y="-34.9" class="st11" width="8" height="85"/>
		</g>
	</g>
	<g text-rendering="geometricPrecision" transform="translate(324,99)" image-rendering="optimizeQuality">
		<g>
			<defs>
				<rect id="SVGID_25_" x="-158.2" y="-41.9" width="26" height="103"/>
			</defs>
			<clipPath id="SVGID_26_">
				<use xlink:href="#SVGID_25_"  style="overflow:visible;"/>
			</clipPath>
			<rect x="-151.2" y="-34.9" class="st12" width="8" height="85"/>
		</g>
	</g>
	<g text-rendering="geometricPrecision" transform="translate(441,40)" image-rendering="optimizeQuality">
		<g>
			<defs>
				<rect id="SVGID_27_" x="-158.2" y="-41.9" width="101" height="366"/>
			</defs>
			<clipPath id="SVGID_28_">
				<use xlink:href="#SVGID_27_"  style="overflow:visible;"/>
			</clipPath>
			<rect x="-151.2" y="-34.9" class="st13" width="82" height="35"/>
		</g>
	</g>
	<g text-rendering="geometricPrecision" transform="translate(441,40)" image-rendering="optimizeQuality">
		<g>
			<defs>
				<rect id="SVGID_29_" x="-158.2" y="-41.9" width="101" height="366"/>
			</defs>
			<clipPath id="SVGID_30_">
				<use xlink:href="#SVGID_29_"  style="overflow:visible;"/>
			</clipPath>
			<rect x="-151.2" y="-34.9" class="st14" width="82" height="35"/>
		</g>
		<g>
			<defs>
				<rect id="SVGID_31_" x="-158.2" y="-41.9" width="101" height="366"/>
			</defs>
			<clipPath id="SVGID_32_">
				<use xlink:href="#SVGID_31_"  style="overflow:visible;"/>
			</clipPath>
			<line class="st15" x1="-110.2" y1="0.1" x2="-110.2" y2="313.1"/>
		</g>
	</g>
	<g text-rendering="geometricPrecision" transform="translate(667,204)" image-rendering="optimizeQuality">
		<g>
			<defs>
				<rect id="SVGID_33_" x="-158.2" y="-41.9" width="88" height="202"/>
			</defs>
			<clipPath id="SVGID_34_">
				<use xlink:href="#SVGID_33_"  style="overflow:visible;"/>
			</clipPath>
			<rect x="-151.2" y="-34.9" class="st16" width="69" height="35"/>
		</g>
	</g>
	<g text-rendering="geometricPrecision" transform="translate(667,204)" image-rendering="optimizeQuality">
		<g>
			<defs>
				<rect id="SVGID_35_" x="-158.2" y="-41.9" width="88" height="202"/>
			</defs>
			<clipPath id="SVGID_36_">
				<use xlink:href="#SVGID_35_"  style="overflow:visible;"/>
			</clipPath>
			<rect x="-151.2" y="-34.9" class="st17" width="69" height="35"/>
		</g>
		<g>
			<defs>
				<rect id="SVGID_37_" x="-158.2" y="-41.9" width="88" height="202"/>
			</defs>
			<clipPath id="SVGID_38_">
				<use xlink:href="#SVGID_37_"  style="overflow:visible;"/>
			</clipPath>
			<line class="st18" x1="-117.2" y1="0.1" x2="-117.2" y2="149.1"/>
		</g>
	</g>
	<g text-rendering="geometricPrecision" transform="translate(698,269)" image-rendering="optimizeQuality">
		<g>
			<defs>
				<rect id="SVGID_39_" x="-158.2" y="-41.9" width="26" height="117"/>
			</defs>
			<clipPath id="SVGID_40_">
				<use xlink:href="#SVGID_39_"  style="overflow:visible;"/>
			</clipPath>
			<rect x="-151.2" y="-34.9" class="st19" width="8" height="99"/>
		</g>
	</g>
	<g text-rendering="geometricPrecision" transform="translate(698,269)" image-rendering="optimizeQuality">
		<g>
			<defs>
				<rect id="SVGID_41_" x="-158.2" y="-41.9" width="26" height="117"/>
			</defs>
			<clipPath id="SVGID_42_">
				<use xlink:href="#SVGID_41_"  style="overflow:visible;"/>
			</clipPath>
			<rect x="-151.2" y="-34.9" class="st20" width="8" height="99"/>
		</g>
	</g>
	<g text-rendering="geometricPrecision" transform="translate(478,142)" image-rendering="optimizeQuality">
		<g>
			<defs>
				<rect id="SVGID_43_" x="-158.2" y="-41.9" width="26" height="109"/>
			</defs>
			<clipPath id="SVGID_44_">
				<use xlink:href="#SVGID_43_"  style="overflow:visible;"/>
			</clipPath>
			<rect x="-151.2" y="-34.9" class="st21" width="8" height="91"/>
		</g>
	</g>
	<g text-rendering="geometricPrecision" transform="translate(478,142)" image-rendering="optimizeQuality">
		<g>
			<defs>
				<rect id="SVGID_45_" x="-158.2" y="-41.9" width="26" height="109"/>
			</defs>
			<clipPath id="SVGID_46_">
				<use xlink:href="#SVGID_45_"  style="overflow:visible;"/>
			</clipPath>
			<rect x="-151.2" y="-34.9" class="st22" width="8" height="91"/>
		</g>
	</g>
	<g text-rendering="geometricPrecision" transform="translate(274,40)" image-rendering="optimizeQuality">
		<g>
			<defs>
				<rect id="SVGID_47_" x="-258.2" y="-48.9" width="321" height="42"/>
			</defs>
			<clipPath id="SVGID_48_">
				<use xlink:href="#SVGID_47_"  style="overflow:visible;"/>
			</clipPath>
			<g class="st23">
				<text transform="matrix(1 0 0 1 -143.2465 -23.8843)" class="st24 st25">QRCodeScanner</text>
			</g>
		</g>
	</g>
	<g text-rendering="geometricPrecision" transform="translate(142,75)" image-rendering="optimizeQuality">
		<g>
			<defs>
				<rect id="SVGID_49_" x="-194.2" y="-48.9" width="129" height="42"/>
			</defs>
			<clipPath id="SVGID_50_">
				<use xlink:href="#SVGID_49_"  style="overflow:visible;"/>
			</clipPath>
			<g class="st26">
				<text transform="matrix(1 0 0 1 -141.2465 -23.8843)" class="st24 st25">Jack</text>
			</g>
		</g>
	</g>
	<g text-rendering="geometricPrecision" transform="translate(441,40)" image-rendering="optimizeQuality">
		<g>
			<defs>
				<rect id="SVGID_51_" x="-234.2" y="-48.9" width="249" height="42"/>
			</defs>
			<clipPath id="SVGID_52_">
				<use xlink:href="#SVGID_51_"  style="overflow:visible;"/>
			</clipPath>
			<g class="st27">
				<text transform="matrix(1 0 0 1 -145.2465 -23.8843)" class="st24 st25">TripManager</text>
			</g>
		</g>
	</g>
	<g text-rendering="geometricPrecision" transform="translate(667,204)" image-rendering="optimizeQuality">
		<g>
			<defs>
				<rect id="SVGID_53_" x="-221.2" y="-48.9" width="210" height="42"/>
			</defs>
			<clipPath id="SVGID_54_">
				<use xlink:href="#SVGID_53_"  style="overflow:visible;"/>
			</clipPath>
			<g class="st28">
				<text transform="matrix(1 0 0 1 -128.2465 -23.8843)" class="st24 st25">Trip</text>
			</g>
		</g>
	</g>
	<g text-rendering="geometricPrecision" transform="translate(306,133)" image-rendering="optimizeQuality">
		<g>
			<defs>
				<path id="SVGID_55_" d="M-1.2-30.9v14h-105v-14H-1.2z M-151.2-34.9v54h200v-54H-151.2z"/>
			</defs>
			<clipPath id="SVGID_56_">
				<use xlink:href="#SVGID_55_"  style="overflow:visible;"/>
			</clipPath>
			<line class="st29" x1="-126.2" y1="-9.9" x2="20.8" y2="-9.9"/>
		</g>
		<g>
			<defs>
				<path id="SVGID_57_" d="M-1.2-30.9v14h-105v-14H-1.2z M-151.2-34.9v54h200v-54H-151.2z"/>
			</defs>
			<clipPath id="SVGID_58_">
				<use xlink:href="#SVGID_57_"  style="overflow:visible;"/>
			</clipPath>
			<line class="st30" x1="20.8" y1="-9.9" x2="8.8" y2="-15.9"/>
		</g>
		<g>
			<defs>
				<path id="SVGID_59_" d="M-1.2-30.9v14h-105v-14H-1.2z M-151.2-34.9v54h200v-54H-151.2z"/>
			</defs>
			<clipPath id="SVGID_60_">
				<use xlink:href="#SVGID_59_"  style="overflow:visible;"/>
			</clipPath>
			<line class="st31" x1="20.8" y1="-9.9" x2="8.8" y2="-3.9"/>
		</g>
	</g>
	<g text-rendering="geometricPrecision" transform="translate(436,171)" image-rendering="optimizeQuality">
		<g>
			<defs>
				<path id="SVGID_61_" d="M76.8-6.9v14h-128v-14H76.8z M-151.2-34.9v104h285v-57h-54v-14h54v-33h-20v8h-194v-8H-151.2z"/>
			</defs>
			<clipPath id="SVGID_62_">
				<use xlink:href="#SVGID_61_"  style="overflow:visible;"/>
			</clipPath>
			<line class="st32" x1="-101.2" y1="15.1" x2="79.8" y2="15.1"/>
		</g>
		<g>
			<defs>
				<path id="SVGID_63_" d="M76.8-6.9v14h-128v-14H76.8z M-151.2-34.9v104h285v-57h-54v-14h54v-33h-20v8h-194v-8H-151.2z"/>
			</defs>
			<clipPath id="SVGID_64_">
				<use xlink:href="#SVGID_63_"  style="overflow:visible;"/>
			</clipPath>
			<line class="st33" x1="79.8" y1="15.1" x2="67.8" y2="9.1"/>
		</g>
		<g>
			<defs>
				<path id="SVGID_65_" d="M76.8-6.9v14h-128v-14H76.8z M-151.2-34.9v104h285v-57h-54v-14h54v-33h-20v8h-194v-8H-151.2z"/>
			</defs>
			<clipPath id="SVGID_66_">
				<use xlink:href="#SVGID_65_"  style="overflow:visible;"/>
			</clipPath>
			<line class="st34" x1="79.8" y1="15.1" x2="67.8" y2="21.1"/>
		</g>
	</g>
	<g text-rendering="geometricPrecision" transform="translate(436,133)" image-rendering="optimizeQuality">
		<g>
			<defs>
				<polygon id="SVGID_67_" points="-151.2,-34.9 -151.2,-30.9 -131.2,-30.9 -131.2,-16.9 -151.2,-16.9 -151.2,89.1 -17.2,89.1 
					-17.2,45.1 -51.2,45.1 -51.2,31.1 -17.2,31.1 -17.2,11.1 -80.2,11.1 -80.2,-2.9 -17.2,-2.9 -17.2,-34.9 				"/>
			</defs>
			<clipPath id="SVGID_68_">
				<use xlink:href="#SVGID_67_"  style="overflow:visible;"/>
			</clipPath>
			<line class="st35" x1="-101.2" y1="15.1" x2="-71.2" y2="15.1"/>
		</g>
		<g>
			<defs>
				<polygon id="SVGID_69_" points="-151.2,-34.9 -151.2,-30.9 -131.2,-30.9 -131.2,-16.9 -151.2,-16.9 -151.2,89.1 -17.2,89.1 
					-17.2,45.1 -51.2,45.1 -51.2,31.1 -17.2,31.1 -17.2,11.1 -80.2,11.1 -80.2,-2.9 -17.2,-2.9 -17.2,-34.9 				"/>
			</defs>
			<clipPath id="SVGID_70_">
				<use xlink:href="#SVGID_69_"  style="overflow:visible;"/>
			</clipPath>
			<line class="st36" x1="-71.2" y1="15.1" x2="-71.2" y2="35.1"/>
		</g>
		<g>
			<defs>
				<polygon id="SVGID_71_" points="-151.2,-34.9 -151.2,-30.9 -131.2,-30.9 -131.2,-16.9 -151.2,-16.9 -151.2,89.1 -17.2,89.1 
					-17.2,45.1 -51.2,45.1 -51.2,31.1 -17.2,31.1 -17.2,11.1 -80.2,11.1 -80.2,-2.9 -17.2,-2.9 -17.2,-34.9 				"/>
			</defs>
			<clipPath id="SVGID_72_">
				<use xlink:href="#SVGID_71_"  style="overflow:visible;"/>
			</clipPath>
			<line class="st37" x1="-71.2" y1="35.1" x2="-101.2" y2="35.1"/>
		</g>
		<g>
			<defs>
				<polygon id="SVGID_73_" points="-151.2,-34.9 -151.2,-30.9 -131.2,-30.9 -131.2,-16.9 -151.2,-16.9 -151.2,89.1 -17.2,89.1 
					-17.2,45.1 -51.2,45.1 -51.2,31.1 -17.2,31.1 -17.2,11.1 -80.2,11.1 -80.2,-2.9 -17.2,-2.9 -17.2,-34.9 				"/>
			</defs>
			<clipPath id="SVGID_74_">
				<use xlink:href="#SVGID_73_"  style="overflow:visible;"/>
			</clipPath>
			<line class="st38" x1="-101.2" y1="35.1" x2="-89.2" y2="41.1"/>
		</g>
		<g>
			<defs>
				<polygon id="SVGID_75_" points="-151.2,-34.9 -151.2,-30.9 -131.2,-30.9 -131.2,-16.9 -151.2,-16.9 -151.2,89.1 -17.2,89.1 
					-17.2,45.1 -51.2,45.1 -51.2,31.1 -17.2,31.1 -17.2,11.1 -80.2,11.1 -80.2,-2.9 -17.2,-2.9 -17.2,-34.9 				"/>
			</defs>
			<clipPath id="SVGID_76_">
				<use xlink:href="#SVGID_75_"  style="overflow:visible;"/>
			</clipPath>
			<line class="st39" x1="-101.2" y1="35.1" x2="-89.2" y2="29.1"/>
		</g>
	</g>
	<g text-rendering="geometricPrecision" transform="translate(656,219)" image-rendering="optimizeQuality">
		<g>
			<defs>
				<polygon id="SVGID_77_" points="-151.2,-34.9 -151.2,89.1 -70.2,89.1 -70.2,82.1 -17.2,82.1 -17.2,30.1 -67.2,30.1 -67.2,16.1 
					-17.2,16.1 -17.2,-34.9 				"/>
			</defs>
			<clipPath id="SVGID_78_">
				<use xlink:href="#SVGID_77_"  style="overflow:visible;"/>
			</clipPath>
			<line class="st40" x1="-101.2" y1="15.1" x2="-71.2" y2="15.1"/>
		</g>
		<g>
			<defs>
				<polygon id="SVGID_79_" points="-151.2,-34.9 -151.2,89.1 -70.2,89.1 -70.2,82.1 -17.2,82.1 -17.2,30.1 -67.2,30.1 -67.2,16.1 
					-17.2,16.1 -17.2,-34.9 				"/>
			</defs>
			<clipPath id="SVGID_80_">
				<use xlink:href="#SVGID_79_"  style="overflow:visible;"/>
			</clipPath>
			<line class="st41" x1="-71.2" y1="15.1" x2="-71.2" y2="35.1"/>
		</g>
		<g>
			<defs>
				<polygon id="SVGID_81_" points="-151.2,-34.9 -151.2,89.1 -70.2,89.1 -70.2,82.1 -17.2,82.1 -17.2,30.1 -67.2,30.1 -67.2,16.1 
					-17.2,16.1 -17.2,-34.9 				"/>
			</defs>
			<clipPath id="SVGID_82_">
				<use xlink:href="#SVGID_81_"  style="overflow:visible;"/>
			</clipPath>
			<line class="st42" x1="-71.2" y1="35.1" x2="-101.2" y2="35.1"/>
		</g>
		<g>
			<defs>
				<polygon id="SVGID_83_" points="-151.2,-34.9 -151.2,89.1 -70.2,89.1 -70.2,82.1 -17.2,82.1 -17.2,30.1 -67.2,30.1 -67.2,16.1 
					-17.2,16.1 -17.2,-34.9 				"/>
			</defs>
			<clipPath id="SVGID_84_">
				<use xlink:href="#SVGID_83_"  style="overflow:visible;"/>
			</clipPath>
			<line class="st43" x1="-101.2" y1="35.1" x2="-89.2" y2="41.1"/>
		</g>
		<g>
			<defs>
				<polygon id="SVGID_85_" points="-151.2,-34.9 -151.2,89.1 -70.2,89.1 -70.2,82.1 -17.2,82.1 -17.2,30.1 -67.2,30.1 -67.2,16.1 
					-17.2,16.1 -17.2,-34.9 				"/>
			</defs>
			<clipPath id="SVGID_86_">
				<use xlink:href="#SVGID_85_"  style="overflow:visible;"/>
			</clipPath>
			<line class="st44" x1="-101.2" y1="35.1" x2="-89.2" y2="29.1"/>
		</g>
	</g>
	<g text-rendering="geometricPrecision" transform="translate(656,286)" image-rendering="optimizeQuality">
		<g>
			<defs>
				<polygon id="SVGID_87_" points="-151.2,-34.9 -151.2,89.1 -17.2,89.1 -17.2,29.1 -70.2,29.1 -70.2,15.1 -17.2,15.1 -17.2,-34.9 
									"/>
			</defs>
			<clipPath id="SVGID_88_">
				<use xlink:href="#SVGID_87_"  style="overflow:visible;"/>
			</clipPath>
			<line class="st45" x1="-101.2" y1="15.1" x2="-71.2" y2="15.1"/>
		</g>
		<g>
			<defs>
				<polygon id="SVGID_89_" points="-151.2,-34.9 -151.2,89.1 -17.2,89.1 -17.2,29.1 -70.2,29.1 -70.2,15.1 -17.2,15.1 -17.2,-34.9 
									"/>
			</defs>
			<clipPath id="SVGID_90_">
				<use xlink:href="#SVGID_89_"  style="overflow:visible;"/>
			</clipPath>
			<line class="st46" x1="-71.2" y1="15.1" x2="-71.2" y2="35.1"/>
		</g>
		<g>
			<defs>
				<polygon id="SVGID_91_" points="-151.2,-34.9 -151.2,89.1 -17.2,89.1 -17.2,29.1 -70.2,29.1 -70.2,15.1 -17.2,15.1 -17.2,-34.9 
									"/>
			</defs>
			<clipPath id="SVGID_92_">
				<use xlink:href="#SVGID_91_"  style="overflow:visible;"/>
			</clipPath>
			<line class="st47" x1="-71.2" y1="35.1" x2="-101.2" y2="35.1"/>
		</g>
		<g>
			<defs>
				<polygon id="SVGID_93_" points="-151.2,-34.9 -151.2,89.1 -17.2,89.1 -17.2,29.1 -70.2,29.1 -70.2,15.1 -17.2,15.1 -17.2,-34.9 
									"/>
			</defs>
			<clipPath id="SVGID_94_">
				<use xlink:href="#SVGID_93_"  style="overflow:visible;"/>
			</clipPath>
			<line class="st48" x1="-101.2" y1="35.1" x2="-89.2" y2="41.1"/>
		</g>
		<g>
			<defs>
				<polygon id="SVGID_95_" points="-151.2,-34.9 -151.2,89.1 -17.2,89.1 -17.2,29.1 -70.2,29.1 -70.2,15.1 -17.2,15.1 -17.2,-34.9 
									"/>
			</defs>
			<clipPath id="SVGID_96_">
				<use xlink:href="#SVGID_95_"  style="overflow:visible;"/>
			</clipPath>
			<line class="st49" x1="-101.2" y1="35.1" x2="-89.2" y2="29.1"/>
		</g>
	</g>
	<g text-rendering="geometricPrecision" transform="translate(142,93)" image-rendering="optimizeQuality">
		<g>
			<defs>
				<path id="SVGID_97_" d="M-10.2-33.9v15h-79v-15H-10.2z M-151.2-34.9v54h209v-10h1v-44H-151.2z"/>
			</defs>
			<clipPath id="SVGID_98_">
				<use xlink:href="#SVGID_97_"  style="overflow:visible;"/>
			</clipPath>
			<line class="st50" x1="-126.2" y1="-9.9" x2="30.8" y2="-9.9"/>
		</g>
		<g>
			<defs>
				<path id="SVGID_99_" d="M-10.2-33.9v15h-79v-15H-10.2z M-151.2-34.9v54h209v-10h1v-44H-151.2z"/>
			</defs>
			<clipPath id="SVGID_100_">
				<use xlink:href="#SVGID_99_"  style="overflow:visible;"/>
			</clipPath>
			<line class="st51" x1="30.8" y1="-9.9" x2="18.8" y2="-15.9"/>
		</g>
		<g>
			<defs>
				<path id="SVGID_101_" d="M-10.2-33.9v15h-79v-15H-10.2z M-151.2-34.9v54h209v-10h1v-44H-151.2z"/>
			</defs>
			<clipPath id="SVGID_102_">
				<use xlink:href="#SVGID_101_"  style="overflow:visible;"/>
			</clipPath>
			<line class="st52" x1="30.8" y1="-9.9" x2="18.8" y2="-3.9"/>
		</g>
	</g>
	<g text-rendering="geometricPrecision" transform="translate(204,94)" image-rendering="optimizeQuality">
		<g>
			<defs>
				<rect id="SVGID_103_" x="-230.2" y="-49.9" width="237" height="45"/>
			</defs>
			<clipPath id="SVGID_104_">
				<use xlink:href="#SVGID_103_"  style="overflow:visible;"/>
			</clipPath>
			<rect x="-151.2" y="-34.9" class="st53" width="79" height="15"/>
		</g>
		<g>
			<defs>
				<rect id="SVGID_105_" x="-230.2" y="-49.9" width="237" height="45"/>
			</defs>
			<clipPath id="SVGID_106_">
				<use xlink:href="#SVGID_105_"  style="overflow:visible;"/>
			</clipPath>
			<g class="st54">
				<text transform="matrix(1 0 0 1 -145.2465 -23.8843)" class="st24 st25">1: readQR()</text>
			</g>
		</g>
	</g>
	<g text-rendering="geometricPrecision" transform="translate(737,336)" image-rendering="optimizeQuality">
		<g>
			<defs>
				<rect id="SVGID_107_" x="-285.2" y="-48.9" width="402" height="42"/>
			</defs>
			<clipPath id="SVGID_108_">
				<use xlink:href="#SVGID_107_"  style="overflow:visible;"/>
			</clipPath>
			<rect x="-151.2" y="-34.9" class="st55" width="134" height="14"/>
		</g>
		<g>
			<defs>
				<rect id="SVGID_109_" x="-285.2" y="-48.9" width="402" height="42"/>
			</defs>
			<clipPath id="SVGID_110_">
				<use xlink:href="#SVGID_109_"  style="overflow:visible;"/>
			</clipPath>
			<g class="st56">
				<text transform="matrix(1 0 0 1 -142.2465 -23.8843)" class="st24 st25">3: displayFlightInfo()</text>
			</g>
		</g>
	</g>
	<g text-rendering="geometricPrecision" transform="translate(740,270)" image-rendering="optimizeQuality">
		<g>
			<defs>
				<rect id="SVGID_111_" x="-330.2" y="-48.9" width="537" height="42"/>
			</defs>
			<clipPath id="SVGID_112_">
				<use xlink:href="#SVGID_111_"  style="overflow:visible;"/>
			</clipPath>
			<rect x="-151.2" y="-34.9" class="st57" width="179" height="14"/>
		</g>
		<g>
			<defs>
				<rect id="SVGID_113_" x="-330.2" y="-48.9" width="537" height="42"/>
			</defs>
			<clipPath id="SVGID_114_">
				<use xlink:href="#SVGID_113_"  style="overflow:visible;"/>
			</clipPath>
			<g class="st58">
				<text transform="matrix(1 0 0 1 -141.2465 -23.8843)" class="st24 st25">2: updateFlightInfo(FlightNo)</text>
			</g>
		</g>
	</g>
	<g text-rendering="geometricPrecision" transform="translate(507,165)" image-rendering="optimizeQuality">
		<g>
			<defs>
				<rect id="SVGID_115_" x="-345.2" y="-48.9" width="582" height="42"/>
			</defs>
			<clipPath id="SVGID_116_">
				<use xlink:href="#SVGID_115_"  style="overflow:visible;"/>
			</clipPath>
			<rect x="-151.2" y="-34.9" class="st59" width="194" height="14"/>
		</g>
		<g>
			<defs>
				<rect id="SVGID_117_" x="-345.2" y="-48.9" width="582" height="42"/>
			</defs>
			<clipPath id="SVGID_118_">
				<use xlink:href="#SVGID_117_"  style="overflow:visible;"/>
			</clipPath>
			<g class="st60">
				<text transform="matrix(1 0 0 1 -141.2465 -23.8843)" class="st24 st25">1.1.1: getFlightDetails(flightNo)</text>
			</g>
		</g>
	</g>
	<g text-rendering="geometricPrecision" transform="translate(536,199)" image-rendering="optimizeQuality">
		<g>
			<defs>
				<rect id="SVGID_119_" x="-279.2" y="-48.9" width="384" height="42"/>
			</defs>
			<clipPath id="SVGID_120_">
				<use xlink:href="#SVGID_119_"  style="overflow:visible;"/>
			</clipPath>
			<rect x="-151.2" y="-34.9" class="st61" width="128" height="14"/>
		</g>
		<g>
			<defs>
				<rect id="SVGID_121_" x="-279.2" y="-48.9" width="384" height="42"/>
			</defs>
			<clipPath id="SVGID_122_">
				<use xlink:href="#SVGID_121_"  style="overflow:visible;"/>
			</clipPath>
			<g class="st62">
				<text transform="matrix(1 0 0 1 -142.2465 -23.8843)" class="st24 st25">1.1.2: &lt;&lt;create&gt;&gt;</text>
			</g>
		</g>
	</g>
	<g text-rendering="geometricPrecision" transform="translate(351,137)" image-rendering="optimizeQuality">
		<g>
			<defs>
				<rect id="SVGID_123_" x="-256.2" y="-48.9" width="315" height="42"/>
			</defs>
			<clipPath id="SVGID_124_">
				<use xlink:href="#SVGID_123_"  style="overflow:visible;"/>
			</clipPath>
			<rect x="-151.2" y="-34.9" class="st63" width="105" height="14"/>
		</g>
		<g>
			<defs>
				<rect id="SVGID_125_" x="-256.2" y="-48.9" width="315" height="42"/>
			</defs>
			<clipPath id="SVGID_126_">
				<use xlink:href="#SVGID_125_"  style="overflow:visible;"/>
			</clipPath>
			<g class="st64">
				<text transform="matrix(1 0 0 1 -141.2465 -23.8843)" class="st24 st25">1.1: findFlight()</text>
			</g>
		</g>
	</g>
	<g text-rendering="geometricPrecision" image-rendering="optimizeQuality">
		<text transform="matrix(1 0 0 1 495.7535 344.1157)" class="st65 st66 st67">Powered ByVisual Paradigm Community Edition</text>
		
			<image style="overflow:visible;enable-background:new    ;" width="32" height="32" xlink:href="432935070404827C.png"  transform="matrix(1 0 0 1 735.7535 324.1157)">
		</image>
	</g>
</g>
</svg>
