<svg xmlns="http://www.w3.org/2000/svg" xmlns:xlink="http://www.w3.org/1999/xlink" viewBox="0 0 595.28 841.89"><defs><style>.cls-1{fill:none;}.cls-2{clip-path:url(#clip-path);}.cls-3{opacity:0.3;}.cls-4{clip-path:url(#clip-path-4);}.cls-5{fill:#59b4d2;}.cls-6{clip-path:url(#clip-path-5);}.cls-7{clip-path:url(#clip-path-6);}.cls-8{clip-path:url(#clip-path-7);}.cls-9{clip-path:url(#clip-path-8);}.cls-10{clip-path:url(#clip-path-9);}.cls-11{clip-path:url(#clip-path-10);}.cls-12{clip-path:url(#clip-path-11);}.cls-13{clip-path:url(#clip-path-12);}.cls-14{clip-path:url(#clip-path-13);}.cls-15{clip-path:url(#clip-path-14);}.cls-16{clip-path:url(#clip-path-15);}.cls-17{clip-path:url(#clip-path-16);}.cls-18{clip-path:url(#clip-path-17);}.cls-19{clip-path:url(#clip-path-18);}.cls-20{clip-path:url(#clip-path-19);}.cls-21{clip-path:url(#clip-path-20);}.cls-22{clip-path:url(#clip-path-21);}.cls-23{clip-path:url(#clip-path-22);}.cls-24{fill:#5ca9a1;}.cls-25{clip-path:url(#clip-path-23);}.cls-26{clip-path:url(#clip-path-24);}.cls-27{fill:#fff;}</style><clipPath id="clip-path"><rect class="cls-1" y="-70.36" width="603.35" height="1072.62"/></clipPath><clipPath id="clip-path-4"><rect class="cls-1" x="-1224.58" y="-1013.6" width="1475.64" height="1560.99"/></clipPath><clipPath id="clip-path-5"><rect class="cls-1" x="74.48" y="-797.68" width="2056.52" height="2174.58"/></clipPath><clipPath id="clip-path-6"><rect class="cls-1" x="-820.4" y="15.3" width="1475.64" height="1560.99"/></clipPath><clipPath id="clip-path-7"><rect class="cls-1" x="574.78" y="-33.28" width="1475.64" height="1560.99"/></clipPath><clipPath id="clip-path-8"><rect class="cls-1" x="-624.15" y="-1306.04" width="1475.64" height="1560.99"/></clipPath><clipPath id="clip-path-9"><rect class="cls-1" x="-583.34" y="-464.65" width="1475.64" height="1560.99"/></clipPath><clipPath id="clip-path-10"><rect class="cls-1" x="-72.29" y="-917.41" width="1475.64" height="1560.99"/></clipPath><clipPath id="clip-path-11"><rect class="cls-1" x="-1244.01" y="481.66" width="1475.64" height="1560.99"/></clipPath><clipPath id="clip-path-12"><rect class="cls-1" x="-624.15" y="213.51" width="1475.64" height="1560.99"/></clipPath><clipPath id="clip-path-13"><rect class="cls-1" x="-521.16" y="-1177.79" width="1475.64" height="1560.99"/></clipPath><clipPath id="clip-path-14"><rect class="cls-1" x="234.73" y="-359.72" width="1475.64" height="1560.99"/></clipPath><clipPath id="clip-path-15"><rect class="cls-1" x="-1111.88" y="184.36" width="1475.64" height="1560.99"/></clipPath><clipPath id="clip-path-16"><rect class="cls-1" x="-506.1" y="-334.46" width="1475.64" height="1560.99"/></clipPath><clipPath id="clip-path-17"><rect class="cls-1" x="263.88" y="508.86" width="1475.64" height="1560.99"/></clipPath><clipPath id="clip-path-18"><rect class="cls-1" x="-1164.34" y="-241.19" width="1475.64" height="1560.99"/></clipPath><clipPath id="clip-path-19"><rect class="cls-1" x="483.45" y="-765.36" width="1475.64" height="1560.99"/></clipPath><clipPath id="clip-path-20"><rect class="cls-1" x="125.91" y="580.76" width="1475.64" height="1560.99"/></clipPath><clipPath id="clip-path-21"><rect class="cls-1" x="-565.85" y="470.97" width="1475.64" height="1560.99"/></clipPath><clipPath id="clip-path-22"><rect class="cls-1" x="-919.88" y="315.77" width="1523.03" height="1619.76"/></clipPath><clipPath id="clip-path-23"><rect class="cls-1" x="253.29" y="-400.77" width="1523.04" height="1619.76"/></clipPath><clipPath id="clip-path-24"><rect class="cls-1" x="-811.07" y="-823.89" width="1523.03" height="1619.76"/></clipPath></defs><title>splash</title><g id="Layer_1" data-name="Layer 1"><g class="cls-2"><g class="cls-2"><g class="cls-2"><g class="cls-3"><g class="cls-4"><polygon class="cls-5" points="127.28 264.35 -610.54 547.39 -1224.58 49.95 -1100.8 -730.55 -362.98 -1013.6 251.06 -516.15 127.28 264.35"/></g></g><g class="cls-3"><g class="cls-6"><polygon class="cls-5" points="247.75 983.31 74.48 -103.98 929.47 -797.68 1957.73 -404.1 2131 683.2 1276.01 1376.9 247.75 983.31"/></g></g><g class="cls-3"><g class="cls-7"><polygon class="cls-5" points="531.45 1293.25 -206.37 1576.29 -820.4 1078.85 -696.62 298.35 41.2 15.3 655.24 512.75 531.45 1293.25"/></g></g><g class="cls-3"><g class="cls-8"><polygon class="cls-5" points="1926.63 1244.67 1188.82 1527.71 574.78 1030.27 698.56 249.77 1436.38 -33.27 2050.42 464.17 1926.63 1244.67"/></g></g><g class="cls-3"><g class="cls-9"><polygon class="cls-5" points="727.71 -28.1 -10.11 254.95 -624.14 -242.5 -500.36 -1022.99 237.46 -1306.04 851.49 -808.59 727.71 -28.1"/></g></g><g class="cls-3"><g class="cls-10"><polygon class="cls-5" points="768.52 813.29 30.7 1096.34 -583.34 598.89 -459.56 -181.61 278.26 -464.65 892.3 32.79 768.52 813.29"/></g></g><g class="cls-3"><g class="cls-11"><polygon class="cls-5" points="1279.57 360.53 541.75 643.58 -72.29 146.13 51.49 -634.36 789.31 -917.41 1403.35 -419.96 1279.57 360.53"/></g></g><g class="cls-3"><g class="cls-12"><polygon class="cls-5" points="107.84 1759.6 -629.98 2042.65 -1244.01 1545.2 -1120.23 764.71 -382.41 481.66 231.63 979.11 107.84 1759.6"/></g></g><g class="cls-3"><g class="cls-13"><polygon class="cls-5" points="727.71 1491.45 -10.11 1774.49 -624.14 1277.05 -500.36 496.55 237.46 213.5 851.49 710.95 727.71 1491.45"/></g></g><g class="cls-3"><g class="cls-14"><polygon class="cls-5" points="830.7 100.15 92.88 383.2 -521.16 -114.25 -397.38 -894.74 340.44 -1177.79 954.48 -680.35 830.7 100.15"/></g></g><g class="cls-3"><g class="cls-15"><polygon class="cls-5" points="1586.58 918.22 848.76 1201.27 234.73 703.82 358.51 -76.67 1096.33 -359.73 1710.37 137.72 1586.58 918.22"/></g></g><g class="cls-3"><g class="cls-16"><polygon class="cls-5" points="239.98 1462.3 -497.84 1745.35 -1111.88 1247.9 -988.09 467.41 -250.27 184.36 363.76 681.8 239.98 1462.3"/></g></g><g class="cls-3"><g class="cls-17"><polygon class="cls-5" points="845.76 943.48 107.94 1226.53 -506.1 729.08 -382.31 -51.41 355.5 -334.46 969.54 162.98 845.76 943.48"/></g></g><g class="cls-3"><g class="cls-18"><polygon class="cls-5" points="1615.73 1786.81 877.91 2069.86 263.88 1572.41 387.66 791.91 1125.48 508.86 1739.51 1006.31 1615.73 1786.81"/></g></g><g class="cls-3"><g class="cls-19"><polygon class="cls-5" points="187.51 1036.75 -550.31 1319.8 -1164.34 822.35 -1040.56 41.86 -302.74 -241.19 311.3 256.25 187.51 1036.75"/></g></g><g class="cls-3"><g class="cls-20"><polygon class="cls-5" points="1835.31 512.59 1097.49 795.63 483.45 298.19 607.24 -482.31 1345.06 -765.36 1959.09 -267.91 1835.31 512.59"/></g></g><g class="cls-3"><g class="cls-21"><polygon class="cls-5" points="1477.77 1858.7 739.95 2141.75 125.91 1644.3 249.69 863.81 987.51 580.76 1601.55 1078.21 1477.77 1858.7"/></g></g><g class="cls-3"><g class="cls-22"><polygon class="cls-5" points="786 1748.92 48.19 2031.96 -565.85 1534.52 -442.07 754.02 295.75 470.97 909.79 968.42 786 1748.92"/></g></g><g class="cls-3"><g class="cls-23"><polygon class="cls-24" points="482.87 1634.76 -278.65 1935.53 -919.88 1426.43 -799.61 616.54 -38.09 315.77 603.15 824.87 482.87 1634.76"/></g></g><g class="cls-3"><g class="cls-25"><polygon class="cls-24" points="1656.05 918.22 894.53 1218.99 253.29 709.89 373.57 -99.99 1135.09 -400.77 1776.33 108.34 1656.05 918.22"/></g></g><g class="cls-3"><g class="cls-26"><polygon class="cls-24" points="591.69 495.1 -169.83 795.87 -811.07 286.77 -690.79 -523.12 70.73 -823.89 711.97 -314.78 591.69 495.1"/></g></g></g></g></g><path id="SVGCleanerId_0" data-name="SVGCleanerId 0" class="cls-27" d="M392.48,416.89a84,84,0,0,1-17.2-6.1c-39.9-17.8-62.6-61.5-70.1-117.9-.6-5.2-6.5-5.2-7.1,0-8.8,65.4-37.3,111.4-87,123.5-3.9.9-3.9,8.7,0,9.5,49,12.1,78.5,58.1,87,123.1.6,3.9,3.9,3.9,3.6,3.9,1.6,0,3.3-1.7,3.6-3.9,4.6-33.4,16.5-78.9,50.3-105.3,10.7-8.7,23-14.3,36.7-17.8,1.6-.4,2.9-2.6,2.9-4.8A4.25,4.25,0,0,0,392.48,416.89Z"/></g></svg>