<?xml version="1.0" encoding="utf-8"?>
<!-- Generator: Adobe Illustrator 22.0.0, SVG Export Plug-In . SVG Version: 6.00 Build 0)  -->
<svg version="1.1"
	 id="Layer_1" color-interpolation="auto" color-rendering="auto" text-rendering="auto" image-rendering="auto" shape-rendering="auto"
	 xmlns="http://www.w3.org/2000/svg" xmlns:xlink="http://www.w3.org/1999/xlink" x="0px" y="0px" viewBox="0 0 758 356"
	 style="enable-background:new 0 0 758 356;" xml:space="preserve">
<style type="text/css">
	.st0{fill:#FFFFFF;}
	.st1{clip-path:url(#SVGID_2_);fill:#7ACFF5;}
	.st2{clip-path:url(#SVGID_4_);fill:none;stroke:#000000;stroke-linejoin:round;stroke-miterlimit:1;}
	.st3{clip-path:url(#SVGID_6_);fill:none;stroke:#000000;stroke-linejoin:bevel;stroke-miterlimit:1;stroke-dasharray:8,3;}
	.st4{clip-path:url(#SVGID_8_);fill:#7ACFF5;}
	.st5{clip-path:url(#SVGID_10_);fill:#7ACFF5;}
	.st6{clip-path:url(#SVGID_12_);fill:none;stroke:#000000;stroke-linejoin:round;stroke-miterlimit:1;}
	.st7{clip-path:url(#SVGID_14_);fill:none;stroke:#000000;stroke-linejoin:round;stroke-miterlimit:1;}
	.st8{clip-path:url(#SVGID_16_);fill:none;stroke:#000000;stroke-linejoin:round;stroke-miterlimit:1;}
	.st9{clip-path:url(#SVGID_18_);fill:none;stroke:#000000;stroke-linejoin:round;stroke-miterlimit:1;}
	.st10{clip-path:url(#SVGID_20_);fill:none;stroke:#000000;stroke-linejoin:round;stroke-miterlimit:1;}
	.st11{clip-path:url(#SVGID_22_);fill:none;stroke:#000000;stroke-linejoin:round;stroke-miterlimit:1;}
	.st12{clip-path:url(#SVGID_24_);fill:#7ACFF5;}
	.st13{clip-path:url(#SVGID_26_);fill:none;stroke:#000000;stroke-linejoin:round;stroke-miterlimit:1;}
	.st14{clip-path:url(#SVGID_28_);fill:#7ACFF5;}
	.st15{clip-path:url(#SVGID_30_);fill:none;stroke:#000000;stroke-linejoin:round;stroke-miterlimit:1;}
	.st16{clip-path:url(#SVGID_32_);fill:none;stroke:#000000;stroke-linejoin:bevel;stroke-miterlimit:1;stroke-dasharray:8,3;}
	.st17{clip-path:url(#SVGID_34_);fill:#7ACFF5;}
	.st18{clip-path:url(#SVGID_36_);fill:none;stroke:#000000;stroke-linejoin:round;stroke-miterlimit:1;}
	.st19{clip-path:url(#SVGID_38_);fill:none;stroke:#000000;stroke-linejoin:bevel;stroke-miterlimit:1;stroke-dasharray:8,3;}
	.st20{clip-path:url(#SVGID_40_);fill:#7ACFF5;}
	.st21{clip-path:url(#SVGID_42_);fill:none;stroke:#000000;stroke-linejoin:round;stroke-miterlimit:1;}
	.st22{clip-path:url(#SVGID_44_);fill:#7ACFF5;}
	.st23{clip-path:url(#SVGID_46_);fill:none;stroke:#000000;stroke-linejoin:round;stroke-miterlimit:1;}
	.st24{clip-path:url(#SVGID_48_);enable-background:new    ;}
	.st25{font-family:'Helvetica';}
	.st26{font-size:11px;}
	.st27{clip-path:url(#SVGID_50_);enable-background:new    ;}
	.st28{clip-path:url(#SVGID_52_);enable-background:new    ;}
	.st29{clip-path:url(#SVGID_54_);enable-background:new    ;}
	.st30{clip-path:url(#SVGID_56_);fill:none;stroke:#000000;stroke-linejoin:round;stroke-miterlimit:10;}
	.st31{clip-path:url(#SVGID_58_);fill:none;stroke:#000000;stroke-linejoin:round;stroke-miterlimit:10;}
	.st32{clip-path:url(#SVGID_60_);fill:none;stroke:#000000;stroke-linejoin:round;stroke-miterlimit:10;}
	
		.st33{clip-path:url(#SVGID_62_);fill:none;stroke:#000000;stroke-linejoin:round;stroke-miterlimit:10;stroke-dasharray:5;stroke-dashoffset:1;}
	.st34{clip-path:url(#SVGID_64_);fill:none;stroke:#000000;stroke-linejoin:round;stroke-miterlimit:10;}
	.st35{clip-path:url(#SVGID_66_);fill:none;stroke:#000000;stroke-linejoin:round;stroke-miterlimit:10;}
	.st36{clip-path:url(#SVGID_68_);fill:none;stroke:#000000;stroke-linejoin:round;stroke-miterlimit:10;}
	.st37{clip-path:url(#SVGID_70_);fill:none;stroke:#000000;stroke-linejoin:round;stroke-miterlimit:10;}
	.st38{clip-path:url(#SVGID_72_);fill:none;stroke:#000000;stroke-linejoin:round;stroke-miterlimit:10;}
	.st39{clip-path:url(#SVGID_74_);fill:none;stroke:#000000;stroke-linejoin:round;stroke-miterlimit:10;}
	.st40{clip-path:url(#SVGID_76_);fill:none;stroke:#000000;stroke-linejoin:round;stroke-miterlimit:10;}
	.st41{clip-path:url(#SVGID_78_);fill:none;stroke:#000000;stroke-linejoin:round;stroke-miterlimit:10;}
	.st42{clip-path:url(#SVGID_80_);fill:none;stroke:#000000;stroke-linejoin:round;stroke-miterlimit:10;}
	.st43{clip-path:url(#SVGID_82_);fill:none;stroke:#000000;stroke-linejoin:round;stroke-miterlimit:10;}
	.st44{clip-path:url(#SVGID_84_);fill:none;stroke:#000000;stroke-linejoin:round;stroke-miterlimit:10;}
	.st45{clip-path:url(#SVGID_86_);fill:none;stroke:#000000;stroke-linejoin:round;stroke-miterlimit:10;}
	.st46{clip-path:url(#SVGID_88_);fill:none;stroke:#000000;stroke-linejoin:round;stroke-miterlimit:10;}
	.st47{clip-path:url(#SVGID_90_);fill:none;stroke:#000000;stroke-linejoin:round;stroke-miterlimit:10;}
	.st48{clip-path:url(#SVGID_92_);fill:none;stroke:#000000;stroke-linejoin:round;stroke-miterlimit:10;}
	.st49{clip-path:url(#SVGID_94_);fill:none;stroke:#000000;stroke-linejoin:round;stroke-miterlimit:10;}
	.st50{clip-path:url(#SVGID_96_);fill:none;stroke:#000000;stroke-linejoin:round;stroke-miterlimit:10;}
	.st51{clip-path:url(#SVGID_98_);fill:none;stroke:#000000;stroke-linejoin:round;stroke-miterlimit:10;}
	.st52{clip-path:url(#SVGID_100_);fill:none;stroke:#000000;stroke-linejoin:round;stroke-miterlimit:10;}
	.st53{clip-path:url(#SVGID_102_);fill:none;stroke:#000000;stroke-linejoin:round;stroke-miterlimit:10;}
	.st54{clip-path:url(#SVGID_104_);fill:#FFFFFF;}
	.st55{clip-path:url(#SVGID_106_);enable-background:new    ;}
	.st56{clip-path:url(#SVGID_108_);fill:#FFFFFF;}
	.st57{clip-path:url(#SVGID_110_);enable-background:new    ;}
	.st58{clip-path:url(#SVGID_112_);fill:#FFFFFF;}
	.st59{clip-path:url(#SVGID_114_);enable-background:new    ;}
	.st60{clip-path:url(#SVGID_116_);fill:#FFFFFF;}
	.st61{clip-path:url(#SVGID_118_);enable-background:new    ;}
	.st62{clip-path:url(#SVGID_120_);fill:#FFFFFF;}
	.st63{clip-path:url(#SVGID_122_);enable-background:new    ;}
	.st64{clip-path:url(#SVGID_124_);fill:#FFFFFF;}
	.st65{clip-path:url(#SVGID_126_);enable-background:new    ;}
	.st66{fill:#787878;}
	.st67{font-family:'ArialMT';}
	.st68{font-size:10px;}
</style>
<g>
	<g text-rendering="geometricPrecision">
		<path class="st0" d="M758,356"/>
	</g>
	<g text-rendering="geometricPrecision" transform="translate(274,40)" image-rendering="optimizeQuality">
		<g>
			<defs>
				<rect id="SVGID_1_" x="-157" y="-43" width="115" height="366"/>
			</defs>
			<clipPath id="SVGID_2_">
				<use xlink:href="#SVGID_1_"  style="overflow:visible;"/>
			</clipPath>
			<rect x="-150" y="-36" class="st1" width="96" height="35"/>
		</g>
	</g>
	<g text-rendering="geometricPrecision" transform="translate(274,40)" image-rendering="optimizeQuality">
		<g>
			<defs>
				<rect id="SVGID_3_" x="-157" y="-43" width="115" height="366"/>
			</defs>
			<clipPath id="SVGID_4_">
				<use xlink:href="#SVGID_3_"  style="overflow:visible;"/>
			</clipPath>
			<rect x="-150" y="-36" class="st2" width="96" height="35"/>
		</g>
		<g>
			<defs>
				<rect id="SVGID_5_" x="-157" y="-43" width="115" height="366"/>
			</defs>
			<clipPath id="SVGID_6_">
				<use xlink:href="#SVGID_5_"  style="overflow:visible;"/>
			</clipPath>
			<line class="st3" x1="-102" y1="-1" x2="-102" y2="312"/>
		</g>
	</g>
	<g text-rendering="geometricPrecision" transform="translate(133,40)" image-rendering="optimizeQuality">
		<g>
			<defs>
				<rect id="SVGID_7_" x="-157" y="-43" width="78" height="366"/>
			</defs>
			<clipPath id="SVGID_8_">
				<use xlink:href="#SVGID_7_"  style="overflow:visible;"/>
			</clipPath>
			<circle class="st4" cx="-120" cy="-31" r="5"/>
		</g>
		<g>
			<defs>
				<rect id="SVGID_9_" x="-157" y="-43" width="78" height="366"/>
			</defs>
			<clipPath id="SVGID_10_">
				<use xlink:href="#SVGID_9_"  style="overflow:visible;"/>
			</clipPath>
			<rect x="-124" y="13" class="st5" width="8" height="298"/>
		</g>
	</g>
	<g text-rendering="geometricPrecision" transform="translate(133,40)" image-rendering="optimizeQuality">
		<g>
			<defs>
				<rect id="SVGID_11_" x="-157" y="-43" width="78" height="366"/>
			</defs>
			<clipPath id="SVGID_12_">
				<use xlink:href="#SVGID_11_"  style="overflow:visible;"/>
			</clipPath>
			<circle class="st6" cx="-120" cy="-31" r="5"/>
		</g>
		<g>
			<defs>
				<rect id="SVGID_13_" x="-157" y="-43" width="78" height="366"/>
			</defs>
			<clipPath id="SVGID_14_">
				<use xlink:href="#SVGID_13_"  style="overflow:visible;"/>
			</clipPath>
			<rect x="-124" y="13" class="st7" width="8" height="298"/>
		</g>
		<g>
			<defs>
				<rect id="SVGID_15_" x="-157" y="-43" width="78" height="366"/>
			</defs>
			<clipPath id="SVGID_16_">
				<use xlink:href="#SVGID_15_"  style="overflow:visible;"/>
			</clipPath>
			<line class="st8" x1="-120" y1="-26" x2="-120" y2="-11"/>
		</g>
		<g>
			<defs>
				<rect id="SVGID_17_" x="-157" y="-43" width="78" height="366"/>
			</defs>
			<clipPath id="SVGID_18_">
				<use xlink:href="#SVGID_17_"  style="overflow:visible;"/>
			</clipPath>
			<line class="st9" x1="-120" y1="-11" x2="-129" y2="0"/>
		</g>
		<g>
			<defs>
				<rect id="SVGID_19_" x="-157" y="-43" width="78" height="366"/>
			</defs>
			<clipPath id="SVGID_20_">
				<use xlink:href="#SVGID_19_"  style="overflow:visible;"/>
			</clipPath>
			<line class="st10" x1="-120" y1="-11" x2="-111" y2="0"/>
		</g>
		<g>
			<defs>
				<rect id="SVGID_21_" x="-157" y="-43" width="78" height="366"/>
			</defs>
			<clipPath id="SVGID_22_">
				<use xlink:href="#SVGID_21_"  style="overflow:visible;"/>
			</clipPath>
			<line class="st11" x1="-129" y1="-20" x2="-111" y2="-20"/>
		</g>
	</g>
	<g text-rendering="geometricPrecision" transform="translate(318,99)" image-rendering="optimizeQuality">
		<g>
			<defs>
				<rect id="SVGID_23_" x="-157" y="-43" width="26" height="103"/>
			</defs>
			<clipPath id="SVGID_24_">
				<use xlink:href="#SVGID_23_"  style="overflow:visible;"/>
			</clipPath>
			<rect x="-150" y="-36" class="st12" width="8" height="85"/>
		</g>
	</g>
	<g text-rendering="geometricPrecision" transform="translate(318,99)" image-rendering="optimizeQuality">
		<g>
			<defs>
				<rect id="SVGID_25_" x="-157" y="-43" width="26" height="103"/>
			</defs>
			<clipPath id="SVGID_26_">
				<use xlink:href="#SVGID_25_"  style="overflow:visible;"/>
			</clipPath>
			<rect x="-150" y="-36" class="st13" width="8" height="85"/>
		</g>
	</g>
	<g text-rendering="geometricPrecision" transform="translate(441,40)" image-rendering="optimizeQuality">
		<g>
			<defs>
				<rect id="SVGID_27_" x="-157" y="-43" width="101" height="366"/>
			</defs>
			<clipPath id="SVGID_28_">
				<use xlink:href="#SVGID_27_"  style="overflow:visible;"/>
			</clipPath>
			<rect x="-150" y="-36" class="st14" width="82" height="35"/>
		</g>
	</g>
	<g text-rendering="geometricPrecision" transform="translate(441,40)" image-rendering="optimizeQuality">
		<g>
			<defs>
				<rect id="SVGID_29_" x="-157" y="-43" width="101" height="366"/>
			</defs>
			<clipPath id="SVGID_30_">
				<use xlink:href="#SVGID_29_"  style="overflow:visible;"/>
			</clipPath>
			<rect x="-150" y="-36" class="st15" width="82" height="35"/>
		</g>
		<g>
			<defs>
				<rect id="SVGID_31_" x="-157" y="-43" width="101" height="366"/>
			</defs>
			<clipPath id="SVGID_32_">
				<use xlink:href="#SVGID_31_"  style="overflow:visible;"/>
			</clipPath>
			<line class="st16" x1="-109" y1="-1" x2="-109" y2="312"/>
		</g>
	</g>
	<g text-rendering="geometricPrecision" transform="translate(667,204)" image-rendering="optimizeQuality">
		<g>
			<defs>
				<rect id="SVGID_33_" x="-157" y="-43" width="88" height="202"/>
			</defs>
			<clipPath id="SVGID_34_">
				<use xlink:href="#SVGID_33_"  style="overflow:visible;"/>
			</clipPath>
			<rect x="-150" y="-36" class="st17" width="69" height="35"/>
		</g>
	</g>
	<g text-rendering="geometricPrecision" transform="translate(667,204)" image-rendering="optimizeQuality">
		<g>
			<defs>
				<rect id="SVGID_35_" x="-157" y="-43" width="88" height="202"/>
			</defs>
			<clipPath id="SVGID_36_">
				<use xlink:href="#SVGID_35_"  style="overflow:visible;"/>
			</clipPath>
			<rect x="-150" y="-36" class="st18" width="69" height="35"/>
		</g>
		<g>
			<defs>
				<rect id="SVGID_37_" x="-157" y="-43" width="88" height="202"/>
			</defs>
			<clipPath id="SVGID_38_">
				<use xlink:href="#SVGID_37_"  style="overflow:visible;"/>
			</clipPath>
			<line class="st19" x1="-116" y1="-1" x2="-116" y2="148"/>
		</g>
	</g>
	<g text-rendering="geometricPrecision" transform="translate(698,269)" image-rendering="optimizeQuality">
		<g>
			<defs>
				<rect id="SVGID_39_" x="-157" y="-43" width="26" height="117"/>
			</defs>
			<clipPath id="SVGID_40_">
				<use xlink:href="#SVGID_39_"  style="overflow:visible;"/>
			</clipPath>
			<rect x="-150" y="-36" class="st20" width="8" height="99"/>
		</g>
	</g>
	<g text-rendering="geometricPrecision" transform="translate(698,269)" image-rendering="optimizeQuality">
		<g>
			<defs>
				<rect id="SVGID_41_" x="-157" y="-43" width="26" height="117"/>
			</defs>
			<clipPath id="SVGID_42_">
				<use xlink:href="#SVGID_41_"  style="overflow:visible;"/>
			</clipPath>
			<rect x="-150" y="-36" class="st21" width="8" height="99"/>
		</g>
	</g>
	<g text-rendering="geometricPrecision" transform="translate(478,142)" image-rendering="optimizeQuality">
		<g>
			<defs>
				<rect id="SVGID_43_" x="-157" y="-43" width="26" height="109"/>
			</defs>
			<clipPath id="SVGID_44_">
				<use xlink:href="#SVGID_43_"  style="overflow:visible;"/>
			</clipPath>
			<rect x="-150" y="-36" class="st22" width="8" height="91"/>
		</g>
	</g>
	<g text-rendering="geometricPrecision" transform="translate(478,142)" image-rendering="optimizeQuality">
		<g>
			<defs>
				<rect id="SVGID_45_" x="-157" y="-43" width="26" height="109"/>
			</defs>
			<clipPath id="SVGID_46_">
				<use xlink:href="#SVGID_45_"  style="overflow:visible;"/>
			</clipPath>
			<rect x="-150" y="-36" class="st23" width="8" height="91"/>
		</g>
	</g>
	<g text-rendering="geometricPrecision" transform="translate(142,75)" image-rendering="optimizeQuality">
		<g>
			<defs>
				<rect id="SVGID_47_" x="-193" y="-50" width="129" height="42"/>
			</defs>
			<clipPath id="SVGID_48_">
				<use xlink:href="#SVGID_47_"  style="overflow:visible;"/>
			</clipPath>
			<g class="st24">
				<text transform="matrix(1 0 0 1 -140 -25)" class="st25 st26">Jack</text>
			</g>
		</g>
	</g>
	<g text-rendering="geometricPrecision" transform="translate(667,204)" image-rendering="optimizeQuality">
		<g>
			<defs>
				<rect id="SVGID_49_" x="-220" y="-50" width="210" height="42"/>
			</defs>
			<clipPath id="SVGID_50_">
				<use xlink:href="#SVGID_49_"  style="overflow:visible;"/>
			</clipPath>
			<g class="st27">
				<text transform="matrix(1 0 0 1 -127 -25)" class="st25 st26">Trip</text>
			</g>
		</g>
	</g>
	<g text-rendering="geometricPrecision" transform="translate(441,40)" image-rendering="optimizeQuality">
		<g>
			<defs>
				<rect id="SVGID_51_" x="-233" y="-50" width="249" height="42"/>
			</defs>
			<clipPath id="SVGID_52_">
				<use xlink:href="#SVGID_51_"  style="overflow:visible;"/>
			</clipPath>
			<g class="st28">
				<text transform="matrix(1 0 0 1 -144 -25)" class="st25 st26">TripManager</text>
			</g>
		</g>
	</g>
	<g text-rendering="geometricPrecision" transform="translate(274,40)" image-rendering="optimizeQuality">
		<g>
			<defs>
				<rect id="SVGID_53_" x="-247" y="-50" width="291" height="42"/>
			</defs>
			<clipPath id="SVGID_54_">
				<use xlink:href="#SVGID_53_"  style="overflow:visible;"/>
			</clipPath>
			<g class="st29">
				<text transform="matrix(1 0 0 1 -134 -25)" class="st25 st26">I/OManager</text>
			</g>
		</g>
	</g>
	<g text-rendering="geometricPrecision" transform="translate(276,108)" image-rendering="optimizeQuality">
		<g>
			<defs>
				<path id="SVGID_55_" d="M28-6V8H-77V-6H28z M-146-36v1h-4V68h256V35H81V21h25v-57H-146z"/>
			</defs>
			<clipPath id="SVGID_56_">
				<use xlink:href="#SVGID_55_"  style="overflow:visible;"/>
			</clipPath>
			<line class="st30" x1="-100" y1="14" x2="52" y2="14"/>
		</g>
		<g>
			<defs>
				<path id="SVGID_57_" d="M28-6V8H-77V-6H28z M-146-36v1h-4V68h256V35H81V21h25v-57H-146z"/>
			</defs>
			<clipPath id="SVGID_58_">
				<use xlink:href="#SVGID_57_"  style="overflow:visible;"/>
			</clipPath>
			<line class="st31" x1="52" y1="14" x2="40" y2="8"/>
		</g>
		<g>
			<defs>
				<path id="SVGID_59_" d="M28-6V8H-77V-6H28z M-146-36v1h-4V68h256V35H81V21h25v-57H-146z"/>
			</defs>
			<clipPath id="SVGID_60_">
				<use xlink:href="#SVGID_59_"  style="overflow:visible;"/>
			</clipPath>
			<line class="st32" x1="52" y1="14" x2="40" y2="20"/>
		</g>
	</g>
	<g text-rendering="geometricPrecision" transform="translate(436,171)" image-rendering="optimizeQuality">
		<g>
			<defs>
				<path id="SVGID_61_" d="M79-7V7H-49V-7H79z M-150-36V68h285V11H81V-3h54v-33h-20v8H-79v-8H-150z"/>
			</defs>
			<clipPath id="SVGID_62_">
				<use xlink:href="#SVGID_61_"  style="overflow:visible;"/>
			</clipPath>
			<line class="st33" x1="-100" y1="14" x2="81" y2="14"/>
		</g>
		<g>
			<defs>
				<path id="SVGID_63_" d="M79-7V7H-49V-7H79z M-150-36V68h285V11H81V-3h54v-33h-20v8H-79v-8H-150z"/>
			</defs>
			<clipPath id="SVGID_64_">
				<use xlink:href="#SVGID_63_"  style="overflow:visible;"/>
			</clipPath>
			<line class="st34" x1="81" y1="14" x2="69" y2="8"/>
		</g>
		<g>
			<defs>
				<path id="SVGID_65_" d="M79-7V7H-49V-7H79z M-150-36V68h285V11H81V-3h54v-33h-20v8H-79v-8H-150z"/>
			</defs>
			<clipPath id="SVGID_66_">
				<use xlink:href="#SVGID_65_"  style="overflow:visible;"/>
			</clipPath>
			<line class="st35" x1="81" y1="14" x2="69" y2="20"/>
		</g>
	</g>
	<g text-rendering="geometricPrecision" transform="translate(436,133)" image-rendering="optimizeQuality">
		<g>
			<defs>
				<polygon id="SVGID_67_" points="-150,-36 -150,-31 -132,-31 -132,-17 -150,-17 -150,88 -16,88 -16,45 -49,45 -49,31 -16,31 
					-16,10 -79,10 -79,-4 -16,-4 -16,-36 				"/>
			</defs>
			<clipPath id="SVGID_68_">
				<use xlink:href="#SVGID_67_"  style="overflow:visible;"/>
			</clipPath>
			<line class="st36" x1="-100" y1="14" x2="-70" y2="14"/>
		</g>
		<g>
			<defs>
				<polygon id="SVGID_69_" points="-150,-36 -150,-31 -132,-31 -132,-17 -150,-17 -150,88 -16,88 -16,45 -49,45 -49,31 -16,31 
					-16,10 -79,10 -79,-4 -16,-4 -16,-36 				"/>
			</defs>
			<clipPath id="SVGID_70_">
				<use xlink:href="#SVGID_69_"  style="overflow:visible;"/>
			</clipPath>
			<line class="st37" x1="-70" y1="14" x2="-70" y2="34"/>
		</g>
		<g>
			<defs>
				<polygon id="SVGID_71_" points="-150,-36 -150,-31 -132,-31 -132,-17 -150,-17 -150,88 -16,88 -16,45 -49,45 -49,31 -16,31 
					-16,10 -79,10 -79,-4 -16,-4 -16,-36 				"/>
			</defs>
			<clipPath id="SVGID_72_">
				<use xlink:href="#SVGID_71_"  style="overflow:visible;"/>
			</clipPath>
			<line class="st38" x1="-70" y1="34" x2="-100" y2="34"/>
		</g>
		<g>
			<defs>
				<polygon id="SVGID_73_" points="-150,-36 -150,-31 -132,-31 -132,-17 -150,-17 -150,88 -16,88 -16,45 -49,45 -49,31 -16,31 
					-16,10 -79,10 -79,-4 -16,-4 -16,-36 				"/>
			</defs>
			<clipPath id="SVGID_74_">
				<use xlink:href="#SVGID_73_"  style="overflow:visible;"/>
			</clipPath>
			<line class="st39" x1="-100" y1="34" x2="-88" y2="40"/>
		</g>
		<g>
			<defs>
				<polygon id="SVGID_75_" points="-150,-36 -150,-31 -132,-31 -132,-17 -150,-17 -150,88 -16,88 -16,45 -49,45 -49,31 -16,31 
					-16,10 -79,10 -79,-4 -16,-4 -16,-36 				"/>
			</defs>
			<clipPath id="SVGID_76_">
				<use xlink:href="#SVGID_75_"  style="overflow:visible;"/>
			</clipPath>
			<line class="st40" x1="-100" y1="34" x2="-88" y2="28"/>
		</g>
	</g>
	<g text-rendering="geometricPrecision" transform="translate(656,219)" image-rendering="optimizeQuality">
		<g>
			<defs>
				<polygon id="SVGID_77_" points="-150,-36 -150,88 -48,88 -48,77 -16,77 -16,10 -81,10 -81,-4 -16,-4 -16,-36 				"/>
			</defs>
			<clipPath id="SVGID_78_">
				<use xlink:href="#SVGID_77_"  style="overflow:visible;"/>
			</clipPath>
			<line class="st41" x1="-100" y1="14" x2="-70" y2="14"/>
		</g>
		<g>
			<defs>
				<polygon id="SVGID_79_" points="-150,-36 -150,88 -48,88 -48,77 -16,77 -16,10 -81,10 -81,-4 -16,-4 -16,-36 				"/>
			</defs>
			<clipPath id="SVGID_80_">
				<use xlink:href="#SVGID_79_"  style="overflow:visible;"/>
			</clipPath>
			<line class="st42" x1="-70" y1="14" x2="-70" y2="34"/>
		</g>
		<g>
			<defs>
				<polygon id="SVGID_81_" points="-150,-36 -150,88 -48,88 -48,77 -16,77 -16,10 -81,10 -81,-4 -16,-4 -16,-36 				"/>
			</defs>
			<clipPath id="SVGID_82_">
				<use xlink:href="#SVGID_81_"  style="overflow:visible;"/>
			</clipPath>
			<line class="st43" x1="-70" y1="34" x2="-100" y2="34"/>
		</g>
		<g>
			<defs>
				<polygon id="SVGID_83_" points="-150,-36 -150,88 -48,88 -48,77 -16,77 -16,10 -81,10 -81,-4 -16,-4 -16,-36 				"/>
			</defs>
			<clipPath id="SVGID_84_">
				<use xlink:href="#SVGID_83_"  style="overflow:visible;"/>
			</clipPath>
			<line class="st44" x1="-100" y1="34" x2="-88" y2="40"/>
		</g>
		<g>
			<defs>
				<polygon id="SVGID_85_" points="-150,-36 -150,88 -48,88 -48,77 -16,77 -16,10 -81,10 -81,-4 -16,-4 -16,-36 				"/>
			</defs>
			<clipPath id="SVGID_86_">
				<use xlink:href="#SVGID_85_"  style="overflow:visible;"/>
			</clipPath>
			<line class="st45" x1="-100" y1="34" x2="-88" y2="28"/>
		</g>
	</g>
	<g text-rendering="geometricPrecision" transform="translate(656,286)" image-rendering="optimizeQuality">
		<g>
			<defs>
				<polygon id="SVGID_87_" points="-150,-36 -150,88 -16,88 -16,24 -48,24 -48,10 -16,10 -16,-36 				"/>
			</defs>
			<clipPath id="SVGID_88_">
				<use xlink:href="#SVGID_87_"  style="overflow:visible;"/>
			</clipPath>
			<line class="st46" x1="-100" y1="14" x2="-70" y2="14"/>
		</g>
		<g>
			<defs>
				<polygon id="SVGID_89_" points="-150,-36 -150,88 -16,88 -16,24 -48,24 -48,10 -16,10 -16,-36 				"/>
			</defs>
			<clipPath id="SVGID_90_">
				<use xlink:href="#SVGID_89_"  style="overflow:visible;"/>
			</clipPath>
			<line class="st47" x1="-70" y1="14" x2="-70" y2="34"/>
		</g>
		<g>
			<defs>
				<polygon id="SVGID_91_" points="-150,-36 -150,88 -16,88 -16,24 -48,24 -48,10 -16,10 -16,-36 				"/>
			</defs>
			<clipPath id="SVGID_92_">
				<use xlink:href="#SVGID_91_"  style="overflow:visible;"/>
			</clipPath>
			<line class="st48" x1="-70" y1="34" x2="-100" y2="34"/>
		</g>
		<g>
			<defs>
				<polygon id="SVGID_93_" points="-150,-36 -150,88 -16,88 -16,24 -48,24 -48,10 -16,10 -16,-36 				"/>
			</defs>
			<clipPath id="SVGID_94_">
				<use xlink:href="#SVGID_93_"  style="overflow:visible;"/>
			</clipPath>
			<line class="st49" x1="-100" y1="34" x2="-88" y2="40"/>
		</g>
		<g>
			<defs>
				<polygon id="SVGID_95_" points="-150,-36 -150,88 -16,88 -16,24 -48,24 -48,10 -16,10 -16,-36 				"/>
			</defs>
			<clipPath id="SVGID_96_">
				<use xlink:href="#SVGID_95_"  style="overflow:visible;"/>
			</clipPath>
			<line class="st50" x1="-100" y1="34" x2="-88" y2="28"/>
		</g>
	</g>
	<g text-rendering="geometricPrecision" transform="translate(117,68)" image-rendering="optimizeQuality">
		<g>
			<defs>
				<path id="SVGID_97_" d="M-82-29v14h-43v-14H-82z M13-10V5h-79v-15H13z M-150-36V68h255V48H82V34h23v-70H-150z"/>
			</defs>
			<clipPath id="SVGID_98_">
				<use xlink:href="#SVGID_97_"  style="overflow:visible;"/>
			</clipPath>
			<line class="st51" x1="-100" y1="14" x2="51" y2="14"/>
		</g>
		<g>
			<defs>
				<path id="SVGID_99_" d="M-82-29v14h-43v-14H-82z M13-10V5h-79v-15H13z M-150-36V68h255V48H82V34h23v-70H-150z"/>
			</defs>
			<clipPath id="SVGID_100_">
				<use xlink:href="#SVGID_99_"  style="overflow:visible;"/>
			</clipPath>
			<line class="st52" x1="51" y1="14" x2="39" y2="8"/>
		</g>
		<g>
			<defs>
				<path id="SVGID_101_" d="M-82-29v14h-43v-14H-82z M13-10V5h-79v-15H13z M-150-36V68h255V48H82V34h23v-70H-150z"/>
			</defs>
			<clipPath id="SVGID_102_">
				<use xlink:href="#SVGID_101_"  style="overflow:visible;"/>
			</clipPath>
			<line class="st53" x1="51" y1="14" x2="39" y2="20"/>
		</g>
	</g>
	<g text-rendering="geometricPrecision" transform="translate(201,94)" image-rendering="optimizeQuality">
		<g>
			<defs>
				<rect id="SVGID_103_" x="-229" y="-51" width="237" height="45"/>
			</defs>
			<clipPath id="SVGID_104_">
				<use xlink:href="#SVGID_103_"  style="overflow:visible;"/>
			</clipPath>
			<rect x="-150" y="-36" class="st54" width="79" height="15"/>
		</g>
		<g>
			<defs>
				<rect id="SVGID_105_" x="-229" y="-51" width="237" height="45"/>
			</defs>
			<clipPath id="SVGID_106_">
				<use xlink:href="#SVGID_105_"  style="overflow:visible;"/>
			</clipPath>
			<g class="st55">
				<text transform="matrix(1 0 0 1 -144 -25)" class="st25 st26">1: readQR()</text>
			</g>
		</g>
	</g>
	<g text-rendering="geometricPrecision" transform="translate(758,332)" image-rendering="optimizeQuality">
		<g>
			<defs>
				<rect id="SVGID_107_" x="-284" y="-50" width="402" height="42"/>
			</defs>
			<clipPath id="SVGID_108_">
				<use xlink:href="#SVGID_107_"  style="overflow:visible;"/>
			</clipPath>
			<rect x="-150" y="-36" class="st56" width="134" height="14"/>
		</g>
		<g>
			<defs>
				<rect id="SVGID_109_" x="-284" y="-50" width="402" height="42"/>
			</defs>
			<clipPath id="SVGID_110_">
				<use xlink:href="#SVGID_109_"  style="overflow:visible;"/>
			</clipPath>
			<g class="st57">
				<text transform="matrix(1 0 0 1 -141 -25)" class="st25 st26">3: displayFlightInfo()</text>
			</g>
		</g>
	</g>
	<g text-rendering="geometricPrecision" transform="translate(725,251)" image-rendering="optimizeQuality">
		<g>
			<defs>
				<rect id="SVGID_111_" x="-329" y="-50" width="537" height="42"/>
			</defs>
			<clipPath id="SVGID_112_">
				<use xlink:href="#SVGID_111_"  style="overflow:visible;"/>
			</clipPath>
			<rect x="-150" y="-36" class="st58" width="179" height="14"/>
		</g>
		<g>
			<defs>
				<rect id="SVGID_113_" x="-329" y="-50" width="537" height="42"/>
			</defs>
			<clipPath id="SVGID_114_">
				<use xlink:href="#SVGID_113_"  style="overflow:visible;"/>
			</clipPath>
			<g class="st59">
				<text transform="matrix(1 0 0 1 -140 -25)" class="st25 st26">2: updateFlightInfo(FlightNo)</text>
			</g>
		</g>
	</g>
	<g text-rendering="geometricPrecision" transform="translate(507,165)" image-rendering="optimizeQuality">
		<g>
			<defs>
				<rect id="SVGID_115_" x="-344" y="-50" width="582" height="42"/>
			</defs>
			<clipPath id="SVGID_116_">
				<use xlink:href="#SVGID_115_"  style="overflow:visible;"/>
			</clipPath>
			<rect x="-150" y="-36" class="st60" width="194" height="14"/>
		</g>
		<g>
			<defs>
				<rect id="SVGID_117_" x="-344" y="-50" width="582" height="42"/>
			</defs>
			<clipPath id="SVGID_118_">
				<use xlink:href="#SVGID_117_"  style="overflow:visible;"/>
			</clipPath>
			<g class="st61">
				<text transform="matrix(1 0 0 1 -140 -25)" class="st25 st26">1.1.1: getFlightDetails(flightNo)</text>
			</g>
		</g>
	</g>
	<g text-rendering="geometricPrecision" transform="translate(537,200)" image-rendering="optimizeQuality">
		<g>
			<defs>
				<rect id="SVGID_119_" x="-278" y="-50" width="384" height="42"/>
			</defs>
			<clipPath id="SVGID_120_">
				<use xlink:href="#SVGID_119_"  style="overflow:visible;"/>
			</clipPath>
			<rect x="-150" y="-36" class="st62" width="128" height="14"/>
		</g>
		<g>
			<defs>
				<rect id="SVGID_121_" x="-278" y="-50" width="384" height="42"/>
			</defs>
			<clipPath id="SVGID_122_">
				<use xlink:href="#SVGID_121_"  style="overflow:visible;"/>
			</clipPath>
			<g class="st63">
				<text transform="matrix(1 0 0 1 -141 -25)" class="st25 st26">1.1.2: &lt;&lt;create&gt;&gt;</text>
			</g>
		</g>
	</g>
	<g text-rendering="geometricPrecision" transform="translate(349,138)" image-rendering="optimizeQuality">
		<g>
			<defs>
				<rect id="SVGID_123_" x="-255" y="-50" width="315" height="42"/>
			</defs>
			<clipPath id="SVGID_124_">
				<use xlink:href="#SVGID_123_"  style="overflow:visible;"/>
			</clipPath>
			<rect x="-150" y="-36" class="st64" width="105" height="14"/>
		</g>
		<g>
			<defs>
				<rect id="SVGID_125_" x="-255" y="-50" width="315" height="42"/>
			</defs>
			<clipPath id="SVGID_126_">
				<use xlink:href="#SVGID_125_"  style="overflow:visible;"/>
			</clipPath>
			<g class="st65">
				<text transform="matrix(1 0 0 1 -140 -25)" class="st25 st26">1.1: findFlight()</text>
			</g>
		</g>
	</g>
	<g text-rendering="geometricPrecision" image-rendering="optimizeQuality">
		<text transform="matrix(1 0 0 1 482 343)" class="st66 st67 st68">Powered ByVisual Paradigm Community Edition</text>
		
			<image style="overflow:visible;enable-background:new    ;" width="32" height="32" xlink:href="A3EF98344679424B.png"  transform="matrix(1 0 0 1 722 323)">
		</image>
	</g>
</g>
</svg>
