<?xml version="1.0" encoding="iso-8859-1"?>
<!-- Generator: Adobe Illustrator 19.0.0, SVG Export Plug-In . SVG Version: 6.00 Build 0)  -->
<svg version="1.1" id="Layer_1" xmlns="http://www.w3.org/2000/svg" xmlns:xlink="http://www.w3.org/1999/xlink" x="0px" y="0px"
	 viewBox="0 0 512 512" style="enable-background:new 0 0 512 512;" xml:space="preserve">
<g>
	<g>
		<path d="M158.609,214.261v55.652h-33.391v133.565h-11.13V512h16.696v-91.826h16.696V512h16.696v-91.826H192V512h16.696v-91.826
			v-16.696v-116.87v-16.696v-55.652H158.609z M192,403.478h-50.087v-116.87h16.696H192V403.478z M192,269.913h-16.696v-38.956H192
			V269.913z"/>
	</g>
</g>
<g>
	<g>
		<path d="M386.783,403.478V269.913h-33.391v-55.652h-50.087v55.652v16.696v116.87v16.696V512H320v-91.826h27.826V512h16.696
			v-91.826h16.696V512h16.696V403.478H386.783z M320,230.957h16.696v38.956H320V230.957z M370.087,403.478H320v-116.87h33.391
			h16.696V403.478z"/>
	</g>
</g>
<g>
	<g>
		<path d="M297.739,158.609v-33.391h-16.696V58.435h-16.696V0h-16.696v58.435h-16.696v66.783h-16.696v33.391H192v52.87h16.696
			v-36.174h5.565h83.478h5.565v36.174H320v-52.87H297.739z M247.652,75.13h16.696v50.087h-16.696V75.13z M281.043,158.609h-50.087
			v-16.696h50.087V158.609z"/>
	</g>
</g>
<g>
	<g>
		<rect x="158.609" y="300.522" width="16.696" height="16.696"/>
	</g>
</g>
<g>
	<g>
		<rect x="158.609" y="367.304" width="16.696" height="16.696"/>
	</g>
</g>
<g>
	<g>
		<rect x="158.609" y="333.913" width="16.696" height="16.696"/>
	</g>
</g>
<g>
	<g>
		<rect x="336.696" y="333.913" width="16.696" height="16.696"/>
	</g>
</g>
<g>
	<g>
		<rect x="336.696" y="300.522" width="16.696" height="16.696"/>
	</g>
</g>
<g>
	<g>
		<rect x="336.696" y="367.304" width="16.696" height="16.696"/>
	</g>
</g>
<g>
	<g>
		<rect x="225.391" y="200.348" width="16.696" height="311.652"/>
	</g>
</g>
<g>
	<g>
		<rect x="269.913" y="200.348" width="16.696" height="311.652"/>
	</g>
</g>
<g>
</g>
<g>
</g>
<g>
</g>
<g>
</g>
<g>
</g>
<g>
</g>
<g>
</g>
<g>
</g>
<g>
</g>
<g>
</g>
<g>
</g>
<g>
</g>
<g>
</g>
<g>
</g>
<g>
</g>
</svg>
