<?xml version="1.0" encoding="iso-8859-1"?>
<!-- Generator: Adobe Illustrator 19.0.0, SVG Export Plug-In . SVG Version: 6.00 Build 0)  -->
<svg version="1.1" id="Capa_1" xmlns="http://www.w3.org/2000/svg" xmlns:xlink="http://www.w3.org/1999/xlink" x="0px" y="0px"
	 viewBox="0 0 511.999 511.999" style="enable-background:new 0 0 511.999 511.999;" xml:space="preserve">
<g>
	<g>
		<path d="M506.503,288.042c-3.368-1.7-7.409-1.358-10.445,0.883l-78.569,58.011V97.971c0-5.522-4.478-10-10-10s-10,4.478-10,10
			v87.576c-3.935-1.325-8.197-1.837-12.551-1.354l-62.714,6.99c-2.111,0.225-4.162-0.873-5.127-2.754l-14.54-28.355l10.59-19.323
			c6.091-11.114,7.465-23.857,3.925-35.986c2.97-0.115,5.973-0.482,8.986-1.139c13.286-2.898,25.184-10.831,33.501-22.337
			c8.317-11.505,12.119-25.29,10.705-38.815c-1.457-13.94-8.233-25.936-19.08-33.777c-22.036-15.928-54.136-9.289-71.557,14.809
			c-8.317,11.505-12.119,25.29-10.705,38.815c0.159,1.518,0.392,3.009,0.675,4.478c-4.379-0.614-8.83-0.602-13.243,0.037
			c-0.471-0.387-0.979-0.742-1.532-1.046l-34.918-19.238c-13.626-7.507-29.394-9.375-44.397-5.266
			c-15.004,4.111-27.616,13.757-35.513,27.161l-52.692,89.444c-8.244,13.995-10.406,30.326-6.087,45.983
			c4.319,15.658,14.548,28.57,28.8,36.359l22.57,12.334c-3.199,16.113-1.165,33.181,6.48,48.739l3.751,7.634l-8.292,92.452
			c-0.026,0.297-0.04,0.596-0.04,0.894v80.591c0,16.04,13.05,29.09,29.09,29.09h47.173c13.371,0,24.25-10.879,24.25-24.25
			s-10.879-24.25-24.25-24.25h-10.267c-3.202,0-6.25-1.535-8.156-4.109c-1.305-1.761-1.994-3.85-1.994-6.041v-46.063l28.498-77.234
			l14.477,10.365c5.442,3.896,8.692,10.219,8.692,16.913v93.836c0,13.142,10.691,23.833,23.833,23.833h33.292h12.625h45.25
			c4.298,0,8.114-2.746,9.48-6.82l26.165-78.009l99.354-73.358v175.186h-20v-68.832c0-5.522-4.478-10-10-10s-10,4.478-10,10v68.832
			h-44.509c-5.522,0-10,4.478-10,10s4.478,10,10,10h94.508c5.522,0,10-4.478,10-10V296.97
			C511.997,293.195,509.872,289.743,506.503,288.042z M295.837,35.224c7.107-9.832,17.837-15.233,28.075-15.233
			c5.548,0,10.953,1.587,15.557,4.915c6.175,4.463,10.047,11.441,10.905,19.648c0.901,8.622-1.593,17.508-7.022,25.019
			c-5.429,7.511-13.085,12.665-21.555,14.514c-8.013,1.747-15.8,0.284-21.957-4.113c-0.153-0.113-0.303-0.229-0.458-0.34
			c-5.975-4.471-9.726-11.336-10.568-19.39C287.913,51.62,290.407,42.735,295.837,35.224z M275.313,89.255l8.57,4.297
			c1.374,0.689,2.669,1.485,3.886,2.369c0.079,0.058,0.154,0.121,0.233,0.178c0.032,0.023,0.065,0.045,0.098,0.068
			c4.545,3.409,7.901,8.133,9.634,13.685c2.231,7.154,1.478,14.714-2.125,21.286l-4.075,7.436l-0.569-1.11
			c-2.52-4.915-8.548-6.855-13.461-4.336c-4.915,2.52-6.855,8.547-4.336,13.461l26.133,50.965
			c4.732,9.229,14.842,14.653,25.14,13.506l62.713-6.99c4.652-0.523,8.989,2.525,10.075,7.084c0.626,2.621,0.119,5.28-1.425,7.488
			c-1.545,2.207-3.869,3.595-6.545,3.906l-81.695,9.502c-10.071,1.165-19.955-4.106-24.583-13.132l-18.084-35.276
			c-2.52-4.916-8.546-6.859-13.46-4.337c-4.915,2.52-6.856,8.546-4.337,13.46l7.122,13.893l-19.224,35.079l-52.779-34.103
			l56.691-106.757C245.817,87.869,262.146,82.655,275.313,89.255z M157.228,78.601c10.909-18.519,34.198-24.905,53.028-14.531
			l16.542,9.114l-17.463,11.401c-17.832,11.642-40.108,14.221-59.964,7.354L157.228,78.601z M101.701,202.22
			c-0.455-1.193-0.859-2.413-1.204-3.661c-2.866-10.391-1.432-21.229,4.039-30.515l34.527-58.609
			c10.514,4.181,21.638,6.257,32.746,6.257c14.603,0,29.17-3.594,42.26-10.679l-37.25,70.146l-12.49-8.798
			c-6.824-4.807-15.108-6.642-23.325-5.162c-8.217,1.479-15.343,6.084-20.064,12.969L101.701,202.22z M139.16,233.37l-19.552-10.685
			c-1.879-1.027-3.648-2.193-5.307-3.477l23.132-33.729c1.674-2.44,4.199-4.072,7.111-4.597c2.912-0.525,5.849,0.126,8.267,1.83
			l14.553,10.251l-6.523,12.284l-9.613,10.543C146.317,221.177,142.293,227.101,139.16,233.37z M200.482,483.469h10.267
			c2.344,0,4.25,1.906,4.25,4.25c0,2.344-1.906,4.25-4.25,4.25h-47.173c-5.012,0-9.09-4.078-9.09-9.09v-19.561h17.582
			c0.997,2.834,2.395,5.527,4.187,7.945C181.914,478.906,190.972,483.469,200.482,483.469z M244.948,324.124l-31.128-22.285
			c-4.492-3.216-10.739-2.181-13.952,2.31c-3.163,4.419-2.205,10.53,2.103,13.788l-31.021,84.072
			c-0.409,1.108-0.618,2.28-0.618,3.462v37.85h-15.846v-40.583l8.502-94.796c0.164-1.825-0.177-3.659-0.985-5.304l-4.986-10.147
			c-6.441-13.107-7.504-27.666-3.581-40.975c0.283-0.654,0.495-1.323,0.63-2c2.463-7.335,6.464-14.241,11.942-20.25l4.759-5.219
			l96.78,62.015c19.393,12.236,28.516,35.36,22.702,57.541l-16.774,63.995h-11.477V357.3
			C261.998,344.169,255.625,331.767,244.948,324.124z M311.749,454.969h-12.626h-33.292c-2.113,0-3.833-1.72-3.833-3.833v-23.54
			h11.517c1.821,6.052,5.296,11.605,10.229,16.004c6.411,5.72,14.674,8.869,23.266,8.869h4.739c0.689,0,1.25,0.561,1.25,1.25
			C312.999,454.408,312.438,454.969,311.749,454.969z M397.49,361.702l-19.263,14.222c-1.652,1.22-2.889,2.918-3.541,4.865
			l-24.881,74.18h-16.87c0.024-0.416,0.063-0.828,0.063-1.25c0-11.718-9.532-21.25-21.25-21.25h-4.739
			c-3.676,0-7.209-1.347-9.953-3.795c-3.156-2.814-4.917-6.734-5.002-10.819c0.002-0.087,0.013-0.171,0.013-0.259
			c0-0.054-0.007-0.106-0.008-0.16c0.009-1.234,0.163-2.479,0.486-3.711l17.051-65.054c8.035-30.654-4.573-62.613-31.374-79.525
			l-26.332-16.616l13.358-24.375c7.656,14.823,23.106,24.056,39.551,24.055c1.684,0,3.38-0.097,5.077-0.295l81.694-9.502
			c2.031-0.236,4.012-0.685,5.92-1.325V361.702z"/>
	</g>
</g>
<g>
	<g>
		<path d="M414.557,56.901c-1.859-1.86-4.439-2.93-7.069-2.93c-2.631,0-5.21,1.069-7.07,2.93c-1.86,1.861-2.93,4.44-2.93,7.07
			c0,2.63,1.069,5.21,2.93,7.069c1.86,1.861,4.439,2.931,7.07,2.931c2.63,0,5.21-1.07,7.069-2.931
			c1.86-1.859,2.931-4.439,2.931-7.069C417.488,61.341,416.418,58.761,414.557,56.901z"/>
	</g>
</g>
<g>
	<g>
		<path d="M112.362,498.457l-39-103.999c-1.464-3.902-5.194-6.488-9.363-6.488H10c-5.522,0-10,4.478-10,10s4.478,10,10,10h47.07
			l36.566,97.511c1.506,4.015,5.315,6.491,9.365,6.491c1.166,0,2.353-0.206,3.51-0.64
			C111.681,509.393,114.301,503.629,112.362,498.457z"/>
	</g>
</g>
<g>
	<g>
		<path d="M510.992,161.367c-2.414-4.969-8.398-7.036-13.365-4.625l-54,26.234c-3.443,1.674-5.63,5.166-5.63,8.995v90.655
			c0,5.523,4.478,10,10,10s10-4.478,10-10V198.23l48.37-23.499C511.335,172.318,513.405,166.335,510.992,161.367z"/>
	</g>
</g>
<g>
	<g>
		<path d="M469.066,377.759c-1.859-1.87-4.439-2.931-7.069-2.931s-5.21,1.061-7.07,2.931c-1.86,1.859-2.93,4.439-2.93,7.069
			c0,2.631,1.069,5.2,2.93,7.07c1.86,1.861,4.44,2.93,7.07,2.93s5.21-1.069,7.069-2.93c1.86-1.87,2.931-4.439,2.931-7.07
			C471.997,382.198,470.927,379.618,469.066,377.759z"/>
	</g>
</g>
<g>
</g>
<g>
</g>
<g>
</g>
<g>
</g>
<g>
</g>
<g>
</g>
<g>
</g>
<g>
</g>
<g>
</g>
<g>
</g>
<g>
</g>
<g>
</g>
<g>
</g>
<g>
</g>
<g>
</g>
</svg>
