<?xml version="1.0" encoding="iso-8859-1"?>
<!-- Generator: Adobe Illustrator 19.0.0, SVG Export Plug-In . SVG Version: 6.00 Build 0)  -->
<svg version="1.1" id="Capa_1" xmlns="http://www.w3.org/2000/svg" xmlns:xlink="http://www.w3.org/1999/xlink" x="0px" y="0px"
	 viewBox="0 0 512.001 512.001" style="enable-background:new 0 0 512.001 512.001;" xml:space="preserve">
<g>
	<g>
		<path d="M510.659,496.993L398.842,303.32v-0.001l-6.849-11.863L300.709,133.35c-1.786-3.094-5.088-5-8.66-5
			c-3.572,0-6.874,1.906-8.66,5l-61.014,105.68c-0.002,0.004-0.004,0.008-0.006,0.011l-14.771,25.583l-25.176-42.168
			c-1.805-3.022-5.065-4.874-8.586-4.874c-3.521,0-6.781,1.851-8.586,4.874L1.414,496.867c-1.845,3.09-1.888,6.933-0.11,10.063
			c1.776,3.13,5.098,5.063,8.696,5.063h492c3.572,0,6.874-1.906,8.66-5C512.445,503.899,512.445,500.087,510.659,496.993z
			 M292.049,158.349l84.588,146.509l-18.49,11.258c-3.802,2.314-8.815,1.128-11.173-2.65l-29.889-47.88
			c-4.573-7.326-12.118-12.089-20.697-13.068c-1.085-0.124-2.167-0.185-3.243-0.185c-7.43,0-14.532,2.918-19.865,8.252
			c-3.184,3.184-8.363,3.184-11.547,0l-18.201-18.2L292.049,158.349z M173.834,247.089l82.889,138.827l-19.517,23.675
			c-1.918,2.328-4.631,3.743-7.638,3.985c-3.013,0.243-5.914-0.721-8.181-2.712l-40.009-35.145
			c-5.795-5.09-13.147-7.668-20.517-7.668c-6.448,0-12.911,1.975-18.349,5.968l-43.432,31.888c-4.63,3.399-9.203,1.986-10.957,1.222
			c-1.477-0.645-4.655-2.446-6.013-6.411L173.834,247.089z M82.099,491.991v0.003H27.616l43.361-72.626
			c2.612,2.502,5.684,4.579,9.153,6.091c10.259,4.475,21.769,3.19,30.787-3.433l43.432-31.888c4.147-3.045,9.964-2.792,13.832,0.605
			l40.01,35.145c5.726,5.029,12.898,7.724,20.428,7.724c0.848,0,1.7-0.034,2.556-0.103c8.45-0.681,16.073-4.658,21.464-11.199
			l14.972-18.161l52.446,87.842H82.099z M343.349,491.995v-0.001l-65.843-110.281c0-0.001-0.001-0.002-0.001-0.003l-58.166-97.423
			l13.841-23.971l14.412,14.412c10.982,10.981,28.849,10.981,39.831,0c2.423-2.423,5.235-2.507,6.699-2.338
			c2.487,0.284,4.675,1.665,6,3.789l29.888,47.88c5.319,8.52,14.554,13.223,23.976,13.222c4.986,0,10.024-1.316,14.563-4.08
			l18.092-11.016l98.04,169.811H343.349z"/>
	</g>
</g>
<g>
	<g>
		<path d="M137.261,88.568c-2.36-2.82-6.07-4.118-9.683-3.378c-13.809,2.837-27.94-1.456-37.796-11.482
			c-15.199-15.462-15.806-40.232-1.381-56.392c2.453-2.748,3.196-6.622,1.936-10.083c-1.261-3.46-4.322-5.948-7.968-6.474
			c-3.457-0.499-6.943-0.752-10.359-0.752c-39.7,0-71.998,32.298-71.998,71.998s32.298,71.998,71.998,71.998
			c29.625,0,55.871-17.786,66.866-45.31C140.242,95.278,139.621,91.389,137.261,88.568z M72.01,124.005
			c-28.672,0-51.998-23.326-51.998-51.998c0.001-25.538,18.506-46.836,42.812-51.187c-9.396,22.22-5.06,48.846,12.696,66.909
			c0,0,0,0,0.001,0c9.883,10.054,22.653,16.226,36.215,17.875C102.05,117.11,87.685,124.005,72.01,124.005z"/>
	</g>
</g>
<g>
	<g>
		<path d="M502,150.004H396.243c-0.624-2.138-0.946-4.362-0.946-6.598c0-13.038,10.607-23.644,23.645-23.644
			c2.7,0,5.355,0.456,7.894,1.354c2.531,0.897,5.315,0.732,7.729-0.445c2.412-1.178,4.25-3.281,5.1-5.828
			c0.053-0.159,0.102-0.318,0.146-0.479c6.617-23.761,28.478-40.357,53.161-40.357c2.484,0,5.061,0.183,7.657,0.542
			c5.474,0.76,10.52-3.062,11.277-8.533c0.757-5.471-3.063-10.52-8.533-11.278c-3.502-0.485-7.002-0.731-10.401-0.731
			c-30.422,0-57.699,18.509-69.299,46.011c-1.565-0.17-3.145-0.255-4.73-0.255c-24.067-0.001-43.646,19.577-43.646,43.643
			c0,7.534,1.972,14.983,5.703,21.541c1.778,3.125,5.097,5.056,8.692,5.056H502c5.522,0,10-4.477,10-10S507.521,150.004,502,150.004
			z"/>
	</g>
</g>
<g>
	<g>
		<path d="M91.336,182.003H41.999c-5.522,0-10,4.477-10,10c0,5.523,4.478,10,10,10h49.337c5.522,0,10-4.477,10-10
			C101.335,186.479,96.857,182.003,91.336,182.003z"/>
	</g>
</g>
<g>
	<g>
		<path d="M73.998,246.001H10c-5.522,0-10,4.477-10,10c0,5.523,4.478,10,10,10h63.998c5.522,0,10-4.477,10-10
			C83.998,250.478,79.52,246.001,73.998,246.001z"/>
	</g>
</g>
<g>
	<g>
		<path d="M143.929,184.933c-1.86-1.86-4.44-2.93-7.07-2.93c-2.63,0-5.21,1.07-7.069,2.93c-1.86,1.86-2.931,4.44-2.931,7.07
			c0,2.63,1.07,5.21,2.931,7.07c1.859,1.86,4.439,2.93,7.069,2.93c2.63,0,5.21-1.07,7.07-2.93c1.86-1.86,2.93-4.44,2.93-7.07
			C146.859,189.372,145.79,186.792,143.929,184.933z"/>
	</g>
</g>
<g>
	<g>
		<path d="M397.978,54.006H284.994c-5.522,0-10,4.477-10,10s4.477,10,10,10h112.984c5.522,0,10-4.477,10-10
			S403.499,54.006,397.978,54.006z"/>
	</g>
</g>
<g>
	<g>
		<path d="M253.066,56.936c-1.859-1.86-4.439-2.93-7.069-2.93c-2.631,0-5.21,1.07-7.07,2.93c-1.86,1.86-2.93,4.44-2.93,7.07
			c0,2.63,1.069,5.21,2.93,7.07c1.861,1.86,4.429,2.93,7.07,2.93c2.63,0,5.21-1.07,7.069-2.93c1.86-1.86,2.931-4.44,2.931-7.07
			C255.997,61.376,254.927,58.796,253.066,56.936z"/>
	</g>
</g>
<g>
</g>
<g>
</g>
<g>
</g>
<g>
</g>
<g>
</g>
<g>
</g>
<g>
</g>
<g>
</g>
<g>
</g>
<g>
</g>
<g>
</g>
<g>
</g>
<g>
</g>
<g>
</g>
<g>
</g>
</svg>
