<?xml version="1.0" encoding="utf-8"?>
<!-- Generator: Adobe Illustrator 22.1.0, SVG Export Plug-In . SVG Version: 6.00 Build 0)  -->
<svg version="1.1" id="Layer_1" xmlns="http://www.w3.org/2000/svg" xmlns:xlink="http://www.w3.org/1999/xlink" x="0px" y="0px"
	 viewBox="0 0 1242 2208" style="enable-background:new 0 0 1242 2208;" xml:space="preserve">
<style type="text/css">
	.st0{clip-path:url(#SVGID_2_);}
	.st1{opacity:0.3;clip-path:url(#SVGID_4_);}
	.st2{clip-path:url(#SVGID_6_);fill:#59B4D2;}
	.st3{clip-path:url(#SVGID_8_);fill:#59B4D2;}
	.st4{clip-path:url(#SVGID_10_);fill:#59B4D2;}
	.st5{clip-path:url(#SVGID_12_);fill:#59B4D2;}
	.st6{clip-path:url(#SVGID_14_);fill:#59B4D2;}
	.st7{clip-path:url(#SVGID_16_);fill:#59B4D2;}
	.st8{clip-path:url(#SVGID_18_);fill:#59B4D2;}
	.st9{clip-path:url(#SVGID_20_);fill:#59B4D2;}
	.st10{clip-path:url(#SVGID_22_);fill:#59B4D2;}
	.st11{clip-path:url(#SVGID_24_);fill:#59B4D2;}
	.st12{clip-path:url(#SVGID_26_);fill:#59B4D2;}
	.st13{clip-path:url(#SVGID_28_);fill:#59B4D2;}
	.st14{clip-path:url(#SVGID_30_);fill:#59B4D2;}
	.st15{clip-path:url(#SVGID_32_);fill:#59B4D2;}
	.st16{clip-path:url(#SVGID_34_);fill:#59B4D2;}
	.st17{clip-path:url(#SVGID_36_);fill:#59B4D2;}
	.st18{clip-path:url(#SVGID_38_);fill:#59B4D2;}
	.st19{clip-path:url(#SVGID_40_);fill:#59B4D2;}
	.st20{clip-path:url(#SVGID_42_);fill:#5CA9A1;}
	.st21{clip-path:url(#SVGID_44_);fill:#5CA9A1;}
	.st22{clip-path:url(#SVGID_46_);fill:#5CA9A1;}
</style>
<g>
	<defs>
		<rect id="SVGID_1_" width="1242" height="2208"/>
	</defs>
	<clipPath id="SVGID_2_">
		<use xlink:href="#SVGID_1_"  style="overflow:visible;"/>
	</clipPath>
	<g class="st0">
		<defs>
			<rect id="SVGID_3_" width="1242" height="2208"/>
		</defs>
		<clipPath id="SVGID_4_">
			<use xlink:href="#SVGID_3_"  style="overflow:visible;"/>
		</clipPath>
		<g class="st1">
			<g>
				<defs>
					<rect id="SVGID_5_" x="-2520.8" y="-1941.7" width="3037.6" height="3213.3"/>
				</defs>
				<clipPath id="SVGID_6_">
					<use xlink:href="#SVGID_5_"  style="overflow:visible;"/>
				</clipPath>
				<polygon class="st2" points="262,689 -1256.8,1271.7 -2520.8,247.7 -2266,-1359 -747.2,-1941.7 516.8,-917.7 				"/>
			</g>
		</g>
		<g class="st1">
			<g>
				<defs>
					<rect id="SVGID_7_" x="153.3" y="-1497.2" width="4233.4" height="4476.4"/>
				</defs>
				<clipPath id="SVGID_8_">
					<use xlink:href="#SVGID_7_"  style="overflow:visible;"/>
				</clipPath>
				<polygon class="st3" points="510,2169 153.3,-69.2 1913.3,-1497.2 4030,-687 4386.7,1551.2 2626.7,2979.2 				"/>
			</g>
		</g>
		<g class="st1">
			<g>
				<defs>
					<rect id="SVGID_9_" x="-1688.8" y="176.3" width="3037.6" height="3213.3"/>
				</defs>
				<clipPath id="SVGID_10_">
					<use xlink:href="#SVGID_9_"  style="overflow:visible;"/>
				</clipPath>
				<polygon class="st4" points="1094,2807 -424.8,3389.7 -1688.8,2365.7 -1434,759 84.8,176.3 1348.8,1200.3 				"/>
			</g>
		</g>
		<g class="st1">
			<g>
				<defs>
					<rect id="SVGID_11_" x="1183.2" y="76.3" width="3037.6" height="3213.3"/>
				</defs>
				<clipPath id="SVGID_12_">
					<use xlink:href="#SVGID_11_"  style="overflow:visible;"/>
				</clipPath>
				<polygon class="st5" points="3966,2707 2447.2,3289.7 1183.2,2265.7 1438,659 2956.8,76.3 4220.8,1100.3 				"/>
			</g>
		</g>
		<g class="st1">
			<g>
				<defs>
					<rect id="SVGID_13_" x="-1284.8" y="-2543.7" width="3037.6" height="3213.3"/>
				</defs>
				<clipPath id="SVGID_14_">
					<use xlink:href="#SVGID_13_"  style="overflow:visible;"/>
				</clipPath>
				<polygon class="st6" points="1498,87 -20.8,669.7 -1284.8,-354.3 -1030,-1961 488.8,-2543.7 1752.8,-1519.7 				"/>
			</g>
		</g>
		<g class="st1">
			<g>
				<defs>
					<rect id="SVGID_15_" x="-1200.8" y="-811.7" width="3037.6" height="3213.3"/>
				</defs>
				<clipPath id="SVGID_16_">
					<use xlink:href="#SVGID_15_"  style="overflow:visible;"/>
				</clipPath>
				<polygon class="st7" points="1582,1819 63.2,2401.7 -1200.8,1377.7 -946,-229 572.8,-811.7 1836.8,212.3 				"/>
			</g>
		</g>
		<g class="st1">
			<g>
				<defs>
					<rect id="SVGID_17_" x="-148.8" y="-1743.7" width="3037.6" height="3213.3"/>
				</defs>
				<clipPath id="SVGID_18_">
					<use xlink:href="#SVGID_17_"  style="overflow:visible;"/>
				</clipPath>
				<polygon class="st8" points="2634,887 1115.2,1469.7 -148.8,445.7 106,-1161 1624.8,-1743.7 2888.8,-719.7 				"/>
			</g>
		</g>
		<g class="st1">
			<g>
				<defs>
					<rect id="SVGID_19_" x="-2560.8" y="1136.3" width="3037.6" height="3213.3"/>
				</defs>
				<clipPath id="SVGID_20_">
					<use xlink:href="#SVGID_19_"  style="overflow:visible;"/>
				</clipPath>
				<polygon class="st9" points="222,3767 -1296.8,4349.7 -2560.8,3325.7 -2306,1719 -787.2,1136.3 476.8,2160.3 				"/>
			</g>
		</g>
		<g class="st1">
			<g>
				<defs>
					<rect id="SVGID_21_" x="-1284.8" y="584.3" width="3037.6" height="3213.3"/>
				</defs>
				<clipPath id="SVGID_22_">
					<use xlink:href="#SVGID_21_"  style="overflow:visible;"/>
				</clipPath>
				<polygon class="st10" points="1498,3215 -20.8,3797.7 -1284.8,2773.7 -1030,1167 488.8,584.3 1752.8,1608.3 				"/>
			</g>
		</g>
		<g class="st1">
			<g>
				<defs>
					<rect id="SVGID_23_" x="-1072.8" y="-2279.7" width="3037.6" height="3213.3"/>
				</defs>
				<clipPath id="SVGID_24_">
					<use xlink:href="#SVGID_23_"  style="overflow:visible;"/>
				</clipPath>
				<polygon class="st11" points="1710,351 191.2,933.7 -1072.8,-90.3 -818,-1697 700.8,-2279.7 1964.8,-1255.7 				"/>
			</g>
		</g>
		<g class="st1">
			<g>
				<defs>
					<rect id="SVGID_25_" x="483.2" y="-595.7" width="3037.6" height="3213.3"/>
				</defs>
				<clipPath id="SVGID_26_">
					<use xlink:href="#SVGID_25_"  style="overflow:visible;"/>
				</clipPath>
				<polygon class="st12" points="3266,2035 1747.2,2617.7 483.2,1593.7 738,-13 2256.8,-595.7 3520.8,428.3 				"/>
			</g>
		</g>
		<g class="st1">
			<g>
				<defs>
					<rect id="SVGID_27_" x="-2288.8" y="524.3" width="3037.6" height="3213.3"/>
				</defs>
				<clipPath id="SVGID_28_">
					<use xlink:href="#SVGID_27_"  style="overflow:visible;"/>
				</clipPath>
				<polygon class="st13" points="494,3155 -1024.8,3737.7 -2288.8,2713.7 -2034,1107 -515.2,524.3 748.8,1548.3 				"/>
			</g>
		</g>
		<g class="st1">
			<g>
				<defs>
					<rect id="SVGID_29_" x="-1041.8" y="-543.7" width="3037.6" height="3213.3"/>
				</defs>
				<clipPath id="SVGID_30_">
					<use xlink:href="#SVGID_29_"  style="overflow:visible;"/>
				</clipPath>
				<polygon class="st14" points="1741,2087 222.2,2669.7 -1041.8,1645.7 -787,39 731.8,-543.7 1995.8,480.3 				"/>
			</g>
		</g>
		<g class="st1">
			<g>
				<defs>
					<rect id="SVGID_31_" x="543.2" y="1192.3" width="3037.6" height="3213.3"/>
				</defs>
				<clipPath id="SVGID_32_">
					<use xlink:href="#SVGID_31_"  style="overflow:visible;"/>
				</clipPath>
				<polygon class="st15" points="3326,3823 1807.2,4405.7 543.2,3381.7 798,1775 2316.8,1192.3 3580.8,2216.3 				"/>
			</g>
		</g>
		<g class="st1">
			<g>
				<defs>
					<rect id="SVGID_33_" x="-2396.8" y="-351.7" width="3037.6" height="3213.3"/>
				</defs>
				<clipPath id="SVGID_34_">
					<use xlink:href="#SVGID_33_"  style="overflow:visible;"/>
				</clipPath>
				<polygon class="st16" points="386,2279 -1132.8,2861.7 -2396.8,1837.7 -2142,231 -623.2,-351.7 640.8,672.3 				"/>
			</g>
		</g>
		<g class="st1">
			<g>
				<defs>
					<rect id="SVGID_35_" x="995.2" y="-1430.7" width="3037.6" height="3213.3"/>
				</defs>
				<clipPath id="SVGID_36_">
					<use xlink:href="#SVGID_35_"  style="overflow:visible;"/>
				</clipPath>
				<polygon class="st17" points="3778,1200 2259.2,1782.7 995.2,758.7 1250,-848 2768.8,-1430.7 4032.8,-406.7 				"/>
			</g>
		</g>
		<g class="st1">
			<g>
				<defs>
					<rect id="SVGID_37_" x="259.2" y="1340.3" width="3037.6" height="3213.3"/>
				</defs>
				<clipPath id="SVGID_38_">
					<use xlink:href="#SVGID_37_"  style="overflow:visible;"/>
				</clipPath>
				<polygon class="st18" points="3042,3971 1523.2,4553.7 259.2,3529.7 514,1923 2032.8,1340.3 3296.8,2364.3 				"/>
			</g>
		</g>
		<g class="st1">
			<g>
				<defs>
					<rect id="SVGID_39_" x="-1164.8" y="1114.3" width="3037.6" height="3213.3"/>
				</defs>
				<clipPath id="SVGID_40_">
					<use xlink:href="#SVGID_39_"  style="overflow:visible;"/>
				</clipPath>
				<polygon class="st19" points="1618,3745 99.2,4327.7 -1164.8,3303.7 -910,1697 608.8,1114.3 1872.8,2138.3 				"/>
			</g>
		</g>
		<g class="st1">
			<g>
				<defs>
					<rect id="SVGID_41_" x="-1893.6" y="794.8" width="3135.2" height="3334.3"/>
				</defs>
				<clipPath id="SVGID_42_">
					<use xlink:href="#SVGID_41_"  style="overflow:visible;"/>
				</clipPath>
				<polygon class="st20" points="994,3510 -573.6,4129.2 -1893.6,3081.2 -1646,1414 -78.4,794.9 1241.6,1842.8 				"/>
			</g>
		</g>
		<g class="st1">
			<g>
				<defs>
					<rect id="SVGID_43_" x="521.4" y="-680.1" width="3135.2" height="3334.3"/>
				</defs>
				<clipPath id="SVGID_44_">
					<use xlink:href="#SVGID_43_"  style="overflow:visible;"/>
				</clipPath>
				<polygon class="st21" points="3409,2035 1841.4,2654.2 521.4,1606.2 769,-61 2336.6,-680.1 3656.6,367.8 				"/>
			</g>
		</g>
		<g class="st1">
			<g>
				<defs>
					<rect id="SVGID_45_" x="-1669.6" y="-1551.1" width="3135.2" height="3334.3"/>
				</defs>
				<clipPath id="SVGID_46_">
					<use xlink:href="#SVGID_45_"  style="overflow:visible;"/>
				</clipPath>
				<polygon class="st22" points="1218,1164 -349.6,1783.2 -1669.6,735.2 -1422,-932 145.6,-1551.1 1465.6,-503.1 				"/>
			</g>
		</g>
	</g>
</g>
</svg>
