<?xml version="1.0" encoding="iso-8859-1"?>
<!-- Generator: Adobe Illustrator 19.0.0, SVG Export Plug-In . SVG Version: 6.00 Build 0)  -->
<svg version="1.1" id="Capa_1" xmlns="http://www.w3.org/2000/svg" xmlns:xlink="http://www.w3.org/1999/xlink" x="0px" y="0px"
	 viewBox="0 0 512 512" style="enable-background:new 0 0 512 512;" xml:space="preserve">
<path style="fill:#303C42;" d="M469.333,128v-21.333c0-23.531-19.135-42.667-42.667-42.667H85.333
	c-23.531,0-42.667,19.135-42.667,42.667V128C19.135,128,0,147.135,0,170.667v234.667C0,428.865,19.135,448,42.667,448h110.219
	c21.604,0,40.927-12.885,49.229-32.823l4.102-9.844h99.568l4.102,9.844C318.188,435.115,337.51,448,359.115,448h110.219
	C492.865,448,512,428.865,512,405.333V170.667C512,147.135,492.865,128,469.333,128z"/>
<g>
	<path style="fill:#8D6E63;" d="M64,106.667c0-11.76,9.573-21.333,21.333-21.333h341.333c11.76,0,21.333,9.573,21.333,21.333V128H64
		V106.667z"/>
	<path style="fill:#8D6E63;" d="M215.104,384l21.198-50.875C239.625,325.156,247.365,320,256,320
		c8.635,0,16.375,5.156,19.698,13.125L296.896,384H215.104z"/>
</g>
<path style="opacity:0.2;enable-background:new    ;" d="M215.104,384l21.198-50.875C239.625,325.156,247.365,320,256,320
	c8.635,0,16.375,5.156,19.698,13.125L296.896,384H215.104z"/>
<path style="opacity:0.1;enable-background:new    ;" d="M236.302,352.68c3.323-7.969,11.063-13.125,19.698-13.125
	c8.635,0,16.375,5.156,19.698,13.125L288.749,384h8.147l-21.198-50.875C272.375,325.156,264.635,320,256,320
	c-8.635,0-16.375,5.156-19.698,13.125L215.104,384h8.148L236.302,352.68z"/>
<path style="fill:#A1887F;" d="M490.667,405.333c0,11.76-9.573,21.333-21.333,21.333H359.115c-12.958,0-24.552-7.729-29.542-19.698
	l-34.188-82.052c-6.646-15.948-22.104-26.25-39.385-26.25s-32.74,10.302-39.385,26.25l-34.188,82.052
	c-4.99,11.969-16.583,19.698-29.542,19.698H42.667c-11.76,0-21.333-9.573-21.333-21.333V170.667c0-11.76,9.573-21.333,21.333-21.333
	h426.667c11.76,0,21.333,9.573,21.333,21.333V405.333z"/>
<path style="opacity:0.2;fill:#FFFFFF;enable-background:new    ;" d="M64,170.667h426.667c0-11.76-9.573-21.333-21.333-21.333
	H42.667c-11.76,0-21.333,9.573-21.333,21.333v234.667c0,11.76,9.573,21.333,21.333,21.333V192
	C42.667,180.24,52.24,170.667,64,170.667z"/>
<circle style="fill:#303C42;" cx="128" cy="277.333" r="64"/>
<circle style="fill:#8D6E63;" cx="128" cy="277.333" r="42.667"/>
<circle style="fill:#303C42;" cx="384" cy="277.333" r="64"/>
<circle style="fill:#8D6E63;" cx="384" cy="277.333" r="42.667"/>
<linearGradient id="SVGID_1_" gradientUnits="userSpaceOnUse" x1="-42.5163" y1="634.3295" x2="-38.8899" y2="632.6393" gradientTransform="matrix(21.3333 0 0 -21.3333 996.3334 13791.667)">
	<stop  offset="0" style="stop-color:#FFFFFF;stop-opacity:0.2"/>
	<stop  offset="1" style="stop-color:#FFFFFF;stop-opacity:0"/>
</linearGradient>
<circle style="fill:url(#SVGID_1_);" cx="128" cy="277.333" r="42.667"/>
<linearGradient id="SVGID_2_" gradientUnits="userSpaceOnUse" x1="-30.5163" y1="634.3295" x2="-26.8899" y2="632.6393" gradientTransform="matrix(21.3333 0 0 -21.3333 996.3334 13791.667)">
	<stop  offset="0" style="stop-color:#FFFFFF;stop-opacity:0.2"/>
	<stop  offset="1" style="stop-color:#FFFFFF;stop-opacity:0"/>
</linearGradient>
<circle style="fill:url(#SVGID_2_);" cx="384" cy="277.333" r="42.667"/>
<linearGradient id="SVGID_3_" gradientUnits="userSpaceOnUse" x1="-46.4402" y1="639.4915" x2="-22.1741" y2="628.1754" gradientTransform="matrix(21.3333 0 0 -21.3333 996.3334 13791.667)">
	<stop  offset="0" style="stop-color:#FFFFFF;stop-opacity:0.2"/>
	<stop  offset="1" style="stop-color:#FFFFFF;stop-opacity:0"/>
</linearGradient>
<path style="fill:url(#SVGID_3_);" d="M469.333,128v-21.333c0-23.531-19.135-42.667-42.667-42.667H85.333
	c-23.531,0-42.667,19.135-42.667,42.667V128C19.135,128,0,147.135,0,170.667v234.667C0,428.865,19.135,448,42.667,448h110.219
	c21.604,0,40.927-12.885,49.229-32.823l4.102-9.844h99.568l4.102,9.844C318.188,435.115,337.51,448,359.115,448h110.219
	C492.865,448,512,428.865,512,405.333V170.667C512,147.135,492.865,128,469.333,128z"/>
<g>
</g>
<g>
</g>
<g>
</g>
<g>
</g>
<g>
</g>
<g>
</g>
<g>
</g>
<g>
</g>
<g>
</g>
<g>
</g>
<g>
</g>
<g>
</g>
<g>
</g>
<g>
</g>
<g>
</g>
</svg>
