<?xml version="1.0" encoding="utf-8"?>
<!-- Generator: Adobe Illustrator 22.0.1, SVG Export Plug-In . SVG Version: 6.00 Build 0)  -->
<svg version="1.1" id="Layer_1" xmlns="http://www.w3.org/2000/svg" xmlns:xlink="http://www.w3.org/1999/xlink" x="0px" y="0px"
	 viewBox="0 0 512 512" style="enable-background:new 0 0 512 512;" xml:space="preserve">
<style type="text/css">
	.st0{fill:#505050;}
</style>
<g>
	<g>
		<path class="st0" d="M145,230.4H85.3c-4.7,0-8.5,3.8-8.5,8.5v85.3c0,4.7,3.8,8.5,8.5,8.5H145c4.7,0,8.5-3.8,8.5-8.5v-85.3
			C153.6,234.2,149.8,230.4,145,230.4z M136.5,315.7H93.9v-68.3h42.7L136.5,315.7L136.5,315.7z"/>
	</g>
</g>
<g>
	<g>
		<path class="st0" d="M290.1,230.4h-59.7c-4.7,0-8.5,3.8-8.5,8.5v85.3c0,4.7,3.8,8.5,8.5,8.5h59.7c4.7,0,8.5-3.8,8.5-8.5v-85.3
			C298.6,234.2,294.8,230.4,290.1,230.4z M281.6,315.7h-42.7v-68.3h42.7V315.7z"/>
	</g>
</g>
<g>
	<g>
		<path class="st0" d="M290.1,366.9h-59.7c-4.7,0-8.5,3.8-8.5,8.5v85.3c0,4.7,3.8,8.5,8.5,8.5h59.7c4.7,0,8.5-3.8,8.5-8.5v-85.3
			C298.6,370.7,294.8,366.9,290.1,366.9z M281.6,452.2h-42.7V384h42.7V452.2z"/>
	</g>
</g>
<g>
	<g>
		<path class="st0" d="M426.6,230.4h-59.7c-4.7,0-8.5,3.8-8.5,8.5v85.3c0,4.7,3.8,8.5,8.5,8.5h59.7c4.7,0,8.5-3.8,8.5-8.5v-85.3
			C435.1,234.2,431.3,230.4,426.6,230.4z M418.1,315.7h-42.7v-68.3h42.7V315.7z"/>
	</g>
</g>
<g>
	<g>
		<path class="st0" d="M145,366.9H85.3c-4.7,0-8.5,3.8-8.5,8.5v85.3c0,4.7,3.8,8.5,8.5,8.5H145c4.7,0,8.5-3.8,8.5-8.5v-85.3
			C153.6,370.7,149.8,366.9,145,366.9z M136.5,452.2H93.9V384h42.7L136.5,452.2L136.5,452.2z"/>
	</g>
</g>
<g>
	<g>
		<path class="st0" d="M426.6,366.9h-59.7c-4.7,0-8.5,3.8-8.5,8.5v85.3c0,4.7,3.8,8.5,8.5,8.5h59.7c4.7,0,8.5-3.8,8.5-8.5v-85.3
			C435.1,370.7,431.3,366.9,426.6,366.9z M418.1,452.2h-42.7V384h42.7V452.2z"/>
	</g>
</g>
<g>
	<g>
		<path class="st0" d="M477.8,494.9V204.8h8.5c4.7,0,8.5-3.8,8.5-8.5v-42.7c0-4.7-3.8-8.5-8.5-8.5h-8.5V111c0-4.7-3.8-8.5-8.5-8.5
			h-17.1V8.6c0-4.7-3.8-8.5-8.5-8.5H68.3c-4.7,0-8.5,3.8-8.5,8.5v93.9H42.7c-4.7,0-8.5,3.8-8.5,8.5v34.1h-8.5
			c-4.7,0-8.5,3.8-8.5,8.5v42.7c0,4.7,3.8,8.5,8.5,8.5h8.5v290.1H0V512h42.7h426.6H512v-17.1H477.8L477.8,494.9z M76.8,17.1h358.3
			v85.3H76.8V17.1z M51.2,119.5h17.1h375.4h17.1v25.6H51.2V119.5z M460.7,494.9H51.2V204.8h409.5V494.9L460.7,494.9z M42.7,187.7
			h-8.5v-25.6h8.5h426.6h8.5v25.6h-8.5H42.7L42.7,187.7z"/>
	</g>
</g>
<g>
	<g>
		<path class="st0" d="M242.9,46.3c-1.4-3.5-3.3-6.5-5.7-9c-2.5-2.5-5.4-4.5-8.9-5.9c-3.5-1.4-7.3-2.1-11.5-2.1s-8,0.7-11.5,2.1
			c-3.5,1.4-6.4,3.4-8.9,5.9s-4.4,5.5-5.7,9c-1.4,3.5-2,7.2-2,11.3s0.7,7.8,2,11.3c1.4,3.5,3.3,6.5,5.7,9c2.5,2.5,5.4,4.5,8.9,5.9
			s7.3,2.1,11.5,2.1s8-0.7,11.5-2.1s6.4-3.4,8.9-5.9s4.4-5.5,5.7-9c1.4-3.5,2-7.2,2-11.3S244.2,49.8,242.9,46.3z M233.1,65.8
			c-0.8,2.4-2,4.5-3.5,6.1c-1.5,1.7-3.3,3-5.5,3.9s-4.6,1.3-7.3,1.3s-5.2-0.4-7.3-1.3c-2.2-0.9-4-2.2-5.5-3.9
			c-1.5-1.7-2.7-3.7-3.5-6.1c-0.8-2.4-1.2-5.2-1.2-8.2s0.4-5.8,1.2-8.2s2-4.5,3.5-6.2s3.4-3,5.5-3.9c2.2-0.9,4.6-1.3,7.3-1.3
			s5.2,0.4,7.3,1.3s4,2.2,5.5,3.9s2.7,3.7,3.5,6.2c0.8,2.4,1.2,5.2,1.2,8.2S233.9,63.4,233.1,65.8z"/>
	</g>
</g>
<g>
	<g>
		<polygon class="st0" points="170,29.8 170,53.7 144,53.7 144,29.8 133.6,29.8 133.6,85.4 144,85.4 144,61.1 170,61.1 170,85.4 
			180.4,85.4 180.4,29.8 		"/>
	</g>
</g>
<g>
	<g>
		<polygon class="st0" points="350,76.8 350,29.8 339.7,29.8 339.7,85.4 372.2,85.4 372.2,76.8 		"/>
	</g>
</g>
<g>
	<g>
		<polygon class="st0" points="245.4,29.8 245.4,38.3 262.1,38.3 262.1,85.4 272.5,85.4 272.5,38.3 289.2,38.3 289.2,29.8 		"/>
	</g>
</g>
<g>
	<g>
		<polygon class="st0" points="330.7,38.1 330.7,29.8 295.7,29.8 295.7,85.4 330.7,85.4 330.7,77.1 306.1,77.1 306.1,61.4 
			325.5,61.4 325.5,53.5 306.1,53.5 306.1,38.1 		"/>
	</g>
</g>
</svg>
