<?xml version="1.0" encoding="utf-8"?>
<!-- Generator: Adobe Illustrator 22.0.1, SVG Export Plug-In . SVG Version: 6.00 Build 0)  -->
<svg version="1.1" id="Layer_1" xmlns="http://www.w3.org/2000/svg" xmlns:xlink="http://www.w3.org/1999/xlink" x="0px" y="0px"
	 viewBox="0 0 300 300" style="enable-background:new 0 0 300 300;" xml:space="preserve">
<style type="text/css">
	.st0{fill:#505050;}
</style>
<g>
	<g>
		<g>
			<path class="st0" d="M59.7,110l-6.4-11.6c-6.7,3.7-13.3,7.8-19.5,12.3l7.7,10.7C47.4,117.3,53.5,113.5,59.7,110z"/>
			<path class="st0" d="M99.4,94.1L96,81.3c-7.4,2-14.7,4.4-21.8,7.3l4.9,12.3C85.7,98.2,92.5,95.9,99.4,94.1z"/>
			<path class="st0" d="M230.5,95.1c-6.8-3.4-14-6.5-21.2-9l-4.4,12.5c6.7,2.4,13.4,5.2,19.7,8.4L230.5,95.1z"/>
			<path class="st0" d="M285.5,136.5l-9.7,8.9c4.8,5.3,9.4,10.9,13.5,16.6l10.7-7.7C295.5,148.2,290.6,142.1,285.5,136.5z"/>
			<path class="st0" d="M243.2,117.7c5.9,3.9,11.7,8.3,17.1,12.9l8.6-10.1c-5.8-5-12-9.6-18.4-13.9L243.2,117.7z"/>
			<path class="st0" d="M0,141.8l10.1,8.6c4.6-5.4,9.6-10.6,14.9-15.4l-8.9-9.7C10.4,130.4,5,136,0,141.8z"/>
			<path class="st0" d="M106.3,100.2h6.6L121,88l25.9,0.2l-11.6,40c0,1.2,0.9,2.1,2.1,2.1h10.7L170.4,89l20.4,0.7
				c5.8,0,10.5-4.5,10.5-10s-4.7-9.9-10.5-9.9l-20.6,0.7l-22.1-41h-10.7c-1.2,0-2.1,1-2.1,2.1l11.5,39.7l-26,0.2l-7.9-12h-6.6
				c-0.9,0-1.6,0.7-1.6,1.6v37.6C104.7,99.5,105.4,100.2,106.3,100.2z"/>
			<path class="st0" d="M171.3,150.6c-8.7-2-17.5-3-26.3-3c-55.4,0-102.6,37.8-114.9,91.8c-2.4,10.4-3.3,20.8-2.9,31.2h13.2l0,0
				c-0.4-9.4,0.4-18.8,2.5-28.2c4.3,1.1,23.7,6.5,23.1,12.7c-0.5,5.2-2.2,11.2-0.8,15.5h12.2c1.7-1.2,3.3-1.8,4.9-0.1l0.1,0.1h96.1
				c-22.6-14.4-25.8-39.8-25.8-39.8c-1.6-0.7,3-18.8-4.1-20.9c-7.1-2.2-11.6-0.4-21.7-4.9s-6.3-10.8-4.7-25.8
				c0.7-6.4,2.3-12.1,4.4-16.6c6-1.1,12.2-1.6,18.4-1.6c7.8,0,15.7,0.9,23.4,2.6c27.3,6.2,50.5,22.7,65.4,46.4
				c11.2,17.9,16.7,38.2,16.1,58.8c-0.9,0.6-1.8,1.3-2.8,1.9H263c1-23.7-5.1-47.2-18-67.8C228.2,176.2,202.1,157.6,171.3,150.6z"/>
		</g>
	</g>
</g>
</svg>
