<?xml version="1.0" encoding="utf-8"?>
<!-- Generator: Adobe Illustrator 22.0.1, SVG Export Plug-In . SVG Version: 6.00 Build 0)  -->
<svg version="1.1" id="Layer_1" xmlns="http://www.w3.org/2000/svg" xmlns:xlink="http://www.w3.org/1999/xlink" x="0px" y="0px"
	 viewBox="0 0 475.1 475.1" style="enable-background:new 0 0 475.1 475.1;" xml:space="preserve">
<style type="text/css">
	.st0{fill:#505050;}
</style>
<g>
	<path class="st0" d="M384.6,427.1h-8.1c-20.4-33.7-37.7-68.4-51.8-104.1h2c4.4,0,8-3.6,8-8v-32c0-4.4-3.6-8-8-8h-18.9
		c-7.3-23.5-13.3-47.4-18.1-71.9h6.8c4.4,0,8-3.6,8-8v-30.9c0-4.4-3.6-8-8-8h-14.4c-3.5-27.4-5.6-55.5-6.3-84.4
		c0-0.6-0.1-1.2-0.2-1.7V40c0-4.4-3.6-8-8-8h-20V8c0-4.4-3.6-8-8-8s-8,3.6-8,8v24h-20c-4.4,0-8,3.6-8,8v30.1
		c-0.1,0.6-0.2,1.1-0.2,1.7c-0.6,28.9-2.7,57-6.3,84.4h-15.3c-4.4,0-8,3.6-8,8v30.9c0,4.4,3.6,8,8,8h7.7
		c-4.8,24.5-10.8,48.4-18.1,71.9h-19.8c-4.4,0-8,3.6-8,8v32c0,4.4,3.6,8,8,8h2.9c-14.1,35.7-31.4,70.4-51.8,104.1h-8.1
		c-4.4,0-8,3.6-8,8v32c0,4.4,3.6,8,8,8h92.5c4.4,0,8-3.6,8-8v-32c0-4.4-3.6-8-8-8h-2.4c1.4-40.6,25.9-73.1,55.9-73.1
		s54.5,32.5,55.9,73.1h-4.4c-4.4,0-8,3.6-8,8v32c0,4.4,3.6,8,8,8h92.5c4.4,0,8-3.6,8-8v-32C392.6,430.7,389,427.1,384.6,427.1z
		 M219.6,48h40v16h-40V48L219.6,48z M219.1,80H260c0.8,26,2.8,51.4,5.9,76.2h-52.7C216.3,131.4,218.3,106,219.1,80z M189.8,172.2
		h98.7v14.9h-98.7V172.2L189.8,172.2z M205.8,203.1h67.5c4.7,24.5,10.6,48.4,17.7,71.9h-21.4v-9.7c0-16.7-13.6-30.3-30.3-30.3h-0.4
		c-16.7,0-30.3,13.6-30.3,30.3v9.7h-20.5C195.2,251.5,201.1,227.6,205.8,203.1z M253.6,275h-29v-9.7c0-7.9,6.4-14.3,14.3-14.3h0.4
		c7.9,0,14.3,6.4,14.3,14.3V275L253.6,275z M159.6,291h57h45h57v16h-159V291z M179.1,459.1h-76.5v-16h4.6h69.4h2.4L179.1,459.1
		L179.1,459.1z M292.2,366c-13.6-18.1-32-28-51.6-28s-38,9.9-51.6,28c-12.5,16.5-19.6,38.1-20.3,61.1h-47.3
		c19.8-33.8,36.6-68.4,50.4-104.1h135.7c13.8,35.7,30.5,70.4,50.4,104.1h-45.3C311.8,404.1,304.7,382.5,292.2,366z M376.6,459.1
		h-76.5v-16h4.4h67.4l0,0h4.6L376.6,459.1L376.6,459.1z"/>
	<path class="st0" d="M75.9,87.1c1.5,1.5,3.5,2.3,5.7,2.3s4.2-0.8,5.7-2.3c5.2-5.2,12-8,19.3-8s14.2,2.8,19.3,8
		c3.1,3.1,8.2,3.1,11.3,0s3.1-8.2,0-11.3c-8.2-8.2-19.1-12.7-30.7-12.7c-9.1,0-17.7,2.8-25,7.9c-7.3-5.1-15.9-7.9-25-7.9
		c-11.6,0-22.5,4.5-30.7,12.7c-3.1,3.1-3.1,8.2,0,11.3c3.1,3.1,8.2,3.1,11.3,0c5.2-5.2,12-8,19.3-8S70.7,82,75.9,87.1z"/>
	<path class="st0" d="M109.6,140.5c2.1,0,4.2-0.8,5.7-2.3c5.2-5.2,12-8,19.3-8c7.3,0,14.2,2.8,19.3,8c3.1,3.1,8.2,3.1,11.3,0
		s3.1-8.2,0-11.3c-8.2-8.2-19.1-12.7-30.7-12.7c-9.1,0-17.7,2.8-25,7.9c-7.3-5.1-15.9-7.9-25-7.9c-11.6,0-22.5,4.5-30.7,12.7
		c-3.1,3.1-3.1,8.2,0,11.3s8.2,3.1,11.3,0c5.2-5.2,12-8,19.3-8s14.2,2.8,19.3,8C105.4,139.6,107.4,140.5,109.6,140.5z"/>
	<path class="st0" d="M449.2,208.5c-8.2-8.2-19.1-12.7-30.7-12.7c-9.1,0-17.7,2.8-25,7.9c-7.3-5.1-15.9-7.9-25-7.9
		c-11.6,0-22.5,4.5-30.7,12.7c-3.1,3.1-3.1,8.2,0,11.3s8.2,3.1,11.3,0c5.2-5.2,12-8,19.3-8s14.2,2.8,19.3,8c1.5,1.5,3.5,2.3,5.7,2.3
		s4.2-0.8,5.7-2.3c5.2-5.2,12-8,19.3-8s14.2,2.8,19.3,8c3.1,3.1,8.2,3.1,11.3,0C452.3,216.7,452.3,211.6,449.2,208.5z"/>
</g>
</svg>
