<?xml version="1.0" encoding="utf-8"?>
<!-- Generator: Adobe Illustrator 22.0.1, SVG Export Plug-In . SVG Version: 6.00 Build 0)  -->
<svg version="1.1" id="Layer_1" xmlns="http://www.w3.org/2000/svg" xmlns:xlink="http://www.w3.org/1999/xlink" x="0px" y="0px"
	 viewBox="0 0 512 512" style="enable-background:new 0 0 512 512;" xml:space="preserve">
<style type="text/css">
	.st0{fill:#505050;}
</style>
<g>
	<g>
		<path class="st0" d="M0,96v320h512V96H0z M490.6,394.7H21.3V117.3h469.3L490.6,394.7L490.6,394.7z"/>
	</g>
</g>
<g>
	<g>
		<path class="st0" d="M437.3,138.7H74.6c0,17.7-14.3,32-32,32v170.7c17.7,0,32,14.3,32,32h362.7c0-17.7,14.3-32,32-32V170.7
			C451.7,170.7,437.3,156.3,437.3,138.7z M448,324.4c-12.3,5.4-22.2,15.3-27.5,27.5h-329c-5.4-12.3-15.2-22.2-27.5-27.5V187.5
			c12.3-5.4,22.2-15.3,27.5-27.5h328.9c5.4,12.3,15.2,22.2,27.5,27.5v136.9H448z"/>
	</g>
</g>
<g>
	<g>
		<polygon class="st0" points="207.3,198.6 175.8,293.3 144.6,198.6 122.8,198.6 165,318.7 186,318.7 228.7,198.6 		"/>
	</g>
</g>
<g>
	<g>
		<rect x="249.1" y="198.6" class="st0" width="20.4" height="120"/>
	</g>
</g>
<g>
	<g>
		<path class="st0" d="M382.2,208.3c-6.4-6.4-15.9-9.7-28.1-9.7h-52.9v120h20.4v-47H354h0.6c11.9,0,21.2-3.2,27.5-9.6
			c6.4-6.5,9.7-15.5,9.7-26.9C391.8,223.8,388.6,214.7,382.2,208.3z M366.3,249.1c-3.4,3.1-9,4.7-16.6,4.7c-0.2,0-0.5,0-0.7,0h-27.4
			v-37.1H349c8,0,13.9,1.6,17.4,4.8c3.5,3.1,5.2,7.6,5.2,13.8C371.5,241.3,369.8,245.9,366.3,249.1z"/>
	</g>
</g>
</svg>
