<?xml version="1.0" encoding="utf-8"?>
<!-- Generator: Adobe Illustrator 22.0.1, SVG Export Plug-In . SVG Version: 6.00 Build 0)  -->
<svg version="1.1" id="Capa_1" xmlns="http://www.w3.org/2000/svg" xmlns:xlink="http://www.w3.org/1999/xlink" x="0px" y="0px"
	 viewBox="0 0 32 32" style="enable-background:new 0 0 32 32;" xml:space="preserve">
<style type="text/css">
	.st0{fill:#505050;}
</style>
<g>
	<g id="denied">
		<path class="st0" d="M16,0C7.2,0,0,7.2,0,16s7.2,16,16,16s16-7.2,16-16S24.8,0,16,0z M16,4c2.6,0,5,0.8,6.9,2.2L6.2,22.9
			C4.8,21,4,18.6,4,16C4,9.4,9.4,4,16,4z M16,28c-2.6,0-5-0.8-6.9-2.2L25.8,9.1c1.4,2,2.2,4.3,2.2,6.9C28,22.6,22.6,28,16,28z"/>
	</g>
</g>
</svg>
