<?xml version="1.0" encoding="utf-8"?>
<!-- Generator: Adobe Illustrator 22.0.1, SVG Export Plug-In . SVG Version: 6.00 Build 0)  -->
<svg version="1.1" id="Capa_1" xmlns="http://www.w3.org/2000/svg" xmlns:xlink="http://www.w3.org/1999/xlink" x="0px" y="0px"
	 viewBox="0 0 61.2 61.2" style="enable-background:new 0 0 61.2 61.2;" xml:space="preserve">
<style type="text/css">
	.st0{fill:#505050;}
</style>
<g>
	<path class="st0" d="M30.9,26.6c3.9,0,7-3.1,7-7s-3.1-7-7-7s-7,3.1-7,7S27.1,26.6,30.9,26.6z M30.9,14.6c2.8,0,5,2.2,5,5
		s-2.2,5-5,5s-5-2.2-5-5S28.2,14.6,30.9,14.6z"/>
	<path class="st0" d="M50.2,37.6H43l3-4.4c5.8-7.7,4.9-20.3-1.8-27c-3.6-3.6-8.4-5.6-13.6-5.6c-5.1,0-9.9,2-13.6,5.6
		c-6.7,6.7-7.5,19.3-1.8,27l3.1,4.4H11l-11,23h61.2L50.2,37.6z M17,32c-5.2-6.9-4.5-18.3,1.6-24.4c3.2-3.2,7.6-5,12.1-5
		s8.9,1.8,12.1,5c6,6,6.8,17.4,1.6,24.4L30.8,51.8l-9.9-14.2l0,0L17,32z M12.2,39.6h7.6l10.9,15.8l10.9-15.8H49l9,19H3.2L12.2,39.6z
		"/>
</g>
</svg>
