<?xml version="1.0" encoding="utf-8"?>
<!-- Generator: Adobe Illustrator 22.0.1, SVG Export Plug-In . SVG Version: 6.00 Build 0)  -->
<svg version="1.1" id="Layer_1" xmlns="http://www.w3.org/2000/svg" xmlns:xlink="http://www.w3.org/1999/xlink" x="0px" y="0px"
	 viewBox="0 0 512 512" style="enable-background:new 0 0 512 512;" xml:space="preserve">
<style type="text/css">
	.st0{fill:#505050;}
</style>
<g>
	<g>
		<path class="st0" d="M446.8,440.4c-4.8,0-8.7,3.9-8.7,8.7v45.4H73.9V17.4h266.5l97.7,97.7v288.7c0,4.8,3.9,8.7,8.7,8.7
			c4.8,0,8.7-3.9,8.7-8.7V111.5c0-2.3-0.9-4.5-2.5-6.2L350.2,2.6C348.5,0.9,346.3,0,344,0H65.2c-4.8,0-8.7,3.9-8.7,8.7v494.6
			c0,4.8,3.9,8.7,8.7,8.7h381.7c4.8,0,8.7-3.9,8.7-8.7v-54.2C455.5,444.3,451.6,440.4,446.8,440.4z"/>
	</g>
</g>
<g>
	<g>
		<path class="st0" d="M341.3,164.1H234.7c-4.8,0-8.7,3.9-8.7,8.7s3.9,8.7,8.7,8.7h58.1v245.3h-73.5V255.4c0-4.8-3.9-8.7-8.7-8.7
			h-63.7v-41.4c0-13.1,10.7-23.8,23.8-23.8h26.8c4.8,0,8.7-3.9,8.7-8.7s-3.9-8.7-8.7-8.7h-26.8c-22.7,0-41.2,18.5-41.2,41.2V403
			c0,22.7,18.5,41.2,41.2,41.2h170.6c22.7,0,41.2-18.5,41.2-41.2V205.3C382.5,182.6,364,164.1,341.3,164.1z M201.8,426.8h-31.1
			c-13.1,0-23.8-10.7-23.8-23.8v-41.4h54.9L201.8,426.8L201.8,426.8z M201.8,344.2h-54.9v-80h54.9L201.8,344.2L201.8,344.2z
			 M365.1,403c0,13.1-10.7,23.8-23.8,23.8h-31.1v-65.2l0,0h54.9V403z M365.1,344.2h-54.9v-80h54.9V344.2z M365.1,246.7h-54.9v-65.2
			h31.1l0,0c13.1,0,23.8,10.7,23.8,23.8V246.7z"/>
	</g>
</g>
</svg>
