<?xml version="1.0" encoding="utf-8"?>
<!-- Generator: Adobe Illustrator 22.0.1, SVG Export Plug-In . SVG Version: 6.00 Build 0)  -->
<svg version="1.1" id="Capa_1" xmlns="http://www.w3.org/2000/svg" xmlns:xlink="http://www.w3.org/1999/xlink" x="0px" y="0px"
	 viewBox="0 0 410.5 410.5" style="enable-background:new 0 0 410.5 410.5;" xml:space="preserve">
<style type="text/css">
	.st0{fill:#505050;}
</style>
<g>
	<path class="st0" d="M98.6,275.4c-11.4,0-20.6,9.2-20.6,20.6s9.2,20.6,20.6,20.6s20.6-9.2,20.6-20.6
		C119.3,284.6,110,275.4,98.6,275.4z M98.6,301.6c-3.1,0-5.6-2.5-5.6-5.6s2.5-5.6,5.6-5.6s5.6,2.5,5.6,5.6S101.7,301.6,98.6,301.6z"
		/>
	<path class="st0" d="M311.9,275.4c-11.4,0-20.6,9.2-20.6,20.6s9.2,20.6,20.6,20.6s20.6-9.2,20.6-20.6S323.2,275.4,311.9,275.4z
		 M311.9,301.6c-3.1,0-5.6-2.5-5.6-5.6s2.5-5.6,5.6-5.6s5.6,2.5,5.6,5.6S315,301.6,311.9,301.6z"/>
	<path class="st0" d="M401,259.8v-70.4v-76.6c0-23.9-19.4-43.3-43.3-43.3H76.8c-37.1,0-67.3,30.2-67.3,67.3v123.1
		c-5.8,4.3-9.5,11.2-9.5,19v0.9c0,13.1,10.7,23.8,23.8,23.8h30.5c3.6,21.3,22.1,37.5,44.4,37.5s40.8-16.2,44.4-37.5h124.5
		c3.6,21.3,22.1,37.5,44.4,37.5s40.8-16.2,44.4-37.5h30.5c13.1,0,23.8-10.7,23.8-23.8v-0.9C410.5,271.1,406.8,264.2,401,259.8z
		 M386,182h-20.6c-1.1,0-1.9-0.9-1.9-1.9v-57.8c0-1.1,0.9-1.9,1.9-1.9H386V182z M15,279.8v-0.9c0-4.8,3.9-8.8,8.8-8.8H62
		c-3.8,5.4-6.5,11.7-7.6,18.4H23.8C18.9,288.5,15,284.6,15,279.8z M98.6,326c-16.5,0-30-13.5-30-30s13.5-30,30-30s30,13.5,30,30
		S115.2,326,98.6,326z M267.5,288.5H143c-3.6-21.3-22.1-37.5-44.4-37.5c-6.7,0-13,1.5-18.7,4.1H24.5V136.8
		c0-28.8,23.4-52.3,52.3-52.3h280.9c13,0,24,8.8,27.3,20.8h-19.6c-9.3,0-16.9,7.6-16.9,16.9V180c0,9.3,7.6,16.9,16.9,16.9H386V255
		h-55.5c-5.7-2.6-12-4.1-18.7-4.1C289.6,251,271.1,267.3,267.5,288.5z M311.9,326c-16.5,0-30-13.5-30-30s13.5-30,30-30
		s30,13.5,30,30S328.4,326,311.9,326z M395.5,279.8c0,4.8-3.9,8.8-8.8,8.8h-30.5c-1.1-6.8-3.8-13-7.6-18.4h38.2
		c4.8,0,8.8,3.9,8.8,8.8v0.8H395.5z"/>
	<path class="st0" d="M326.4,180v-57.8c0-9.3-7.6-16.9-16.9-16.9h-231c-20,0-36.2,16.2-36.2,36.2V180c0,9.3,7.6,16.9,16.9,16.9
		h250.2C318.8,197,326.4,189.4,326.4,180z M191.9,120.3h59V182h-59V120.3z M176.9,182h-59v-61.6h59V182z M57.4,180v-38.6
		c0-11.7,9.5-21.2,21.2-21.2H103V182H59.3C58.2,182,57.4,181.1,57.4,180z M311.4,180c0,1.1-0.9,1.9-1.9,1.9h-43.6v-61.6h43.6
		c1.1,0,1.9,0.9,1.9,1.9V180z"/>
	<path class="st0" d="M369.5,243.4c4.1,0,7.5-3.4,7.5-7.5v-6.7c0-4.1-3.4-7.5-7.5-7.5s-7.5,3.4-7.5,7.5v6.7
		C362,240.1,365.4,243.4,369.5,243.4z"/>
</g>
</svg>
