<?xml version="1.0" encoding="utf-8"?>
<!-- Generator: Adobe Illustrator 22.0.1, SVG Export Plug-In . SVG Version: 6.00 Build 0)  -->
<svg version="1.1" id="Capa_1" xmlns="http://www.w3.org/2000/svg" xmlns:xlink="http://www.w3.org/1999/xlink" x="0px" y="0px"
	 viewBox="0 0 34.8 34.8" style="enable-background:new 0 0 34.8 34.8;" xml:space="preserve">
<style type="text/css">
	.st0{fill:#505050;}
</style>
<g>
	<path class="st0" d="M17.4,26.8c-5.2,0-9.4-4.2-9.4-9.4S12.2,8,17.4,8s9.4,4.2,9.4,9.4S22.6,26.8,17.4,26.8z M17.4,9.1
		c-4.6,0-8.4,3.8-8.4,8.4s3.8,8.4,8.4,8.4s8.4-3.8,8.4-8.4C25.8,12.8,22,9.1,17.4,9.1z"/>
	<g>
		<path class="st0" d="M17.4,5c-0.3,0-0.5-0.2-0.5-0.5v-4c0-0.3,0.2-0.5,0.5-0.5s0.5,0.2,0.5,0.5v4C17.9,4.8,17.7,5,17.4,5z"/>
		<path class="st0" d="M17.4,34.9c-0.3,0-0.5-0.2-0.5-0.5v-4c0-0.3,0.2-0.5,0.5-0.5s0.5,0.2,0.5,0.5v4
			C17.9,34.6,17.7,34.9,17.4,34.9z"/>
	</g>
	<g>
		<path class="st0" d="M4.5,17.9h-4c-0.3,0-0.5-0.2-0.5-0.5s0.2-0.5,0.5-0.5h4c0.3,0,0.5,0.2,0.5,0.5S4.8,17.9,4.5,17.9z"/>
		<path class="st0" d="M34.3,17.9h-4c-0.3,0-0.5-0.2-0.5-0.5s0.2-0.5,0.5-0.5h4c0.3,0,0.5,0.2,0.5,0.5S34.6,17.9,34.3,17.9z"/>
	</g>
	<g>
		<path class="st0" d="M8.3,8.8c-0.1,0-0.3,0-0.4-0.1L5.1,5.8c-0.2-0.2-0.2-0.5,0-0.7s0.5-0.2,0.7,0l2.8,2.8c0.2,0.2,0.2,0.5,0,0.7
			C8.5,8.7,8.4,8.8,8.3,8.8z"/>
		<path class="st0" d="M29.4,29.9c-0.1,0-0.3,0-0.4-0.1L26.2,27c-0.2-0.2-0.2-0.5,0-0.7s0.5-0.2,0.7,0l2.8,2.8
			c0.2,0.2,0.2,0.5,0,0.7C29.6,29.8,29.5,29.9,29.4,29.9z"/>
	</g>
	<g>
		<path class="st0" d="M5.5,29.9c-0.1,0-0.3,0-0.4-0.1c-0.2-0.2-0.2-0.5,0-0.7l2.8-2.8c0.2-0.2,0.5-0.2,0.7,0s0.2,0.5,0,0.7
			l-2.8,2.8C5.7,29.8,5.6,29.9,5.5,29.9z"/>
		<path class="st0" d="M26.6,8.8c-0.1,0-0.3,0-0.4-0.1C26,8.5,26,8.2,26.2,8L29,5.1c0.2-0.2,0.5-0.2,0.7,0s0.2,0.5,0,0.7l-2.8,2.8
			C26.8,8.7,26.7,8.8,26.6,8.8z"/>
	</g>
</g>
</svg>
